<svg xmlns="http://www.w3.org/2000/svg" xmlns:xlink="http://www.w3.org/1999/xlink" width="365" height="101" viewBox="0 0 365 101">
    <defs>
        <linearGradient id="a" x1="100%" x2="5.924%" y1="0%" y2="90.393%">
            <stop offset="0%" stop-color="#5C63FF"/>
            <stop offset="100%" stop-color="#DA2DA1"/>
        </linearGradient>
        <path id="b" d="M0 101h320V.917H0z"/>
    </defs>
    <g fill="none" fill-rule="evenodd">
        <path fill="url(#a)" d="M0 101.083h365V.999H0z" transform="translate(0 -1)"/>
        <g transform="translate(0 -.917)">
            <path fill="#FFF" d="M110.344 41.554c0-3.244-1.432-4.865-4.297-4.865h-1.705v9.834h1.375c3.085 0 4.627-1.656 4.627-4.969m3.327-.083c0 2.486-.708 4.391-2.123 5.713-1.415 1.322-3.46 1.983-6.131 1.983h-4.276V34.065h4.74c2.467 0 4.38.65 5.744 1.952 1.364 1.302 2.046 3.12 2.046 5.454M124.188 42.886c-1.014-3.257-1.584-5.1-1.712-5.526a15.063 15.063 0 0 1-.272-1.013c-.227.882-.878 3.061-1.953 6.539h3.936zm1.858 6.281l-1.095-3.594h-5.505l-1.096 3.594h-3.45l5.33-15.165h3.915l5.352 15.165h-3.45zM137.224 49.167h-3.202V36.73h-4.102v-2.665h11.405v2.665h-4.101zM151.035 42.886c-1.012-3.257-1.582-5.1-1.709-5.526a14.478 14.478 0 0 1-.273-1.013c-.229.882-.879 3.061-1.954 6.539h3.936zm1.86 6.281l-1.095-3.594h-5.506l-1.095 3.594h-3.45l5.33-15.165h3.915l5.352 15.165h-3.452zM107.017 65.335l-1.493-3.98a21.487 21.487 0 0 1-.599-1.856 16.502 16.502 0 0 1-.553 1.855l-1.511 3.981h4.156zm2.066 5.432l-1.6-4.087h-5.15l-1.582 4.087H99.24l5.08-12.903h1.257l5.052 12.903h-1.547zM122.433 70.767h-1.705l-7.022-10.784h-.07c.094 1.265.14 2.426.14 3.48v7.304h-1.38v-12.85h1.688l7.004 10.74h.072c-.013-.158-.038-.665-.08-1.525a26.098 26.098 0 0 1-.043-1.841v-7.374h1.396v12.85zM131.978 65.335l-1.494-3.98a21.487 21.487 0 0 1-.597-1.856 16.502 16.502 0 0 1-.554 1.855l-1.511 3.981h4.156zm2.065 5.432l-1.599-4.087h-5.15l-1.582 4.087H124.2l5.08-12.903h1.256l5.053 12.903h-1.547zM137.357 70.767v-12.85h1.494v11.496h5.67v1.354zM149.97 64.342l3.428-6.425h1.617l-4.29 7.866v4.984h-1.511v-4.913l-4.28-7.937h1.635zM160.736 70.767h-1.494V59.245h-4.069v-1.328h9.632v1.328h-4.069z"/>
            <mask id="c" fill="#fff">
                <use xlink:href="#b"/>
            </mask>
            <path fill="#FFF" d="M166.739 70.767h1.494v-12.85h-1.494zM177.26 59.069c-1.412 0-2.527.47-3.344 1.41-.818.94-1.226 2.229-1.226 3.863 0 1.682.394 2.982 1.18 3.898.79.918 1.913 1.376 3.372 1.376.897 0 1.919-.161 3.068-.484v1.31c-.891.334-1.99.5-3.296.5-1.893 0-3.354-.573-4.381-1.722-1.03-1.148-1.543-2.78-1.543-4.895 0-1.324.248-2.485.742-3.481a5.34 5.34 0 0 1 2.145-2.302c.935-.54 2.035-.81 3.3-.81 1.348 0 2.526.247 3.534.739l-.633 1.284c-.973-.457-1.945-.686-2.918-.686M190.364 67.348c0 1.13-.41 2.013-1.23 2.646-.82.632-1.934.949-3.34.949-1.524 0-2.696-.197-3.516-.59v-1.441a9.235 9.235 0 0 0 1.723.528 9.051 9.051 0 0 0 1.845.193c.997 0 1.747-.188 2.25-.567.504-.377.756-.904.756-1.577 0-.446-.089-.81-.268-1.095-.178-.283-.477-.546-.897-.786-.418-.24-1.055-.513-1.91-.818-1.196-.427-2.05-.934-2.562-1.52-.514-.586-.77-1.351-.77-2.294 0-.99.372-1.778 1.116-2.364.744-.586 1.73-.88 2.953-.88 1.278 0 2.453.235 3.525.704l-.466 1.3c-1.06-.445-2.092-.667-3.094-.667-.79 0-1.409.17-1.854.509-.446.34-.668.812-.668 1.416 0 .445.082.81.246 1.093.164.285.441.545.83.783.391.237.986.499 1.79.787 1.347.48 2.274.996 2.78 1.546.508.55.761 1.266.761 2.145" mask="url(#c)"/>
            <g fill="#FFF" mask="url(#c)">
                <path d="M266.834 38.402l2.394 4.85 5.35.777-3.872 3.774.914 5.329-4.786-2.515-4.786 2.515.914-5.33-3.872-3.773 5.35-.777zM242.492 61.657h.943v-3.8c0-.092-.024-.159-.074-.202a.299.299 0 0 0-.205-.065h-.726v-1.205h1.69c.288 0 .504.063.644.19.141.126.211.303.211.53v.292c0 .037-.002.072-.005.106l-.013.087-.013.087h.031a2.824 2.824 0 0 1 .83-.969 2.6 2.6 0 0 1 .63-.345c.231-.088.482-.133.75-.133.452 0 .833.113 1.147.336.311.223.532.58.661 1.073h.024c.087-.19.205-.372.354-.544a2.536 2.536 0 0 1 1.894-.865c.327 0 .62.049.878.147.26.095.478.246.656.45.177.201.314.457.41.766.095.308.142.675.142 1.101v2.962h.944v1.211h-2.558V59c0-.182-.012-.352-.034-.509a1.184 1.184 0 0 0-.13-.41.701.701 0 0 0-.27-.274.929.929 0 0 0-.454-.098c-.277 0-.519.063-.726.192a1.638 1.638 0 0 0-.516.51 2.394 2.394 0 0 0-.307.731 3.573 3.573 0 0 0-.103.864v1.651h.938v1.211h-2.545V59c0-.174-.01-.338-.029-.493a1.15 1.15 0 0 0-.12-.41.714.714 0 0 0-.267-.283.888.888 0 0 0-.46-.105c-.285 0-.534.07-.743.208a1.702 1.702 0 0 0-.517.543 2.564 2.564 0 0 0-.305.76 3.79 3.79 0 0 0-.099.86v1.577h.925v1.211h-3.483v-1.21zM256.567 60.924c0 .12.021.233.062.342a.815.815 0 0 0 .482.474 1.19 1.19 0 0 0 1.006-.089c.183-.108.342-.246.474-.414.133-.167.237-.355.311-.565.074-.209.111-.414.111-.617v-.21h-.266c-.108 0-.237.003-.385.011a4.993 4.993 0 0 0-.466.05 3.594 3.594 0 0 0-.478.11 1.649 1.649 0 0 0-.425.191c-.126.08-.229.18-.308.298a.744.744 0 0 0-.118.42m-1.626.123c0-.33.065-.614.198-.85s.305-.435.516-.596c.211-.162.451-.29.72-.389.27-.097.538-.17.807-.224.27-.05.528-.085.777-.1.248-.018.46-.027.632-.027h.411v-.216c0-.207-.032-.382-.094-.526a.886.886 0 0 0-.254-.343 1.018 1.018 0 0 0-.379-.19 1.78 1.78 0 0 0-.472-.059c-.244 0-.476.032-.695.096-.22.065-.414.136-.584.214a3.645 3.645 0 0 0-.553.311l-.595-1.118a3.64 3.64 0 0 1 .695-.397c.224-.1.493-.19.81-.276a4.12 4.12 0 0 1 1.065-.128c.873 0 1.536.218 1.99.655.453.436.68 1.071.68 1.903v2.59c0 .186.093.278.28.278h.583v1.211h-1.528c-.149 0-.276-.018-.382-.055a.67.67 0 0 1-.254-.15.575.575 0 0 1-.143-.217.753.753 0 0 1-.046-.267v-.074a1.19 1.19 0 0 1 .037-.329h-.025a2.199 2.199 0 0 1-.46.627 2.528 2.528 0 0 1-.279.23 1.864 1.864 0 0 1-.353.198 2.378 2.378 0 0 1-.958.193 2.67 2.67 0 0 1-.803-.12 2.004 2.004 0 0 1-.686-.37 1.846 1.846 0 0 1-.478-.619 1.955 1.955 0 0 1-.18-.866M262.218 60.706h1.372v.38c0 .111.034.21.103.294a.774.774 0 0 0 .279.211c.118.056.254.098.407.128.152.028.315.043.484.043.323 0 .587-.056.794-.167.207-.113.31-.278.31-.497a.536.536 0 0 0-.107-.342 1.003 1.003 0 0 0-.305-.245 2.715 2.715 0 0 0-.47-.2 36.174 36.174 0 0 1-.595-.213 10.476 10.476 0 0 1-.72-.283 2.916 2.916 0 0 1-.657-.387 1.908 1.908 0 0 1-.48-.553 1.559 1.559 0 0 1-.186-.789c0-.343.079-.633.234-.869.155-.236.354-.427.599-.574a2.65 2.65 0 0 1 .823-.317c.303-.064.602-.097.896-.097.237 0 .49.025.764.073.273.047.527.125.76.232.235.108.429.247.585.42.155.171.232.38.232.623v.826h-1.385v-.366c0-.166-.088-.296-.263-.392-.176-.094-.407-.142-.693-.142-.128 0-.25.011-.363.034a1.017 1.017 0 0 0-.298.106.574.574 0 0 0-.201.18.454.454 0 0 0-.075.263c0 .133.037.248.112.345.074.097.174.183.298.257.124.075.267.141.432.2.163.057.335.113.518.167.248.08.5.168.757.267.257.1.488.224.695.372.207.15.377.332.51.55.132.217.198.485.198.804 0 .327-.072.614-.217.86a1.884 1.884 0 0 1-.59.617c-.248.166-.537.29-.87.373a4.513 4.513 0 0 1-1.968.028 3.337 3.337 0 0 1-.847-.29 1.995 1.995 0 0 1-.627-.49 1.035 1.035 0 0 1-.245-.688v-.752zM269.29 57.59h-.994v-1.205h1.044v-1.77h1.564v1.77h1.472v1.205h-1.472v2.731c0 .278.045.5.137.665a1.055 1.055 0 0 0 .764.556c.148.027.281.04.397.04h.121a.589.589 0 0 0 .09-.006.496.496 0 0 0 .08-.007v1.323a2.747 2.747 0 0 1-.496.038c-.153 0-.326-.01-.519-.03a3.304 3.304 0 0 1-.589-.123 2.818 2.818 0 0 1-.59-.254 1.872 1.872 0 0 1-.513-.435 2.132 2.132 0 0 1-.359-.664 2.836 2.836 0 0 1-.137-.935V57.59zM277.846 58.9a1.917 1.917 0 0 0-.112-.6 1.373 1.373 0 0 0-.27-.446 1.163 1.163 0 0 0-.88-.376c-.206 0-.396.034-.57.103a1.47 1.47 0 0 0-.463.289 1.62 1.62 0 0 0-.338.45 2.01 2.01 0 0 0-.192.58h2.825zm-4.514.727c0-.501.08-.96.242-1.375.162-.416.387-.775.676-1.075.29-.3.637-.533 1.04-.698a3.476 3.476 0 0 1 1.332-.25c.468 0 .88.08 1.24.24.357.16.659.378.903.656.244.277.429.603.556.977a3.766 3.766 0 0 1 .182 1.369l-.011.18a3.134 3.134 0 0 0-.02.205h-4.488c.024.299.093.56.208.786a1.762 1.762 0 0 0 1.033.9c.224.077.458.115.702.115.265 0 .51-.035.735-.106.226-.07.426-.148.6-.235.198-.1.38-.214.546-.342l.627 1.143c-.202.17-.437.32-.701.453a4.63 4.63 0 0 1-.824.313c-.32.093-.685.14-1.095.14-.538 0-1.023-.09-1.452-.27a3.243 3.243 0 0 1-1.097-.736c-.3-.31-.53-.672-.692-1.083a3.536 3.536 0 0 1-.242-1.307zM280.564 61.657h.944V57.87c0-.091-.025-.16-.075-.208a.279.279 0 0 0-.204-.071h-.727v-1.205h1.69c.29 0 .506.062.651.186.145.124.217.323.217.596v.385a4.15 4.15 0 0 1-.012.29l-.012.114h.024c.075-.232.177-.45.308-.653a2.38 2.38 0 0 1 .46-.527c.175-.15.372-.266.59-.354a1.86 1.86 0 0 1 .806-.127c.035.002.068.006.097.009l.087.012v1.59l-.113-.013a1.715 1.715 0 0 0-1.127.187 1.766 1.766 0 0 0-.589.527c-.156.22-.27.473-.345.758-.074.286-.11.58-.11.882v1.409h.923v1.21h-3.483v-1.21zM286.085 60.706h1.372v.38c0 .111.034.21.103.294a.765.765 0 0 0 .279.211c.117.056.253.098.406.128.153.028.315.043.485.043.323 0 .587-.056.794-.167.207-.113.31-.278.31-.497a.53.53 0 0 0-.108-.342 1.01 1.01 0 0 0-.304-.245 2.784 2.784 0 0 0-.47-.2 33.158 33.158 0 0 1-.595-.213 10.28 10.28 0 0 1-.72-.283 2.923 2.923 0 0 1-.658-.387 1.939 1.939 0 0 1-.48-.553c-.123-.215-.185-.479-.185-.789 0-.343.078-.633.233-.869a1.84 1.84 0 0 1 .6-.574c.244-.147.518-.252.822-.317.304-.064.603-.097.897-.097.236 0 .49.025.764.073.273.047.526.125.76.232.234.108.428.247.584.42a.9.9 0 0 1 .233.623v.826h-1.385v-.366c0-.166-.088-.296-.263-.392-.176-.094-.408-.142-.693-.142-.13 0-.25.011-.363.034a1.006 1.006 0 0 0-.298.106.587.587 0 0 0-.202.18.453.453 0 0 0-.074.263c0 .133.037.248.11.345.076.097.175.183.299.257.125.075.268.141.432.2.164.057.336.113.518.167.249.08.5.168.758.267.257.1.488.224.695.372.207.15.377.332.509.55.133.217.199.485.199.804 0 .327-.072.614-.218.86-.144.246-.34.452-.59.617-.247.166-.537.29-.868.373a4.504 4.504 0 0 1-1.968.028 3.323 3.323 0 0 1-.848-.29 1.973 1.973 0 0 1-.627-.49 1.03 1.03 0 0 1-.245-.688v-.752zM245.035 69.494c0 .206.028.407.084.602.056.195.14.368.252.52.111.152.25.275.414.37.164.092.354.14.571.14a1.235 1.235 0 0 0 .94-.428c.122-.139.218-.31.287-.514.07-.203.104-.436.104-.7a2.29 2.29 0 0 0-.096-.688 1.595 1.595 0 0 0-.272-.524 1.249 1.249 0 0 0-.417-.336 1.303 1.303 0 0 0-1.034-.022c-.159.064-.3.164-.424.3a1.492 1.492 0 0 0-.297.52 2.285 2.285 0 0 0-.112.76zm-1.28 3.713v-5.182c0-.152-.076-.228-.229-.228h-.594v-.986h1.367a1 1 0 0 1 .307.041.584.584 0 0 1 .203.11c.053.045.09.097.112.157.022.06.033.123.033.19v.031c0 .034 0 .064-.003.091l-.002.077a.472.472 0 0 0-.005.071h.02c.098-.166.227-.315.386-.447.068-.055.145-.109.231-.163.087-.054.184-.102.295-.145a2.238 2.238 0 0 1 .795-.14c.36 0 .683.07.972.204.29.135.537.325.74.57.203.243.36.536.47.878.11.342.165.718.165 1.128 0 .423-.06.805-.183 1.147-.122.343-.29.634-.505.874-.216.24-.47.427-.768.56a2.35 2.35 0 0 1-.967.197 1.8 1.8 0 0 1-.683-.117 2.066 2.066 0 0 1-.476-.259 1.885 1.885 0 0 1-.37-.376h-.02c.003.037.008.08.014.127l.011.145c.003.056.005.118.005.185v1.26h.772v.991h-2.86v-.99h.767zM250.392 71.125h.772v-3.1c0-.074-.02-.13-.06-.17a.234.234 0 0 0-.169-.058h-.595v-.985h1.382c.237 0 .415.05.533.152.12.101.178.265.178.488v.315c0 .05 0 .096-.002.137-.002.04-.005.075-.008.102l-.01.091h.02c.062-.19.146-.368.252-.534a1.88 1.88 0 0 1 .376-.43c.143-.123.305-.22.482-.29a1.531 1.531 0 0 1 .74-.097l.072.01v1.301c-.027-.004-.058-.007-.092-.01a1.662 1.662 0 0 0-.228-.01 1.41 1.41 0 0 0-.694.161 1.45 1.45 0 0 0-.482.432 1.88 1.88 0 0 0-.282.62 2.847 2.847 0 0 0-.092.722v1.153h.758v.99h-2.851v-.99zM256.759 69.464c0 .247.042.472.125.675a1.524 1.524 0 0 0 .843.856c.19.08.395.12.612.12a1.562 1.562 0 0 0 1.105-.455c.144-.144.257-.317.34-.52.083-.204.124-.429.124-.676 0-.244-.041-.468-.124-.67a1.556 1.556 0 0 0-2.56-.523c-.144.144-.257.32-.34.522a1.758 1.758 0 0 0-.125.671m-1.341 0a2.696 2.696 0 0 1 .85-1.999c.263-.246.572-.438.926-.574a3.091 3.091 0 0 1 1.135-.206c.407 0 .787.068 1.143.206.355.136.665.328.93.574.263.245.472.538.625.88.152.34.228.712.228 1.12 0 .405-.076.778-.228 1.12-.153.34-.362.632-.625.878a2.874 2.874 0 0 1-.927.573 3.104 3.104 0 0 1-1.136.206 3.12 3.12 0 0 1-1.141-.206 2.848 2.848 0 0 1-.926-.573 2.673 2.673 0 0 1-.625-.879 2.703 2.703 0 0 1-.23-1.12M265.174 70.897c.155 0 .308-.025.454-.076.148-.052.279-.136.395-.255.114-.118.207-.277.276-.478.069-.2.104-.45.104-.751s-.036-.55-.106-.747a1.227 1.227 0 0 0-.285-.47.953.953 0 0 0-.416-.244 1.84 1.84 0 0 0-.503-.068c-.2 0-.378.034-.534.104-.156.07-.286.17-.394.299a1.365 1.365 0 0 0-.241.468 2.125 2.125 0 0 0-.081.608c0 .229.029.443.089.639.059.197.144.367.257.51.11.145.25.257.416.339.166.08.355.122.569.122zm-1.768 1.966a3.528 3.528 0 0 0 .894.302c.18.036.37.053.574.053.203 0 .396-.023.576-.071.182-.048.34-.124.478-.23a1.08 1.08 0 0 0 .325-.41c.08-.17.12-.376.12-.62v-.335c0-.031 0-.062.002-.094a1.05 1.05 0 0 1 .008-.09l.01-.096h-.02a1.717 1.717 0 0 1-.592.547c-.236.13-.531.195-.886.195-.383 0-.723-.072-1.02-.216a2.181 2.181 0 0 1-.746-.582 2.577 2.577 0 0 1-.46-.853 3.378 3.378 0 0 1-.157-1.036 3.4 3.4 0 0 1 .152-1.03 2.49 2.49 0 0 1 .45-.838c.198-.238.444-.426.737-.566a2.339 2.339 0 0 1 1.013-.208c.16 0 .32.016.483.046.162.03.317.079.465.145.147.066.28.149.403.249.122.099.219.22.29.363h.02l-.01-.051a.684.684 0 0 1-.01-.127c0-.142.048-.261.145-.355.096-.095.25-.143.46-.143h1.32v.985h-.508a.252.252 0 0 0-.165.054c-.042.035-.063.087-.063.155v3.789c0 .305-.038.579-.112.819-.075.24-.178.453-.307.639a2.08 2.08 0 0 1-.462.478c-.18.132-.37.24-.577.325a3.066 3.066 0 0 1-.653.186 4.079 4.079 0 0 1-1.692-.07 4.202 4.202 0 0 1-.892-.33l.407-.98zM269.742 71.125h.772v-3.1c0-.074-.02-.13-.06-.17a.234.234 0 0 0-.168-.058h-.595v-.985h1.382c.237 0 .415.05.533.152.12.101.178.265.178.488v.315c0 .05 0 .096-.002.137-.002.04-.005.075-.008.102l-.01.091h.02c.062-.19.146-.368.252-.534a1.88 1.88 0 0 1 .376-.43c.143-.123.305-.22.482-.29a1.531 1.531 0 0 1 .74-.097l.071.01v1.301c-.027-.004-.058-.007-.092-.01a1.662 1.662 0 0 0-.228-.01 1.41 1.41 0 0 0-.694.161 1.45 1.45 0 0 0-.482.432 1.88 1.88 0 0 0-.282.62 2.847 2.847 0 0 0-.092.722v1.153h.758v.99h-2.85v-.99zM276.033 70.526c0 .098.017.19.051.279a.672.672 0 0 0 .393.389.871.871 0 0 0 .328.059c.18 0 .345-.044.496-.133.15-.088.28-.2.388-.338.11-.137.194-.291.254-.462.062-.171.092-.34.092-.505v-.173h-.219a5.5 5.5 0 0 0-.314.01 3.86 3.86 0 0 0-.382.04c-.132.02-.262.05-.39.09a1.382 1.382 0 0 0-.349.157.848.848 0 0 0-.25.244.6.6 0 0 0-.098.343m-1.33.102c0-.272.054-.503.162-.697a1.58 1.58 0 0 1 .421-.487c.173-.132.37-.238.59-.317.22-.08.44-.141.66-.184.221-.042.432-.07.635-.083.203-.014.376-.021.518-.021h.335v-.177c0-.17-.025-.313-.076-.43a.727.727 0 0 0-.208-.282.844.844 0 0 0-.31-.154 1.437 1.437 0 0 0-.386-.05c-.199 0-.389.027-.569.08a3.566 3.566 0 0 0-.477.175 3.023 3.023 0 0 0-.452.254l-.489-.915c.166-.122.357-.23.57-.325.182-.081.404-.156.663-.225.26-.07.55-.105.871-.105.715 0 1.257.179 1.628.536.371.358.557.876.557 1.557v2.119c0 .152.076.229.228.229h.478v.99h-1.25a.957.957 0 0 1-.313-.046.562.562 0 0 1-.208-.122.468.468 0 0 1-.117-.178.598.598 0 0 1-.038-.218v-.061a1.098 1.098 0 0 1 .031-.27h-.02a1.817 1.817 0 0 1-.605.7 1.577 1.577 0 0 1-.29.165 2.06 2.06 0 0 1-.358.114 2.194 2.194 0 0 1-1.082-.056 1.612 1.612 0 0 1-.56-.303 1.51 1.51 0 0 1-.393-.504 1.612 1.612 0 0 1-.147-.71M281.288 71.125h.772v-3.109c0-.075-.02-.13-.06-.165a.246.246 0 0 0-.168-.054h-.595v-.985h1.382c.237 0 .413.051.528.155.116.103.173.248.173.434v.24c0 .03-.002.058-.005.086-.004.026-.006.05-.01.07l-.01.071h.025a2.362 2.362 0 0 1 .678-.792 2.14 2.14 0 0 1 .516-.282c.19-.073.394-.109.615-.109.369 0 .681.091.937.274.255.183.436.476.541.88h.02a1.85 1.85 0 0 1 .29-.445c.122-.14.263-.264.422-.369.159-.105.334-.188.525-.249.192-.06.392-.09.603-.09.266 0 .507.04.718.118.211.08.39.203.536.37.145.164.257.374.336.626.077.252.116.553.116.901v2.424h.772v.99h-2.093V68.95c0-.148-.009-.288-.028-.416a.976.976 0 0 0-.106-.336.577.577 0 0 0-.221-.223.747.747 0 0 0-.371-.08c-.227 0-.425.051-.595.156a1.34 1.34 0 0 0-.421.417 1.962 1.962 0 0 0-.252.6 2.986 2.986 0 0 0-.084.705v1.352h.768v.99h-2.083V68.95c0-.14-.008-.276-.023-.403a.957.957 0 0 0-.099-.336.579.579 0 0 0-.219-.23.723.723 0 0 0-.375-.087c-.234 0-.436.056-.607.17a1.404 1.404 0 0 0-.424.445 2.067 2.067 0 0 0-.249.622 3.035 3.035 0 0 0-.082.703v1.291h.758v.99h-2.851v-.99z"/>
                <path d="M291.295 51.557v-.27h-.007c-.143-13.581-11.021-24.585-24.38-24.585-6.605 0-12.601 2.695-16.998 7.057l1.236 1.365c4.07-4.057 9.633-6.564 15.762-6.564 12.353 0 22.414 10.17 22.557 22.727h-1.737v-.2c0-5.704-2.307-10.878-6.036-14.642l-1.413 1.302c3.412 3.42 5.526 8.139 5.526 13.34v.2h-2.173v-.2c0-8.91-7.006-16.214-15.8-16.696v1.89c7.754.479 13.916 6.935 13.916 14.807v.44h.034v1.245h9.513v-1.216z"/>
                <path d="M266.908 32.19c4.406 0 8.462 1.522 11.68 4.06l1.43-1.32a20.716 20.716 0 0 0-13.11-4.662c-11.479 0-20.819 9.34-20.819 20.82v.2h-1.739a23.153 23.153 0 0 1 5.262-14.478l-1.243-1.374a25.026 25.026 0 0 0-5.847 16.12v.169h.06v1.048h9.513v-1.485h-.026v-.2c0-7.853 6.134-14.298 13.861-14.803v-1.89c-8.767.509-15.746 7.8-15.746 16.693v.2h-2.172v-.2c0-10.42 8.476-18.897 18.896-18.897"/>
                <path d="M257.26 47.63l.558 1.127 1.245.182-.902.878.213 1.24-1.114-.585-1.113.585.212-1.24-.901-.878 1.245-.182zM276.63 47.63l.558 1.127 1.245.182-.901.878.212 1.24-1.113-.585-1.114.585.213-1.24-.902-.878 1.245-.182z"/>
            </g>
            <path fill="#FFF" d="M11.62 66.296h69.617M11.619 66.697h69.617v-.802H11.619zM25.742 49.178a3.543 3.543 0 1 1-7.085 0 3.543 3.543 0 0 1 7.085 0M36.473 45.504a4.891 4.891 0 1 1-9.782 0 4.891 4.891 0 0 1 9.782 0M37.913 56.967a1.2 1.2 0 1 1-2.399 0 1.2 1.2 0 0 1 2.398 0M64.128 44.21a4.89 4.89 0 1 1-9.78.001 4.89 4.89 0 0 1 9.78 0M49.653 50.395a3.308 3.308 0 1 1-6.616 0 3.308 3.308 0 0 1 6.616 0M79.744 41.723a6.817 6.817 0 0 1-6.818 6.817 6.817 6.817 0 1 1 0-13.635 6.818 6.818 0 0 1 6.818 6.818" mask="url(#c)"/>
            <path fill="#FFF" d="M73.237 40.522l-2.24 20.608-1.189-2.675-3.21 3.424-5.716-18.118-14.723 5.574-4.547 6.029-2.746-2.154-2.109 3-6.064-11.122-8.665 2.66L11.62 65.895l.128.802 10.81-18.273 7.745-2.378 6.368 11.68 2.365-3.364L41.76 56.5l4.9-6.498 13.713-5.192 5.872 18.617 3.321-3.543 1.905 4.292 2.563-23.568z" mask="url(#c)"/>
        </g>
    </g>
</svg>
