<svg id="Layer_1" data-name="Layer 1" xmlns="http://www.w3.org/2000/svg" xmlns:xlink="http://www.w3.org/1999/xlink" viewBox="0 0 365 100"><defs><style>.cls-1,.cls-2{fill-rule:evenodd;}.cls-1{fill:url(#linear-gradient);}.cls-2{fill:#fff;}.cls-3{font-size:18.81px;font-family:Lato-Black, Lato;font-weight:800;}.cls-3,.cls-6{fill:#fff7e8;}.cls-4{letter-spacing:-0.02em;}.cls-5{font-family:Lato-Regular, Lato;font-weight:400;}</style><linearGradient id="linear-gradient" x1="-0.96" y1="17.5" x2="365.71" y2="82.45" gradientUnits="userSpaceOnUse"><stop offset="0" stop-color="#1a2980"/><stop offset="1" stop-color="#21b3b1"/></linearGradient></defs><title>Machine Learning Engineer</title><path class="cls-1" d="M-2.64,102.13H367.64V-2.13H-2.64Z"/><path class="cls-2" d="M266.83,37.4l2.4,4.85,5.35.78-3.87,3.77.91,5.33-4.79-2.51-4.78,2.51L263,46.8,259.09,43l5.35-.78ZM242.49,60.66h.94v-3.8a.24.24,0,0,0-.07-.2.31.31,0,0,0-.2-.07h-.73v-1.2h1.69a.91.91,0,0,1,.64.19.66.66,0,0,1,.21.52v.49l0,.09h0a2.82,2.82,0,0,1,1.46-1.32,2.11,2.11,0,0,1,.75-.13,1.87,1.87,0,0,1,1.15.34,1.83,1.83,0,0,1,.66,1.07h0a2,2,0,0,1,.35-.54,2.52,2.52,0,0,1,1.89-.87,2.42,2.42,0,0,1,.88.15,1.5,1.5,0,0,1,.66.45,2,2,0,0,1,.41.76,4,4,0,0,1,.14,1.1v3h1v1.21h-2.56V58a2.78,2.78,0,0,0,0-.51,1,1,0,0,0-.13-.41.64.64,0,0,0-.27-.27.87.87,0,0,0-.45-.1,1.35,1.35,0,0,0-.73.19,1.65,1.65,0,0,0-.51.51,2.23,2.23,0,0,0-.31.73,3.57,3.57,0,0,0-.1.87v1.65h.94v1.21h-2.55V58a3.79,3.79,0,0,0,0-.49.93.93,0,0,0-.12-.41.69.69,0,0,0-.27-.29.91.91,0,0,0-.46-.1,1.31,1.31,0,0,0-.74.21,1.68,1.68,0,0,0-.52.54,2.62,2.62,0,0,0-.3.76,3.55,3.55,0,0,0-.1.86v1.58H246v1.21h-3.49V60.66Zm14.08-.74a1,1,0,0,0,.06.35.8.8,0,0,0,.48.47,1.2,1.2,0,0,0,1-.09,1.85,1.85,0,0,0,.47-.41,2,2,0,0,0,.31-.57,1.69,1.69,0,0,0,.11-.62v-.21h-.26l-.39,0a3.59,3.59,0,0,0-.46,0,2.4,2.4,0,0,0-.48.11,1.38,1.38,0,0,0-.43.19,1.11,1.11,0,0,0-.31.3.67.67,0,0,0-.11.41m-1.63.13a1.72,1.72,0,0,1,.2-.85,1.85,1.85,0,0,1,.51-.6,3.13,3.13,0,0,1,.72-.39,6.09,6.09,0,0,1,.81-.22,5.56,5.56,0,0,1,.78-.1l.63,0H259v-.21a1.36,1.36,0,0,0-.09-.53.86.86,0,0,0-.26-.34.91.91,0,0,0-.38-.19,1.84,1.84,0,0,0-.47-.06,2.61,2.61,0,0,0-.69.09,4.92,4.92,0,0,0-.59.22,4.29,4.29,0,0,0-.55.31L255.38,56a3.65,3.65,0,0,1,.69-.4,4.78,4.78,0,0,1,.81-.27,4.29,4.29,0,0,1,1.07-.13,2.76,2.76,0,0,1,2,.66,2.52,2.52,0,0,1,.68,1.9v2.59a.25.25,0,0,0,.28.28h.58v1.21H260a1,1,0,0,1-.38-.06.68.68,0,0,1-.26-.15.6.6,0,0,1-.14-.21.84.84,0,0,1,0-.27V61.1a1.12,1.12,0,0,1,0-.32h0a2.33,2.33,0,0,1-.46.62,2,2,0,0,1-.28.23,1.75,1.75,0,0,1-.35.2,2.29,2.29,0,0,1-1,.19,2.79,2.79,0,0,1-.81-.12,1.9,1.9,0,0,1-1.16-1,2,2,0,0,1-.18-.86m7.28-.34h1.37v.38a.43.43,0,0,0,.1.29.83.83,0,0,0,.28.21,1.64,1.64,0,0,0,.41.13,2.45,2.45,0,0,0,.48,0,1.58,1.58,0,0,0,.8-.17.53.53,0,0,0,.31-.49.58.58,0,0,0-.11-.34,1,1,0,0,0-.3-.25,3.15,3.15,0,0,0-.47-.2l-.6-.21c-.24-.09-.48-.18-.72-.29a2.57,2.57,0,0,1-.66-.38,2,2,0,0,1-.48-.56,1.52,1.52,0,0,1-.18-.78,1.56,1.56,0,0,1,.23-.87,2,2,0,0,1,.6-.58,2.4,2.4,0,0,1,.82-.31,4,4,0,0,1,.9-.1,4.13,4.13,0,0,1,.76.07,3.38,3.38,0,0,1,.76.23,1.85,1.85,0,0,1,.59.42.92.92,0,0,1,.23.63v.82H266V57a.44.44,0,0,0-.26-.4,1.51,1.51,0,0,0-.69-.14,1.37,1.37,0,0,0-.36,0,1,1,0,0,0-.3.1.7.7,0,0,0-.2.18.5.5,0,0,0-.08.27.58.58,0,0,0,.11.34,1.28,1.28,0,0,0,.3.26,3.45,3.45,0,0,0,.43.2l.52.16.76.27a3.22,3.22,0,0,1,.69.37,1.9,1.9,0,0,1,.51.55,1.48,1.48,0,0,1,.2.81,1.69,1.69,0,0,1-.81,1.47,2.67,2.67,0,0,1-.87.38,4.62,4.62,0,0,1-2,0,3.55,3.55,0,0,1-.85-.29,2.14,2.14,0,0,1-.63-.49,1,1,0,0,1-.24-.69v-.75Zm7.07-3.12h-1V55.38h1V53.61h1.56v1.77h1.48v1.21H270.9v2.73A1.42,1.42,0,0,0,271,60a1.05,1.05,0,0,0,.77.55,1.91,1.91,0,0,0,.39,0h.29v1.32a2.7,2.7,0,0,1-.49,0l-.52,0a2.94,2.94,0,0,1-.59-.12,2.58,2.58,0,0,1-.59-.26,1.77,1.77,0,0,1-.51-.43,2.17,2.17,0,0,1-.36-.67,2.66,2.66,0,0,1-.14-.93Zm8.56,1.31a2.06,2.06,0,0,0-.12-.6,1.38,1.38,0,0,0-.27-.45,1.15,1.15,0,0,0-.88-.37,1.56,1.56,0,0,0-.57.1,1.7,1.7,0,0,0-.46.29,1.67,1.67,0,0,0-.34.45,2.32,2.32,0,0,0-.19.58Zm-4.52.73a3.85,3.85,0,0,1,.24-1.38,3.37,3.37,0,0,1,.68-1.07,3,3,0,0,1,1-.7,3.38,3.38,0,0,1,1.33-.25,3,3,0,0,1,1.24.24,2.74,2.74,0,0,1,.91.65,3,3,0,0,1,.55,1,3.55,3.55,0,0,1,.18,1.37v.18c0,.07,0,.14,0,.21H275a2.23,2.23,0,0,0,.21.78,1.75,1.75,0,0,0,1,.9,2,2,0,0,0,.7.12,2.43,2.43,0,0,0,.73-.11,4.46,4.46,0,0,0,.6-.23,3.43,3.43,0,0,0,.55-.35l.63,1.15a3.58,3.58,0,0,1-.71.45,4.07,4.07,0,0,1-.82.31,3.65,3.65,0,0,1-1.09.14,3.76,3.76,0,0,1-1.46-.27,3.08,3.08,0,0,1-1.09-.73,3.34,3.34,0,0,1-.7-1.09,3.61,3.61,0,0,1-.24-1.3Zm7.23,2h.95V56.87a.26.26,0,0,0-.28-.28h-.73v-1.2h1.69a1,1,0,0,1,.65.18.75.75,0,0,1,.22.6v.38a2.71,2.71,0,0,1,0,.29V57h0a3.07,3.07,0,0,1,.31-.66,2.26,2.26,0,0,1,.46-.52,2.08,2.08,0,0,1,.59-.36,1.82,1.82,0,0,1,.8-.12h.1l.09,0v1.59l-.12,0a1.75,1.75,0,0,0-1.12.19,1.67,1.67,0,0,0-.59.53,2.31,2.31,0,0,0-.35.76,3.66,3.66,0,0,0-.11.88v1.41h.93v1.21h-3.49Zm5.52-.95h1.38v.38a.43.43,0,0,0,.1.29.83.83,0,0,0,.28.21,1.57,1.57,0,0,0,.4.13,2.63,2.63,0,0,0,.49,0,1.54,1.54,0,0,0,.79-.17.52.52,0,0,0,.31-.49.49.49,0,0,0-.1-.34,1.07,1.07,0,0,0-.31-.25,2.76,2.76,0,0,0-.47-.2l-.59-.21a7.72,7.72,0,0,1-.72-.29,2.41,2.41,0,0,1-.66-.38,1.86,1.86,0,0,1-.48-.56,1.55,1.55,0,0,1-.19-.78,1.49,1.49,0,0,1,.24-.87,1.85,1.85,0,0,1,.6-.58,2.68,2.68,0,0,1,.82-.31,3.94,3.94,0,0,1,.9-.1,4.21,4.21,0,0,1,.76.07,3.54,3.54,0,0,1,.76.23A1.81,1.81,0,0,1,291,56a.92.92,0,0,1,.24.63v.82h-1.39V57a.45.45,0,0,0-.26-.4,1.54,1.54,0,0,0-.69-.14,1.5,1.5,0,0,0-.37,0,1,1,0,0,0-.29.1.74.74,0,0,0-.21.18.5.5,0,0,0-.07.27.58.58,0,0,0,.11.34,1,1,0,0,0,.3.26,2.89,2.89,0,0,0,.43.2l.52.16.76.27a3.78,3.78,0,0,1,.69.37,1.9,1.9,0,0,1,.51.55,1.57,1.57,0,0,1,.2.81,1.64,1.64,0,0,1-.22.86,1.81,1.81,0,0,1-.59.61,2.87,2.87,0,0,1-.87.38,4.62,4.62,0,0,1-2,0,3.55,3.55,0,0,1-.85-.29,2,2,0,0,1-.63-.49,1,1,0,0,1-.24-.69v-.75Zm-41,8.78a2.09,2.09,0,0,0,.08.61,1.92,1.92,0,0,0,.25.52,1.37,1.37,0,0,0,.42.37,1.15,1.15,0,0,0,.57.14,1.26,1.26,0,0,0,.94-.43,1.52,1.52,0,0,0,.28-.52,2.1,2.1,0,0,0,.11-.7,2.24,2.24,0,0,0-.1-.68,1.77,1.77,0,0,0-.27-.53,1.23,1.23,0,0,0-.42-.33,1.32,1.32,0,0,0-1,0,1.39,1.39,0,0,0-.43.3,1.57,1.57,0,0,0-.29.52,2.22,2.22,0,0,0-.11.76Zm-1.28,3.72V67a.2.2,0,0,0-.23-.23h-.6v-1h1.37a1.1,1.1,0,0,1,.31,0,.56.56,0,0,1,.2.11.42.42,0,0,1,.11.16.58.58,0,0,1,0,.19v.2s0,0,0,.07h0a1.67,1.67,0,0,1,.39-.45l.23-.16.3-.15a2.35,2.35,0,0,1,.79-.14,2.19,2.19,0,0,1,1,.21,2,2,0,0,1,.74.57,2.39,2.39,0,0,1,.47.88,3.6,3.6,0,0,1,.17,1.12,3.43,3.43,0,0,1-.18,1.15,2.72,2.72,0,0,1-.51.88,2.39,2.39,0,0,1-.77.56,2.26,2.26,0,0,1-1,.19,1.79,1.79,0,0,1-.69-.11,2.37,2.37,0,0,1-.47-.26,1.9,1.9,0,0,1-.37-.38h0a.62.62,0,0,0,0,.13v.14c0,.06,0,.12,0,.19v1.26h.77v1H243v-1Zm6.63-2.09h.77V67a.22.22,0,0,0-.06-.17.18.18,0,0,0-.17-.06h-.59v-1h1.38a.83.83,0,0,1,.54.15.62.62,0,0,1,.17.49v.45a.37.37,0,0,1,0,.11v.09h0a2.69,2.69,0,0,1,.26-.54,1.88,1.88,0,0,1,.37-.43,1.81,1.81,0,0,1,.48-.29,1.56,1.56,0,0,1,.74-.09h.08v1.3H254a1.39,1.39,0,0,0-.7.16,1.41,1.41,0,0,0-.48.43,1.83,1.83,0,0,0-.28.62,2.54,2.54,0,0,0-.09.72v1.16h.75v1h-2.85v-1Zm6.37-1.66a1.83,1.83,0,0,0,.12.68,1.57,1.57,0,0,0,2.56.52,1.42,1.42,0,0,0,.34-.52,1.65,1.65,0,0,0,.13-.68,1.67,1.67,0,0,0-.13-.67,1.56,1.56,0,0,0-2.56-.52,1.87,1.87,0,0,0-.34.52,1.93,1.93,0,0,0-.12.67m-1.34,0a2.68,2.68,0,0,1,.85-2,2.82,2.82,0,0,1,.92-.58,3,3,0,0,1,1.14-.2,3,3,0,0,1,1.14.2,2.76,2.76,0,0,1,.93.58,2.57,2.57,0,0,1,.63.88,2.7,2.7,0,0,1,.23,1.12,2.8,2.8,0,0,1-.23,1.12,2.63,2.63,0,0,1-.63.87,2.87,2.87,0,0,1-.92.58,3.19,3.19,0,0,1-1.14.2,3,3,0,0,1-1.14-.2,2.91,2.91,0,0,1-.93-.58,2.72,2.72,0,0,1-.85-2m9.75,1.44a1.44,1.44,0,0,0,.46-.08.9.9,0,0,0,.39-.25,1.24,1.24,0,0,0,.28-.48,2.86,2.86,0,0,0,0-1.5,1.2,1.2,0,0,0-.29-.47.86.86,0,0,0-.41-.24,1.79,1.79,0,0,0-.51-.07,1.29,1.29,0,0,0-.53.1,1,1,0,0,0-.39.3,1.42,1.42,0,0,0-.25.47,2.49,2.49,0,0,0-.08.61,2.2,2.2,0,0,0,.09.64,1.75,1.75,0,0,0,.26.51,1.28,1.28,0,0,0,.42.34A1.25,1.25,0,0,0,265.17,69.9Zm-1.76,2a3.91,3.91,0,0,0,.89.31,3.45,3.45,0,0,0,.57,0,2.15,2.15,0,0,0,.58-.07,1.53,1.53,0,0,0,.48-.23,1.07,1.07,0,0,0,.32-.41,1.46,1.46,0,0,0,.12-.62v-.34a.28.28,0,0,1,0-.09v-.19h0a1.64,1.64,0,0,1-.59.55,1.79,1.79,0,0,1-.88.19,2.32,2.32,0,0,1-1-.21,2.26,2.26,0,0,1-.75-.58,2.65,2.65,0,0,1-.46-.86,3.26,3.26,0,0,1-.16-1,3.57,3.57,0,0,1,.15-1,2.62,2.62,0,0,1,.45-.84,2.19,2.19,0,0,1,.74-.57,2.54,2.54,0,0,1,1-.21,2.81,2.81,0,0,1,.49,0,1.9,1.9,0,0,1,.46.15,1.69,1.69,0,0,1,.41.24,1.19,1.19,0,0,1,.29.37h0v0a.29.29,0,0,1,0-.13.48.48,0,0,1,.14-.36.67.67,0,0,1,.46-.14h1.32v1h-.51a.18.18,0,0,0-.16,0,.22.22,0,0,0-.07.16v3.78a2.58,2.58,0,0,1-.11.82,2.36,2.36,0,0,1-.3.64,2,2,0,0,1-.47.48,3.25,3.25,0,0,1-.57.33,3.57,3.57,0,0,1-.66.18,4,4,0,0,1-1.69-.07,3.53,3.53,0,0,1-.89-.33l.41-1Zm6.33-1.74h.77V67a.22.22,0,0,0-.06-.17.17.17,0,0,0-.16-.06h-.6v-1h1.38a.83.83,0,0,1,.54.15.62.62,0,0,1,.17.49v.45a.37.37,0,0,1,0,.11v.09h0a2.69,2.69,0,0,1,.26-.54,2.16,2.16,0,0,1,.37-.43,1.81,1.81,0,0,1,.48-.29,1.56,1.56,0,0,1,.74-.09h.07v1.3h-.32a1.38,1.38,0,0,0-.69.16,1.41,1.41,0,0,0-.48.43,1.83,1.83,0,0,0-.28.62,3,3,0,0,0-.1.72v1.16h.76v1h-2.85v-1Zm6.29-.59a.92.92,0,0,0,.05.28.65.65,0,0,0,.4.38.87.87,0,0,0,.32.06,1,1,0,0,0,.5-.13,1.41,1.41,0,0,0,.39-.34,1.58,1.58,0,0,0,.25-.46,1.31,1.31,0,0,0,.1-.5v-.18h-.54l-.38,0a2.74,2.74,0,0,0-.39.09,1.58,1.58,0,0,0-.35.16,1,1,0,0,0-.25.24.6.6,0,0,0-.1.35m-1.33.1a1.42,1.42,0,0,1,.17-.7,1.51,1.51,0,0,1,.42-.49,2.2,2.2,0,0,1,.59-.31,5.46,5.46,0,0,1,.66-.19,4.94,4.94,0,0,1,.63-.08l.52,0H278v-.18a1.11,1.11,0,0,0-.07-.43.83.83,0,0,0-.21-.28.89.89,0,0,0-.31-.15,1.31,1.31,0,0,0-.39,0,1.77,1.77,0,0,0-.56.08A2.48,2.48,0,0,0,276,67a2.51,2.51,0,0,0-.45.26l-.49-.92a2.57,2.57,0,0,1,.57-.32,3.59,3.59,0,0,1,.66-.23,3.35,3.35,0,0,1,.87-.1,2.24,2.24,0,0,1,1.63.53,2.08,2.08,0,0,1,.56,1.56V69.9c0,.15.07.23.22.23h.48v1H278.8a1.12,1.12,0,0,1-.31-.05.72.72,0,0,1-.21-.12.57.57,0,0,1-.12-.18.78.78,0,0,1,0-.22v-.06a1.24,1.24,0,0,1,0-.27h0a1.87,1.87,0,0,1-.61.7,1.69,1.69,0,0,1-.29.17l-.36.11a2.2,2.2,0,0,1-1.08-.06,1.6,1.6,0,0,1-.56-.3,1.58,1.58,0,0,1-.39-.5,1.78,1.78,0,0,1-.15-.71m6.59.49h.77V67a.22.22,0,0,0-.06-.17.22.22,0,0,0-.17,0h-.59v-1h1.38a.75.75,0,0,1,.53.16.55.55,0,0,1,.17.43v.33s0,0,0,.07v.07h0a2.35,2.35,0,0,1,.68-.79,2.16,2.16,0,0,1,.51-.29,1.8,1.8,0,0,1,.62-.11,1.61,1.61,0,0,1,.94.28,1.52,1.52,0,0,1,.54.88h0a1.82,1.82,0,0,1,.29-.45,2.14,2.14,0,0,1,.42-.37,2.25,2.25,0,0,1,.52-.24,2.1,2.1,0,0,1,.61-.09,2.25,2.25,0,0,1,.71.11,1.37,1.37,0,0,1,.54.37,1.73,1.73,0,0,1,.34.63,3.35,3.35,0,0,1,.11.9v2.42h.77v1h-2.09V68a2.77,2.77,0,0,0,0-.42,1,1,0,0,0-.1-.33.61.61,0,0,0-.22-.23,1,1,0,0,0-.37-.08,1.17,1.17,0,0,0-.6.16,1.4,1.4,0,0,0-.42.42,1.86,1.86,0,0,0-.25.6,2.8,2.8,0,0,0-.09.7v1.35h.77v1h-2.08V68c0-.14,0-.28,0-.4a1.33,1.33,0,0,0-.1-.34.69.69,0,0,0-.22-.23.85.85,0,0,0-.38-.09,1.08,1.08,0,0,0-.6.17,1.42,1.42,0,0,0-.43.45,2.24,2.24,0,0,0-.25.62,3.34,3.34,0,0,0-.08.7v1.29h.76v1h-2.85v-1Z"/><path class="cls-2" d="M291.3,50.56v-.27h0A24.64,24.64,0,0,0,266.91,25.7a24.08,24.08,0,0,0-17,7.06l1.24,1.36a22.28,22.28,0,0,1,15.76-6.56,22.81,22.81,0,0,1,22.56,22.73h-1.74v-.2a20.77,20.77,0,0,0-6-14.65l-1.41,1.31a18.85,18.85,0,0,1,5.53,13.34v.2h-2.18v-.2a16.74,16.74,0,0,0-15.8-16.7v1.89a14.86,14.86,0,0,1,13.92,14.81v.44h0v1.24h9.52V50.56Z"/><path class="cls-2" d="M266.91,31.19a18.81,18.81,0,0,1,11.68,4.06L280,33.93a20.81,20.81,0,0,0-33.93,16.16v.2h-1.74a23.17,23.17,0,0,1,5.26-14.48l-1.24-1.37a25,25,0,0,0-5.85,16.12v.16h.06v1.05h9.51V50.29h0v-.2a14.86,14.86,0,0,1,13.86-14.81V33.39a16.75,16.75,0,0,0-15.75,16.7v.2H248v-.2a18.92,18.92,0,0,1,18.9-18.9"/><path class="cls-2" d="M257.26,46.63l.56,1.13,1.24.18-.9.88.21,1.24-1.11-.59-1.11.59.21-1.24-.9-.88,1.24-.18Zm19.37,0,.56,1.13,1.24.18-.9.88.21,1.24-1.11-.59-1.11.59.21-1.24-.9-.88,1.24-.18Z"/><text class="cls-3" transform="translate(108.86 45.96)">M<tspan class="cls-4" x="18.06" y="0">A</tspan><tspan x="30.98" y="0">CHINE</tspan><tspan class="cls-5"><tspan x="0" y="22.57">LEARNING</tspan></tspan></text><path class="cls-6" d="M77.83,42.81c0-7.87-4.56-14.27-10.17-14.27a7.19,7.19,0,0,0-1.13.1.63.63,0,0,0,0-.3c-1.33-3.58-6-6.24-11.36-6.61h0c-9.52-3-17.19,2.48-21.15,6.43a10.23,10.23,0,0,0-3,7.3c-.25,2.85,1.11,3.71-5.57,12.12-4.45,5.57,1.86,6.93,1.86,6.93-.25,1.11-1.49,2.84-.38,5.19l.87,2c.62.62,0,1.11-.25,2.72a3.46,3.46,0,0,0,3,4.08c9,1.36,9.4,1.12,9.4,1v9.65l14.82-1.45c4.79-.34,8.81-3.52,9.83-7.57,6-.68,10.88-6.79,10.88-13.87A14.81,14.81,0,0,0,75,52.68,17.69,17.69,0,0,0,77.83,42.81ZM51.76,55.71a1.64,1.64,0,0,1-1.63,1.64H35.43a1.64,1.64,0,0,1-1.63-1.64V41a1.63,1.63,0,0,1,1.63-1.63h14.7A1.63,1.63,0,0,1,51.76,41Zm13,12.91c0-.17,0-.34,0-.51a9,9,0,0,0-1.27-4.6.73.73,0,0,0-1-.25.72.72,0,0,0-.25,1,7.6,7.6,0,0,1,1.07,3.87c0,4-3.73,7.52-8.25,8.08V49h4.59l1.46,3.35H59a.54.54,0,0,0-.54.54v5.61a1.56,1.56,0,1,0,1.08.08V53.41h2.16l.84,2a.55.55,0,0,0,.5.32h3.18a1.54,1.54,0,1,0,0-1.08H63.34l-.84-1.94h0L60.89,49h4.36l.1,0a1.56,1.56,0,1,0,0-1l-.1,0H55.13v-2h8.32a.54.54,0,0,0,.4-.18l3.79-4.1a1.46,1.46,0,0,0,.55.11,1.56,1.56,0,1,0-1.55-1.56,1.5,1.5,0,0,0,.19.73l-3.61,3.92H55.13v-1.7h5.29a.56.56,0,0,0,.41-.19l2.68-3.13a1.5,1.5,0,0,0,.37.05,1.55,1.55,0,1,0-1.27-.66L60.17,42h-5V23.18c4.71.35,8.9,2.67,10,5.66,0,.05,0,.09.07.13a8.57,8.57,0,0,0-2.55,1.41.71.71,0,0,0-.12,1,.73.73,0,0,0,1,.12A6.61,6.61,0,0,1,67.66,30c4.81,0,8.73,5.76,8.73,12.83a16.63,16.63,0,0,1-2,8.06,12.53,12.53,0,0,0-1.75-3.09.72.72,0,1,0-1.13.89A12.3,12.3,0,0,1,74,56.23C74,62.43,69.94,67.81,64.79,68.62Z"/><path class="cls-6" d="M39.65,43.12,36,53.61h2.38l.76-2.49h3.81l.76,2.49h2.38l-3.7-10.49Zm0,6.14c.74-2.4,1.19-3.91,1.35-4.52,0,.17.1.4.19.7s.48,1.57,1.18,3.82Z"/><rect class="cls-6" x="47.38" y="43.16" width="2.22" height="10.45"/></svg>