<svg xmlns="http://www.w3.org/2000/svg" width="365" height="100" viewBox="0 0 365 100">
    <defs>
        <linearGradient id="a" x1="100%" x2="0%" y1="0%" y2="100%">
            <stop offset="0%" stop-color="#BDD377"/>
            <stop offset="100%" stop-color="#09ADEF"/>
        </linearGradient>
    </defs>
    <g fill="none" fill-rule="evenodd">
        <path fill="url(#a)" d="M0 100h365V0H0z"/>
        <g fill="#FFF">
            <path d="M110.345 49.04c0-3.245-1.433-4.866-4.298-4.866h-1.704v9.834h1.374c3.085 0 4.628-1.656 4.628-4.969m3.326-.083c0 2.486-.708 4.391-2.123 5.713-1.415 1.322-3.46 1.983-6.131 1.983h-4.276V41.55h4.74c2.467 0 4.38.65 5.745 1.952 1.364 1.302 2.045 3.12 2.045 5.454M125.499 56.652h-8.698V41.55h8.698v2.624h-5.496v3.316h5.114v2.624h-5.114v3.894h5.496zM137.266 41.55h3.233l-5.134 15.103h-3.492l-5.124-15.103h3.234l2.84 8.987c.159.53.323 1.149.492 1.854.168.706.273 1.197.314 1.472.076-.633.334-1.742.776-3.326l2.86-8.987zM145.085 49.08c0 1.687.32 2.958.96 3.813.642.853 1.599 1.28 2.873 1.28 2.555 0 3.833-1.697 3.833-5.093 0-3.402-1.271-5.103-3.812-5.103-1.275 0-2.235.43-2.882 1.287-.648.857-.972 2.13-.972 3.816m11.022 0c0 2.5-.62 4.422-1.86 5.765-1.238 1.342-3.015 2.014-5.33 2.014-2.313 0-4.09-.672-5.33-2.014-1.24-1.343-1.858-3.272-1.858-5.786 0-2.513.62-4.433 1.864-5.758 1.243-1.326 3.025-1.99 5.346-1.99 2.32 0 4.095.668 5.325 2.005 1.229 1.336 1.843 3.257 1.843 5.764M162.44 48.656h1.054c.984 0 1.721-.194 2.211-.583.488-.39.733-.956.733-1.699 0-.75-.205-1.306-.615-1.663-.409-.359-1.052-.537-1.927-.537h-1.456v4.482zm7.231-2.396c0 1.625-.508 2.87-1.524 3.73-1.016.86-2.46 1.29-4.333 1.29h-1.374v5.372h-3.202V41.55h4.824c1.831 0 3.225.393 4.18 1.182.952.788 1.43 1.965 1.43 3.528zM181.437 52.458c0 1.364-.49 2.438-1.472 3.224-.98.785-2.346 1.177-4.096 1.177-1.612 0-3.037-.303-4.277-.909v-2.975c1.02.455 1.882.775 2.588.961.706.185 1.352.279 1.937.279.703 0 1.241-.135 1.617-.403.375-.269.562-.668.562-1.199 0-.296-.082-.559-.248-.79-.165-.231-.407-.453-.727-.667-.32-.213-.973-.553-1.958-1.022-.923-.434-1.615-.851-2.076-1.25-.462-.4-.83-.864-1.106-1.395-.275-.53-.413-1.15-.413-1.859 0-1.336.453-2.387 1.358-3.151.906-.764 2.158-1.146 3.755-1.146.785 0 1.535.093 2.247.278a15.78 15.78 0 0 1 2.237.785l-1.033 2.49c-.806-.33-1.472-.561-1.999-.692a6.427 6.427 0 0 0-1.555-.196c-.606 0-1.07.141-1.395.423-.323.283-.485.651-.485 1.105 0 .284.065.53.196.74.131.21.34.413.625.609.286.196.963.549 2.03 1.059 1.412.674 2.38 1.351 2.903 2.03.523.678.785 1.51.785 2.494M266.834 37.402l2.394 4.85 5.35.776-3.872 3.774.914 5.33-4.786-2.516-4.786 2.516.914-5.33-3.872-3.774 5.35-.777zM242.492 60.656h.943v-3.8c0-.09-.024-.158-.074-.2a.299.299 0 0 0-.205-.066h-.726v-1.205h1.69c.288 0 .504.063.644.19.141.126.211.303.211.53v.292c0 .037-.002.072-.005.106l-.013.087-.013.087h.031a2.824 2.824 0 0 1 .83-.969 2.6 2.6 0 0 1 .63-.345c.231-.089.482-.134.75-.134.452 0 .833.113 1.147.336.311.224.532.581.661 1.074h.024c.087-.19.205-.372.354-.544a2.536 2.536 0 0 1 1.894-.866c.327 0 .62.05.878.147.26.096.478.247.656.45.177.202.314.458.41.767.095.308.142.675.142 1.101v2.962h.944v1.211h-2.558V58c0-.182-.012-.352-.034-.509a1.184 1.184 0 0 0-.13-.41.701.701 0 0 0-.27-.274.929.929 0 0 0-.454-.098c-.277 0-.519.063-.726.192a1.638 1.638 0 0 0-.516.51 2.394 2.394 0 0 0-.307.731 3.573 3.573 0 0 0-.103.864v1.651h.938v1.211h-2.545V58c0-.174-.01-.338-.029-.493a1.15 1.15 0 0 0-.12-.41.714.714 0 0 0-.267-.283.888.888 0 0 0-.46-.105c-.285 0-.534.07-.743.208a1.702 1.702 0 0 0-.517.543 2.564 2.564 0 0 0-.305.76 3.79 3.79 0 0 0-.099.86v1.577h.925v1.211h-3.483v-1.21zM256.567 59.924c0 .12.021.233.062.342a.815.815 0 0 0 .482.474 1.19 1.19 0 0 0 1.006-.089c.183-.108.342-.246.474-.414.133-.167.237-.355.311-.565.074-.21.111-.414.111-.617v-.211h-.266c-.108 0-.237.004-.385.012a4.993 4.993 0 0 0-.466.049 3.594 3.594 0 0 0-.478.11 1.649 1.649 0 0 0-.425.192c-.126.08-.229.18-.308.298a.744.744 0 0 0-.118.419m-1.626.124c0-.331.065-.614.198-.851.133-.235.305-.434.516-.595.211-.162.451-.291.72-.39.27-.096.538-.17.807-.223.27-.05.528-.085.777-.101.248-.017.46-.026.632-.026h.411v-.216c0-.207-.032-.382-.094-.526a.886.886 0 0 0-.254-.343 1.018 1.018 0 0 0-.379-.19 1.78 1.78 0 0 0-.472-.06c-.244 0-.476.033-.695.097-.22.065-.414.136-.584.214a3.645 3.645 0 0 0-.553.31l-.595-1.117a3.64 3.64 0 0 1 .695-.397c.224-.1.493-.191.81-.276a4.12 4.12 0 0 1 1.065-.128c.873 0 1.536.218 1.99.655.453.436.68 1.07.68 1.903v2.589c0 .187.093.279.28.279h.583v1.21h-1.528c-.149 0-.276-.017-.382-.054a.67.67 0 0 1-.254-.15.575.575 0 0 1-.143-.217.753.753 0 0 1-.046-.267v-.074a1.19 1.19 0 0 1 .037-.33h-.025a2.199 2.199 0 0 1-.46.628 2.528 2.528 0 0 1-.279.229 1.864 1.864 0 0 1-.353.199 2.378 2.378 0 0 1-.958.193 2.67 2.67 0 0 1-.803-.121 2.004 2.004 0 0 1-.686-.37 1.846 1.846 0 0 1-.478-.618 1.955 1.955 0 0 1-.18-.866M262.218 59.706h1.372v.38c0 .111.034.21.103.294a.774.774 0 0 0 .279.211c.118.056.254.098.407.128.152.028.315.043.484.043.323 0 .587-.056.794-.167.207-.113.31-.278.31-.497a.536.536 0 0 0-.107-.342 1.003 1.003 0 0 0-.305-.245 2.715 2.715 0 0 0-.47-.2 36.174 36.174 0 0 1-.595-.213 10.476 10.476 0 0 1-.72-.283 2.916 2.916 0 0 1-.657-.387 1.908 1.908 0 0 1-.48-.553 1.559 1.559 0 0 1-.186-.789c0-.343.079-.633.234-.869.155-.236.354-.427.599-.574a2.65 2.65 0 0 1 .823-.317c.303-.064.602-.097.896-.097.237 0 .49.025.764.073.273.047.527.125.76.232.235.108.429.247.585.42.155.171.232.38.232.623v.826h-1.385v-.366c0-.166-.088-.296-.263-.392-.176-.094-.407-.142-.693-.142-.128 0-.25.011-.363.034a1.017 1.017 0 0 0-.298.106.574.574 0 0 0-.201.18.454.454 0 0 0-.075.263c0 .133.037.248.112.345.074.097.174.183.298.257.124.075.267.141.432.2.163.057.335.113.518.167.248.08.5.168.757.267.257.1.488.224.695.372.207.15.377.332.51.55.132.217.198.485.198.804 0 .327-.072.614-.217.86a1.884 1.884 0 0 1-.59.617c-.248.166-.537.29-.87.373a4.513 4.513 0 0 1-1.968.028 3.337 3.337 0 0 1-.847-.29 1.995 1.995 0 0 1-.627-.49 1.035 1.035 0 0 1-.245-.688v-.752zM269.29 56.59h-.994v-1.205h1.044v-1.77h1.564v1.77h1.472v1.205h-1.472v2.73c0 .279.045.5.137.666a1.055 1.055 0 0 0 .764.556c.148.027.281.04.397.04h.121a.589.589 0 0 0 .09-.006.496.496 0 0 0 .08-.007v1.323a2.747 2.747 0 0 1-.496.038c-.153 0-.326-.011-.519-.031a3.304 3.304 0 0 1-.589-.122 2.818 2.818 0 0 1-.59-.254 1.872 1.872 0 0 1-.513-.435 2.132 2.132 0 0 1-.359-.664 2.836 2.836 0 0 1-.137-.935v-2.9zM277.846 57.9a1.917 1.917 0 0 0-.112-.6 1.373 1.373 0 0 0-.27-.447 1.163 1.163 0 0 0-.88-.376c-.206 0-.396.034-.57.103a1.47 1.47 0 0 0-.463.29 1.62 1.62 0 0 0-.338.45 2.01 2.01 0 0 0-.192.58h2.825zm-4.514.726c0-.5.08-.959.242-1.375.162-.416.387-.775.676-1.075.29-.299.637-.533 1.04-.698a3.476 3.476 0 0 1 1.332-.249c.468 0 .88.08 1.24.24.357.16.659.377.903.655.244.277.429.603.556.977a3.766 3.766 0 0 1 .182 1.37l-.011.18a3.134 3.134 0 0 0-.02.204h-4.488c.024.3.093.561.208.786a1.762 1.762 0 0 0 1.033.901c.224.076.458.114.702.114.265 0 .51-.035.735-.106.226-.07.426-.148.6-.235.198-.1.38-.214.546-.342l.627 1.143c-.202.17-.437.32-.701.453a4.63 4.63 0 0 1-.824.313c-.32.093-.685.14-1.095.14-.538 0-1.023-.09-1.452-.27a3.243 3.243 0 0 1-1.097-.736c-.3-.31-.53-.672-.692-1.083a3.536 3.536 0 0 1-.242-1.307zM280.564 60.656h.944V56.87c0-.09-.025-.16-.075-.208a.279.279 0 0 0-.204-.07h-.727v-1.206h1.69c.29 0 .506.062.651.186.145.124.217.323.217.596v.385a4.15 4.15 0 0 1-.012.291l-.012.113h.024c.075-.232.177-.449.308-.653a2.38 2.38 0 0 1 .46-.527c.175-.149.372-.266.59-.354a1.86 1.86 0 0 1 .806-.127 3.128 3.128 0 0 1 .184.021v1.59l-.113-.013a1.715 1.715 0 0 0-1.127.187 1.766 1.766 0 0 0-.589.527c-.156.22-.27.473-.345.758-.074.286-.11.58-.11.882v1.41h.923v1.21h-3.483v-1.21zM286.085 59.706h1.372v.38c0 .111.034.21.103.294a.765.765 0 0 0 .279.211c.117.056.253.098.406.128.153.028.315.043.485.043.323 0 .587-.056.794-.167.207-.113.31-.278.31-.497a.53.53 0 0 0-.108-.342 1.01 1.01 0 0 0-.304-.245 2.784 2.784 0 0 0-.47-.2 33.158 33.158 0 0 1-.595-.213 10.28 10.28 0 0 1-.72-.283 2.923 2.923 0 0 1-.658-.387 1.939 1.939 0 0 1-.48-.553c-.123-.215-.185-.479-.185-.789 0-.343.078-.633.233-.869a1.84 1.84 0 0 1 .6-.574c.244-.147.518-.252.822-.317.304-.064.603-.097.897-.097.236 0 .49.025.764.073.273.047.526.125.76.232.234.108.428.247.584.42a.9.9 0 0 1 .233.623v.826h-1.385v-.366c0-.166-.088-.296-.263-.392-.176-.094-.408-.142-.693-.142-.13 0-.25.011-.363.034a1.006 1.006 0 0 0-.298.106.587.587 0 0 0-.202.18.453.453 0 0 0-.074.263c0 .133.037.248.11.345.076.097.175.183.299.257.125.075.268.141.432.2.164.057.336.113.518.167.249.08.5.168.758.267.257.1.488.224.695.372.207.15.377.332.509.55.133.217.199.485.199.804 0 .327-.072.614-.218.86-.144.246-.34.452-.59.617-.247.166-.537.29-.868.373a4.504 4.504 0 0 1-1.968.028 3.323 3.323 0 0 1-.848-.29 1.973 1.973 0 0 1-.627-.49 1.03 1.03 0 0 1-.245-.688v-.752zM245.035 68.494c0 .206.028.407.084.602.056.195.14.368.252.52.111.152.25.275.414.37.164.092.354.14.571.14a1.235 1.235 0 0 0 .94-.428c.122-.139.218-.31.287-.514.07-.203.104-.436.104-.7a2.29 2.29 0 0 0-.096-.688 1.595 1.595 0 0 0-.272-.524 1.249 1.249 0 0 0-.417-.336 1.303 1.303 0 0 0-1.034-.022c-.159.064-.3.164-.424.3a1.492 1.492 0 0 0-.297.52 2.285 2.285 0 0 0-.112.76zm-1.28 3.713v-5.182c0-.152-.076-.228-.229-.228h-.594v-.986h1.367a1 1 0 0 1 .307.041.584.584 0 0 1 .203.11c.053.045.09.097.112.157.022.06.033.123.033.19v.031c0 .034 0 .064-.003.091l-.002.077a.472.472 0 0 0-.005.071h.02c.098-.166.227-.315.386-.447.068-.055.145-.109.231-.163.087-.054.184-.102.295-.145a2.238 2.238 0 0 1 .795-.14c.36 0 .683.07.972.204.29.135.537.325.74.57.203.243.36.536.47.878.11.342.165.718.165 1.128 0 .423-.06.805-.183 1.147-.122.343-.29.634-.505.874-.216.24-.47.427-.768.56a2.35 2.35 0 0 1-.967.197 1.8 1.8 0 0 1-.683-.117 2.066 2.066 0 0 1-.476-.259 1.885 1.885 0 0 1-.37-.376h-.02c.003.037.008.08.014.127l.011.145c.003.056.005.118.005.185v1.26h.772v.991h-2.86v-.99h.767zM250.392 70.125h.772v-3.1c0-.074-.02-.13-.06-.17a.234.234 0 0 0-.169-.058h-.595v-.985h1.382c.237 0 .415.05.533.152.12.101.178.265.178.488v.315c0 .05 0 .096-.002.137-.002.04-.005.075-.008.102l-.01.091h.02c.062-.19.146-.368.252-.534a1.88 1.88 0 0 1 .376-.431c.143-.122.305-.219.482-.29a1.531 1.531 0 0 1 .74-.096l.072.01v1.301l-.092-.011a1.662 1.662 0 0 0-.228-.01 1.41 1.41 0 0 0-.694.162 1.45 1.45 0 0 0-.482.432 1.88 1.88 0 0 0-.282.62 2.847 2.847 0 0 0-.092.722v1.153h.758v.99h-2.851v-.99zM256.759 68.464c0 .247.042.472.125.675a1.524 1.524 0 0 0 .843.856c.19.079.395.119.612.119a1.562 1.562 0 0 0 1.105-.454c.144-.144.257-.317.34-.521.083-.203.124-.428.124-.675 0-.244-.041-.468-.124-.671a1.556 1.556 0 0 0-2.56-.523c-.144.145-.257.32-.34.523a1.758 1.758 0 0 0-.125.67m-1.341 0a2.696 2.696 0 0 1 .85-1.998c.263-.246.572-.438.926-.574a3.091 3.091 0 0 1 1.135-.206c.407 0 .787.068 1.143.206.355.136.665.328.93.574.263.245.472.538.625.879.152.34.228.713.228 1.12 0 .406-.076.779-.228 1.12-.153.34-.362.633-.625.879a2.874 2.874 0 0 1-.927.573 3.104 3.104 0 0 1-1.136.206 3.12 3.12 0 0 1-1.141-.206 2.848 2.848 0 0 1-.926-.573 2.673 2.673 0 0 1-.625-.88 2.703 2.703 0 0 1-.23-1.12M265.174 69.897c.155 0 .308-.026.454-.077.148-.051.279-.135.395-.254.114-.118.207-.277.276-.478.069-.2.104-.45.104-.751 0-.302-.036-.55-.106-.748a1.227 1.227 0 0 0-.285-.468.953.953 0 0 0-.416-.245 1.84 1.84 0 0 0-.503-.069c-.2 0-.378.034-.534.104-.156.07-.286.17-.394.3a1.365 1.365 0 0 0-.241.467 2.125 2.125 0 0 0-.081.608c0 .23.029.443.089.64.059.197.144.366.257.51.11.144.25.256.416.338.166.081.355.122.569.122zm-1.768 1.965a3.528 3.528 0 0 0 .894.302c.18.037.37.054.574.054.203 0 .396-.024.576-.072.182-.047.34-.123.478-.229a1.08 1.08 0 0 0 .325-.41c.08-.17.12-.377.12-.62v-.336c0-.03 0-.062.002-.094a1.05 1.05 0 0 1 .008-.089l.01-.097h-.02a1.717 1.717 0 0 1-.592.547c-.236.13-.531.195-.886.195-.383 0-.723-.072-1.02-.216a2.181 2.181 0 0 1-.746-.582 2.577 2.577 0 0 1-.46-.853 3.378 3.378 0 0 1-.157-1.036 3.4 3.4 0 0 1 .152-1.029 2.49 2.49 0 0 1 .45-.839c.198-.238.444-.426.737-.566a2.339 2.339 0 0 1 1.013-.208c.16 0 .32.016.483.046.162.03.317.08.465.145.147.066.28.15.403.25.122.098.219.22.29.362h.02l-.01-.05a.684.684 0 0 1-.01-.128c0-.142.048-.26.145-.355.096-.095.25-.142.46-.142h1.32v.984h-.508a.252.252 0 0 0-.165.054c-.042.035-.063.087-.063.155v3.79c0 .304-.038.578-.112.818-.075.24-.178.453-.307.64a2.08 2.08 0 0 1-.462.477c-.18.132-.37.24-.577.325a3.066 3.066 0 0 1-.653.186 4.079 4.079 0 0 1-1.692-.069 4.202 4.202 0 0 1-.892-.33l.407-.98zM269.742 70.125h.772v-3.1c0-.074-.02-.13-.06-.17a.234.234 0 0 0-.168-.058h-.595v-.985h1.382c.237 0 .415.05.533.152.12.101.178.265.178.488v.315c0 .05 0 .096-.002.137-.002.04-.005.075-.008.102l-.01.091h.02c.062-.19.146-.368.252-.534a1.88 1.88 0 0 1 .376-.431c.143-.122.305-.219.482-.29a1.531 1.531 0 0 1 .74-.096l.071.01v1.301l-.092-.011a1.662 1.662 0 0 0-.228-.01 1.41 1.41 0 0 0-.694.162 1.45 1.45 0 0 0-.482.432 1.88 1.88 0 0 0-.282.62 2.847 2.847 0 0 0-.092.722v1.153h.758v.99h-2.85v-.99zM276.033 69.525c0 .098.017.191.051.28a.672.672 0 0 0 .393.388.871.871 0 0 0 .328.06c.18 0 .345-.045.496-.134.15-.088.28-.2.388-.338.11-.137.194-.29.254-.462.062-.17.092-.34.092-.505v-.173h-.219a5.5 5.5 0 0 0-.314.01 3.86 3.86 0 0 0-.382.041c-.132.02-.262.05-.39.09a1.382 1.382 0 0 0-.349.156.848.848 0 0 0-.25.244.6.6 0 0 0-.098.343m-1.33.102c0-.272.054-.503.162-.697a1.58 1.58 0 0 1 .421-.487c.173-.132.37-.238.59-.317.22-.08.44-.14.66-.184.221-.042.432-.07.635-.083.203-.014.376-.02.518-.02h.335v-.178c0-.17-.025-.313-.076-.43a.727.727 0 0 0-.208-.282.844.844 0 0 0-.31-.154 1.437 1.437 0 0 0-.386-.049c-.199 0-.389.026-.569.08a3.566 3.566 0 0 0-.477.174 3.023 3.023 0 0 0-.452.254l-.489-.915c.166-.122.357-.23.57-.325.182-.08.404-.156.663-.225.26-.07.55-.105.871-.105.715 0 1.257.18 1.628.536.371.358.557.876.557 1.557v2.12c0 .151.076.228.228.228h.478v.99h-1.25a.957.957 0 0 1-.313-.046.562.562 0 0 1-.208-.122.468.468 0 0 1-.117-.178.598.598 0 0 1-.038-.218v-.06a1.098 1.098 0 0 1 .031-.27h-.02a1.817 1.817 0 0 1-.605.7 1.577 1.577 0 0 1-.29.164 2.06 2.06 0 0 1-.358.114 2.194 2.194 0 0 1-1.082-.056 1.612 1.612 0 0 1-.56-.303 1.51 1.51 0 0 1-.393-.504 1.612 1.612 0 0 1-.147-.709M281.288 70.125h.772v-3.109c0-.075-.02-.13-.06-.165a.246.246 0 0 0-.168-.054h-.595v-.985h1.382c.237 0 .413.051.528.155.116.103.173.248.173.434v.239c0 .03-.002.059-.005.087-.004.026-.006.05-.01.07l-.01.071h.025a2.362 2.362 0 0 1 .678-.792 2.14 2.14 0 0 1 .516-.282c.19-.073.394-.109.615-.109.369 0 .681.091.937.274.255.183.436.476.541.879h.02a1.85 1.85 0 0 1 .29-.444c.122-.141.263-.264.422-.369.159-.105.334-.188.525-.249.192-.061.392-.091.603-.091.266 0 .507.04.718.119.211.08.39.203.536.369.145.165.257.375.336.627.077.252.116.553.116.901v2.424h.772v.99h-2.093V67.95c0-.148-.009-.288-.028-.416a.976.976 0 0 0-.106-.336.577.577 0 0 0-.221-.223.747.747 0 0 0-.371-.081c-.227 0-.425.052-.595.157a1.34 1.34 0 0 0-.421.417 1.962 1.962 0 0 0-.252.599 2.986 2.986 0 0 0-.084.706v1.352h.768v.99h-2.083V67.95c0-.141-.008-.276-.023-.403a.957.957 0 0 0-.099-.336.579.579 0 0 0-.219-.231.723.723 0 0 0-.375-.086c-.234 0-.436.056-.607.169a1.404 1.404 0 0 0-.424.446 2.067 2.067 0 0 0-.249.622 3.035 3.035 0 0 0-.082.703v1.291h.758v.99h-2.851v-.99z"/>
            <path d="M291.295 50.557v-.27h-.007c-.143-13.581-11.021-24.585-24.38-24.585-6.605 0-12.601 2.695-16.998 7.057l1.236 1.365c4.07-4.056 9.633-6.564 15.762-6.564 12.353 0 22.414 10.17 22.557 22.727h-1.737v-.2c0-5.703-2.307-10.878-6.036-14.641l-1.413 1.302a18.84 18.84 0 0 1 5.526 13.34v.199h-2.173v-.2c0-8.91-7.006-16.214-15.8-16.695v1.889c7.754.479 13.916 6.936 13.916 14.807v.44h.034v1.245h9.513V50.556z"/>
            <path d="M266.908 31.191c4.406 0 8.462 1.52 11.68 4.058l1.43-1.32a20.715 20.715 0 0 0-13.11-4.66c-11.479 0-20.819 9.338-20.819 20.818v.2h-1.739a23.155 23.155 0 0 1 5.262-14.478l-1.243-1.373a25.023 25.023 0 0 0-5.847 16.12v.17h.06v1.046h9.513v-1.485h-.026v-.2c0-7.853 6.134-14.297 13.861-14.803v-1.889c-8.767.508-15.746 7.8-15.746 16.692v.2h-2.172v-.2c0-10.419 8.476-18.896 18.896-18.896"/>
            <path d="M257.26 46.629l.558 1.129 1.245.18-.902.879.213 1.24-1.114-.585-1.113.586.212-1.241-.901-.878 1.245-.181zM276.63 46.629l.558 1.129 1.245.18-.901.879.212 1.24-1.113-.585-1.114.586.213-1.241-.902-.878 1.245-.181zM79.985 51.92C78.25 58.42 66.718 70.876 51.63 49.658l-.438-.66c-18.774-26.398-34.914-9.626-34.489-.635.048-.004.032-.001.08-.004 1.525-6.084 13.186-19.031 28.431 2.408l.221.255c18.69 26.28 33.73 9.725 34.714.906l-.163-.006z"/>
            <path d="M44.514 48.75c-16.5 24.167-27.696 8.11-27.696 3.266-.382 6.853 13.425 26.871 33.044-.718l.63-.781c16.291-22.908 29.532-6.731 29.66-1.416.46-8.321-16.018-27.94-35.638-.351"/>
        </g>
    </g>
</svg>
