<svg xmlns="http://www.w3.org/2000/svg" xmlns:xlink="http://www.w3.org/1999/xlink" width="365" height="100" viewBox="0 0 365 100">
    <defs>
        <linearGradient id="a" x1="100%" x2="0%" y1="0%" y2="100%">
            <stop offset="0%" stop-color="#FFAF8A"/>
            <stop offset="100%" stop-color="#F97273"/>
        </linearGradient>
        <path id="b" d="M0 100h320V0H0z"/>
    </defs>
    <g fill="none" fill-rule="evenodd">
        <path fill="url(#a)" d="M0 100h365V0H0z"/>
        <g>
            <path fill="#FFF" d="M107.555 35.709c-1.205 0-2.138.452-2.8 1.358-.66.906-.991 2.168-.991 3.787 0 3.367 1.264 5.05 3.79 5.05 1.062 0 2.346-.264 3.855-.795v2.686c-1.241.517-2.625.775-4.154.775-2.196 0-3.877-.667-5.041-2-1.164-1.332-1.745-3.245-1.745-5.738 0-1.57.285-2.945.857-4.127.572-1.181 1.393-2.086 2.463-2.717 1.072-.63 2.327-.944 3.766-.944 1.467 0 2.94.354 4.422 1.063l-1.033 2.604a17.07 17.07 0 0 0-1.705-.703 5.105 5.105 0 0 0-1.684-.3M114.621 48.363V33.26h3.202v12.458h6.126v2.645zM129.259 40.79c0 1.688.32 2.959.96 3.814.642.853 1.599 1.28 2.872 1.28 2.556 0 3.833-1.697 3.833-5.093 0-3.402-1.27-5.103-3.811-5.103-1.275 0-2.236.429-2.883 1.287-.648.857-.971 2.129-.971 3.816m11.022 0c0 2.5-.62 4.422-1.86 5.765-1.24 1.342-3.016 2.014-5.33 2.014-2.313 0-4.09-.672-5.33-2.014-1.24-1.343-1.86-3.272-1.86-5.786 0-2.513.622-4.433 1.865-5.758 1.243-1.326 3.025-1.99 5.347-1.99 2.32 0 4.095.668 5.325 2.005 1.229 1.336 1.843 3.257 1.843 5.764M155.704 33.26v9.773c0 1.116-.249 2.094-.749 2.934-.499.84-1.221 1.484-2.164 1.932-.943.447-2.06.672-3.347.672-1.942 0-3.45-.498-4.524-1.494-1.075-.995-1.612-2.356-1.612-4.086v-9.73h3.192v9.245c0 1.164.234 2.019.702 2.563.469.544 1.243.815 2.324.815 1.047 0 1.807-.273 2.279-.821.471-.547.708-1.406.708-2.577V33.26h3.191zM168.606 40.75c0-3.244-1.433-4.865-4.297-4.865h-1.705v9.834h1.374c3.086 0 4.628-1.656 4.628-4.97m3.327-.082c0 2.486-.708 4.39-2.123 5.713-1.416 1.322-3.459 1.983-6.13 1.983h-4.278V33.26h4.742c2.465 0 4.38.65 5.743 1.952 1.364 1.302 2.046 3.12 2.046 5.454M107.999 73.75l-5.124-13.387h-.082c.096 1.06.144 2.32.144 3.78v9.608h-1.622V58.648h2.645l4.783 12.458h.082l4.824-12.458h2.624V73.75h-1.755V64.02c0-1.116.047-2.328.144-3.636h-.083l-5.165 13.367h-1.415zM127.481 67.367l-1.756-4.68a25.201 25.201 0 0 1-.702-2.179 19.336 19.336 0 0 1-.65 2.18l-1.778 4.68h4.886zm2.428 6.384l-1.88-4.804h-6.054l-1.859 4.804h-1.777l5.971-15.165h1.478l5.94 15.165h-1.819zM142.326 69.732c0 1.33-.48 2.365-1.445 3.11-.965.744-2.274 1.116-3.926 1.116-1.79 0-3.168-.232-4.132-.693v-1.694c.62.262 1.294.47 2.024.62.73.151 1.454.227 2.17.227 1.17 0 2.052-.222 2.644-.666.593-.445.89-1.063.89-1.855 0-.523-.107-.952-.317-1.286-.21-.334-.56-.642-1.054-.924-.492-.282-1.24-.602-2.246-.96-1.405-.504-2.409-1.099-3.01-1.788-.604-.688-.905-1.588-.905-2.696 0-1.164.437-2.09 1.312-2.78.874-.688 2.031-1.032 3.471-1.032 1.502 0 2.882.276 4.142.826l-.548 1.53c-1.246-.525-2.458-.786-3.635-.786-.93 0-1.657.2-2.18.6-.524.4-.785.953-.785 1.662 0 .524.096.952.29 1.286.192.334.517.641.975.92.458.28 1.16.587 2.102.924 1.584.566 2.674 1.171 3.27 1.818.595.648.893 1.488.893 2.521M150.064 73.75h-1.757V60.209h-4.782v-1.56h11.321v1.56h-4.782zM165.539 73.75h-8.42V58.649h8.42v1.56h-6.663v4.865h6.26v1.55h-6.26v5.558h6.663zM170.642 65.962h2.406c1.24 0 2.15-.246 2.728-.738.578-.492.867-1.232.867-2.216 0-1-.293-1.72-.882-2.16-.59-.44-1.535-.66-2.837-.66h-2.282v5.774zm0 1.508v6.28h-1.756V58.65h4.143c1.852 0 3.22.354 4.106 1.063.885.71 1.327 1.777 1.327 3.202 0 1.998-1.012 3.348-3.037 4.05l4.101 6.787h-2.077l-3.657-6.281h-3.15zM190.486 69.732c0 1.33-.482 2.365-1.446 3.11-.964.744-2.273 1.116-3.926 1.116-1.79 0-3.168-.232-4.132-.693v-1.694c.62.262 1.295.47 2.025.62.73.151 1.453.227 2.17.227 1.17 0 2.051-.222 2.644-.666.592-.445.89-1.063.89-1.855 0-.523-.107-.952-.317-1.286-.21-.334-.56-.642-1.054-.924-.492-.282-1.24-.602-2.247-.96-1.404-.504-2.408-1.099-3.01-1.788-.604-.688-.905-1.588-.905-2.696 0-1.164.438-2.09 1.312-2.78.875-.688 2.032-1.032 3.472-1.032 1.501 0 2.881.276 4.142.826l-.548 1.53c-1.247-.525-2.459-.786-3.636-.786-.93 0-1.657.2-2.18.6-.524.4-.785.953-.785 1.662 0 .524.096.952.29 1.286.192.334.517.641.975.92.458.28 1.16.587 2.103.924 1.584.566 2.674 1.171 3.27 1.818.595.648.893 1.488.893 2.521"/>
            <g fill="#FFF">
                <path d="M266.834 37.598l2.394 4.85 5.35.777-3.872 3.774.914 5.329-4.786-2.515-4.786 2.515.914-5.33-3.872-3.773 5.35-.777zM242.492 60.852h.943v-3.8c0-.09-.024-.157-.074-.2a.299.299 0 0 0-.205-.065h-.726v-1.205h1.69c.288 0 .504.063.644.189.141.127.211.304.211.53v.293c0 .037-.002.072-.005.106l-.013.087-.013.087h.031a2.824 2.824 0 0 1 .83-.969 2.6 2.6 0 0 1 .63-.345c.231-.09.482-.134.75-.134.452 0 .833.113 1.147.336.311.224.532.58.661 1.074h.024c.087-.19.205-.372.354-.544a2.536 2.536 0 0 1 1.894-.866c.327 0 .62.049.878.147.26.096.478.247.656.45.177.202.314.458.41.767.095.308.142.675.142 1.1v2.963h.944v1.21h-2.558v-3.867c0-.182-.012-.352-.034-.51a1.184 1.184 0 0 0-.13-.41.701.701 0 0 0-.27-.273.929.929 0 0 0-.454-.098c-.277 0-.519.063-.726.192a1.638 1.638 0 0 0-.516.509 2.394 2.394 0 0 0-.307.732 3.573 3.573 0 0 0-.103.864v1.65h.938v1.212h-2.545v-3.868c0-.174-.01-.338-.029-.493a1.15 1.15 0 0 0-.12-.411.714.714 0 0 0-.267-.282.888.888 0 0 0-.46-.105c-.285 0-.534.069-.743.208a1.702 1.702 0 0 0-.517.543 2.564 2.564 0 0 0-.305.76 3.79 3.79 0 0 0-.099.86v1.577h.925v1.21h-3.483v-1.21zM256.567 60.12c0 .12.021.233.062.342a.815.815 0 0 0 .482.474 1.19 1.19 0 0 0 1.006-.089c.183-.108.342-.246.474-.414.133-.167.237-.355.311-.565.074-.209.111-.414.111-.617v-.211h-.266c-.108 0-.237.004-.385.012a4.993 4.993 0 0 0-.466.049 3.594 3.594 0 0 0-.478.11 1.649 1.649 0 0 0-.425.192c-.126.08-.229.18-.308.298a.744.744 0 0 0-.118.419m-1.626.124c0-.331.065-.614.198-.851.133-.235.305-.434.516-.595.211-.162.451-.291.72-.389.27-.097.538-.171.807-.224.27-.05.528-.085.777-.101.248-.017.46-.026.632-.026h.411v-.216c0-.207-.032-.382-.094-.526a.886.886 0 0 0-.254-.343 1.018 1.018 0 0 0-.379-.19 1.78 1.78 0 0 0-.472-.059c-.244 0-.476.032-.695.096-.22.065-.414.136-.584.214a3.645 3.645 0 0 0-.553.311l-.595-1.118a3.64 3.64 0 0 1 .695-.397c.224-.1.493-.191.81-.276a4.12 4.12 0 0 1 1.065-.128c.873 0 1.536.218 1.99.655.453.436.68 1.071.68 1.903v2.589c0 .187.093.279.28.279h.583v1.211h-1.528c-.149 0-.276-.018-.382-.055a.67.67 0 0 1-.254-.15.575.575 0 0 1-.143-.217.753.753 0 0 1-.046-.267V61.3a1.19 1.19 0 0 1 .037-.329h-.025a2.199 2.199 0 0 1-.46.627 2.528 2.528 0 0 1-.279.229 1.864 1.864 0 0 1-.353.199 2.378 2.378 0 0 1-.958.193 2.67 2.67 0 0 1-.803-.121 2.004 2.004 0 0 1-.686-.37 1.846 1.846 0 0 1-.478-.618 1.955 1.955 0 0 1-.18-.866M262.218 59.902h1.372v.38c0 .111.034.21.103.294a.774.774 0 0 0 .279.211c.118.056.254.098.407.128.152.028.315.043.484.043.323 0 .587-.056.794-.167.207-.113.31-.278.31-.497a.536.536 0 0 0-.107-.342 1.003 1.003 0 0 0-.305-.245 2.715 2.715 0 0 0-.47-.2 36.174 36.174 0 0 1-.595-.213 10.476 10.476 0 0 1-.72-.283 2.916 2.916 0 0 1-.657-.387 1.908 1.908 0 0 1-.48-.553 1.559 1.559 0 0 1-.186-.789c0-.343.079-.633.234-.869.155-.236.354-.427.599-.574a2.65 2.65 0 0 1 .823-.317c.303-.064.602-.097.896-.097.237 0 .49.025.764.073.273.047.527.125.76.232.235.108.429.247.585.42.155.171.232.38.232.623v.826h-1.385v-.366c0-.166-.088-.296-.263-.392-.176-.094-.407-.142-.693-.142-.128 0-.25.011-.363.034a1.017 1.017 0 0 0-.298.106.574.574 0 0 0-.201.18.454.454 0 0 0-.075.263c0 .133.037.248.112.345.074.097.174.183.298.257.124.075.267.141.432.2.163.057.335.113.518.167.248.08.5.168.757.267.257.1.488.224.695.372.207.15.377.332.51.55.132.217.198.485.198.804 0 .327-.072.614-.217.86a1.884 1.884 0 0 1-.59.617c-.248.166-.537.29-.87.373a4.513 4.513 0 0 1-1.968.028 3.337 3.337 0 0 1-.847-.29 1.995 1.995 0 0 1-.627-.49 1.035 1.035 0 0 1-.245-.688v-.752zM269.29 56.786h-.994v-1.205h1.044v-1.77h1.564v1.77h1.472v1.205h-1.472v2.731c0 .278.045.5.137.665a1.055 1.055 0 0 0 .764.556c.148.027.281.04.397.04h.121a.589.589 0 0 0 .09-.006.496.496 0 0 0 .08-.007v1.323a2.747 2.747 0 0 1-.496.038c-.153 0-.326-.01-.519-.03a3.304 3.304 0 0 1-.589-.123 2.818 2.818 0 0 1-.59-.254 1.872 1.872 0 0 1-.513-.435 2.132 2.132 0 0 1-.359-.664 2.836 2.836 0 0 1-.137-.935v-2.899zM277.846 58.096a1.917 1.917 0 0 0-.112-.6 1.373 1.373 0 0 0-.27-.446 1.163 1.163 0 0 0-.88-.376c-.206 0-.396.034-.57.103a1.47 1.47 0 0 0-.463.289 1.62 1.62 0 0 0-.338.45 2.01 2.01 0 0 0-.192.58h2.825zm-4.514.727c0-.501.08-.96.242-1.375.162-.416.387-.775.676-1.075.29-.3.637-.533 1.04-.698a3.476 3.476 0 0 1 1.332-.25c.468 0 .88.08 1.24.24.357.16.659.378.903.656.244.277.429.603.556.977a3.766 3.766 0 0 1 .182 1.369l-.011.18a3.134 3.134 0 0 0-.02.205h-4.488c.024.299.093.56.208.786a1.762 1.762 0 0 0 1.033.9c.224.077.458.115.702.115.265 0 .51-.035.735-.106.226-.07.426-.148.6-.235.198-.1.38-.214.546-.342l.627 1.143c-.202.17-.437.32-.701.453a4.63 4.63 0 0 1-.824.313c-.32.093-.685.14-1.095.14-.538 0-1.023-.09-1.452-.27a3.243 3.243 0 0 1-1.097-.736c-.3-.31-.53-.672-.692-1.083a3.536 3.536 0 0 1-.242-1.307zM280.564 60.852h.944v-3.786c0-.092-.025-.16-.075-.209a.279.279 0 0 0-.204-.07h-.727v-1.205h1.69c.29 0 .506.062.651.186.145.124.217.323.217.596v.385a4.15 4.15 0 0 1-.012.29l-.012.114h.024c.075-.232.177-.45.308-.653a2.38 2.38 0 0 1 .46-.527c.175-.15.372-.266.59-.354a1.86 1.86 0 0 1 .806-.127c.035.002.068.006.097.009l.087.012v1.59l-.113-.013a1.715 1.715 0 0 0-1.127.187 1.766 1.766 0 0 0-.589.527c-.156.22-.27.473-.345.758-.074.286-.11.58-.11.882v1.409h.923v1.21h-3.483v-1.21zM286.085 59.902h1.372v.38c0 .111.034.21.103.294a.765.765 0 0 0 .279.211c.117.056.253.098.406.128.153.028.315.043.485.043.323 0 .587-.056.794-.167.207-.113.31-.278.31-.497a.53.53 0 0 0-.108-.342 1.01 1.01 0 0 0-.304-.245 2.784 2.784 0 0 0-.47-.2 33.158 33.158 0 0 1-.595-.213 10.28 10.28 0 0 1-.72-.283 2.923 2.923 0 0 1-.658-.387 1.939 1.939 0 0 1-.48-.553c-.123-.215-.185-.479-.185-.789 0-.343.078-.633.233-.869a1.84 1.84 0 0 1 .6-.574c.244-.147.518-.252.822-.317.304-.064.603-.097.897-.097.236 0 .49.025.764.073.273.047.526.125.76.232.234.108.428.247.584.42a.9.9 0 0 1 .233.623v.826h-1.385v-.366c0-.166-.088-.296-.263-.392-.176-.094-.408-.142-.693-.142-.13 0-.25.011-.363.034a1.006 1.006 0 0 0-.298.106.587.587 0 0 0-.202.18.453.453 0 0 0-.074.263c0 .133.037.248.11.345.076.097.175.183.299.257.125.075.268.141.432.2.164.057.336.113.518.167.249.08.5.168.758.267.257.1.488.224.695.372.207.15.377.332.509.55.133.217.199.485.199.804 0 .327-.072.614-.218.86-.144.246-.34.452-.59.617-.247.166-.537.29-.868.373a4.504 4.504 0 0 1-1.968.028 3.323 3.323 0 0 1-.848-.29 1.973 1.973 0 0 1-.627-.49 1.03 1.03 0 0 1-.245-.688v-.752zM245.035 68.69c0 .206.028.407.084.602.056.195.14.368.252.52.111.152.25.275.414.37.164.092.354.14.571.14a1.235 1.235 0 0 0 .94-.428c.122-.139.218-.31.287-.514.07-.203.104-.436.104-.7a2.29 2.29 0 0 0-.096-.688 1.595 1.595 0 0 0-.272-.524 1.249 1.249 0 0 0-.417-.336 1.303 1.303 0 0 0-1.034-.022c-.159.064-.3.164-.424.3a1.492 1.492 0 0 0-.297.52 2.285 2.285 0 0 0-.112.76zm-1.28 3.713v-5.182c0-.152-.076-.228-.229-.228h-.594v-.986h1.367a1 1 0 0 1 .307.041.584.584 0 0 1 .203.11c.053.045.09.097.112.157.022.06.033.123.033.19v.031c0 .034 0 .064-.003.091l-.002.077a.472.472 0 0 0-.005.071h.02c.098-.166.227-.315.386-.447.068-.055.145-.109.231-.163.087-.054.184-.102.295-.145a2.238 2.238 0 0 1 .795-.14c.36 0 .683.07.972.204.29.135.537.325.74.57.203.243.36.536.47.878.11.342.165.718.165 1.128 0 .423-.06.805-.183 1.147-.122.343-.29.634-.505.874-.216.24-.47.427-.768.56a2.35 2.35 0 0 1-.967.197 1.8 1.8 0 0 1-.683-.117 2.066 2.066 0 0 1-.476-.259 1.885 1.885 0 0 1-.37-.376h-.02c.003.037.008.08.014.127l.011.145c.003.056.005.118.005.185v1.26h.772v.991h-2.86v-.99h.767zM250.392 70.321h.772v-3.1c0-.074-.02-.13-.06-.17a.234.234 0 0 0-.169-.058h-.595v-.985h1.382c.237 0 .415.05.533.152.12.101.178.265.178.488v.315c0 .05 0 .096-.002.137-.002.04-.005.075-.008.102l-.01.091h.02c.062-.19.146-.368.252-.534a1.88 1.88 0 0 1 .376-.43c.143-.123.305-.22.482-.29a1.531 1.531 0 0 1 .74-.097l.072.01v1.301c-.027-.004-.058-.007-.092-.01a1.662 1.662 0 0 0-.228-.01 1.41 1.41 0 0 0-.694.161 1.45 1.45 0 0 0-.482.432 1.88 1.88 0 0 0-.282.62 2.847 2.847 0 0 0-.092.722v1.153h.758v.99h-2.851v-.99zM256.759 68.66c0 .247.042.472.125.675a1.524 1.524 0 0 0 .843.856c.19.08.395.12.612.12a1.562 1.562 0 0 0 1.105-.455c.144-.144.257-.317.34-.52.083-.204.124-.429.124-.676 0-.244-.041-.468-.124-.67a1.556 1.556 0 0 0-2.56-.523c-.144.144-.257.32-.34.522a1.758 1.758 0 0 0-.125.671m-1.341 0a2.696 2.696 0 0 1 .85-1.999c.263-.246.572-.438.926-.574a3.091 3.091 0 0 1 1.135-.206c.407 0 .787.068 1.143.206.355.136.665.328.93.574.263.245.472.538.625.88.152.34.228.712.228 1.12 0 .405-.076.778-.228 1.12-.153.34-.362.632-.625.878a2.874 2.874 0 0 1-.927.573 3.104 3.104 0 0 1-1.136.206 3.12 3.12 0 0 1-1.141-.206 2.848 2.848 0 0 1-.926-.573 2.673 2.673 0 0 1-.625-.879 2.703 2.703 0 0 1-.23-1.12M265.174 70.093c.155 0 .308-.025.454-.076.148-.052.279-.136.395-.255.114-.118.207-.277.276-.478.069-.2.104-.45.104-.751s-.036-.55-.106-.747a1.227 1.227 0 0 0-.285-.47.953.953 0 0 0-.416-.244 1.84 1.84 0 0 0-.503-.068c-.2 0-.378.034-.534.104-.156.07-.286.17-.394.299a1.365 1.365 0 0 0-.241.468 2.125 2.125 0 0 0-.081.608c0 .229.029.443.089.639.059.197.144.367.257.51.11.145.25.257.416.339.166.08.355.122.569.122zm-1.768 1.966a3.528 3.528 0 0 0 .894.302c.18.036.37.053.574.053.203 0 .396-.023.576-.071.182-.048.34-.124.478-.23a1.08 1.08 0 0 0 .325-.41c.08-.17.12-.376.12-.62v-.335c0-.031 0-.062.002-.094a1.05 1.05 0 0 1 .008-.09l.01-.096h-.02a1.717 1.717 0 0 1-.592.547c-.236.13-.531.195-.886.195-.383 0-.723-.072-1.02-.216a2.181 2.181 0 0 1-.746-.582 2.577 2.577 0 0 1-.46-.853 3.378 3.378 0 0 1-.157-1.036 3.4 3.4 0 0 1 .152-1.03 2.49 2.49 0 0 1 .45-.838c.198-.238.444-.426.737-.566a2.339 2.339 0 0 1 1.013-.208c.16 0 .32.016.483.046.162.03.317.079.465.145.147.066.28.149.403.249.122.099.219.22.29.363h.02l-.01-.051a.684.684 0 0 1-.01-.127c0-.142.048-.261.145-.355.096-.095.25-.143.46-.143h1.32v.985h-.508a.252.252 0 0 0-.165.054c-.042.035-.063.087-.063.155v3.789c0 .305-.038.579-.112.819-.075.24-.178.453-.307.639a2.08 2.08 0 0 1-.462.478c-.18.132-.37.24-.577.325a3.066 3.066 0 0 1-.653.186 4.079 4.079 0 0 1-1.692-.07 4.202 4.202 0 0 1-.892-.33l.407-.98zM269.742 70.321h.772v-3.1c0-.074-.02-.13-.06-.17a.234.234 0 0 0-.168-.058h-.595v-.985h1.382c.237 0 .415.05.533.152.12.101.178.265.178.488v.315c0 .05 0 .096-.002.137-.002.04-.005.075-.008.102l-.01.091h.02c.062-.19.146-.368.252-.534a1.88 1.88 0 0 1 .376-.43c.143-.123.305-.22.482-.29a1.531 1.531 0 0 1 .74-.097l.071.01v1.301c-.027-.004-.058-.007-.092-.01a1.662 1.662 0 0 0-.228-.01 1.41 1.41 0 0 0-.694.161 1.45 1.45 0 0 0-.482.432 1.88 1.88 0 0 0-.282.62 2.847 2.847 0 0 0-.092.722v1.153h.758v.99h-2.85v-.99zM276.033 69.722c0 .098.017.19.051.279a.672.672 0 0 0 .393.389.871.871 0 0 0 .328.059c.18 0 .345-.044.496-.133.15-.088.28-.2.388-.338.11-.137.194-.291.254-.462.062-.171.092-.34.092-.505v-.173h-.219a5.5 5.5 0 0 0-.314.01 3.86 3.86 0 0 0-.382.04c-.132.02-.262.05-.39.09a1.382 1.382 0 0 0-.349.157.848.848 0 0 0-.25.244.6.6 0 0 0-.098.343m-1.33.102c0-.272.054-.503.162-.697a1.58 1.58 0 0 1 .421-.487c.173-.132.37-.238.59-.317.22-.08.44-.141.66-.184.221-.042.432-.07.635-.083.203-.014.376-.021.518-.021h.335v-.177c0-.17-.025-.313-.076-.43a.727.727 0 0 0-.208-.282.844.844 0 0 0-.31-.154 1.437 1.437 0 0 0-.386-.05c-.199 0-.389.027-.569.08a3.566 3.566 0 0 0-.477.175 3.023 3.023 0 0 0-.452.254l-.489-.915c.166-.122.357-.23.57-.325.182-.081.404-.156.663-.225.26-.07.55-.105.871-.105.715 0 1.257.179 1.628.536.371.358.557.876.557 1.557v2.119c0 .152.076.229.228.229h.478v.99h-1.25a.957.957 0 0 1-.313-.046.562.562 0 0 1-.208-.122.468.468 0 0 1-.117-.178.598.598 0 0 1-.038-.218v-.061a1.098 1.098 0 0 1 .031-.27h-.02a1.817 1.817 0 0 1-.605.7 1.577 1.577 0 0 1-.29.165 2.06 2.06 0 0 1-.358.114 2.194 2.194 0 0 1-1.082-.056 1.612 1.612 0 0 1-.56-.303 1.51 1.51 0 0 1-.393-.504 1.612 1.612 0 0 1-.147-.71M281.288 70.321h.772v-3.109c0-.075-.02-.13-.06-.165a.246.246 0 0 0-.168-.054h-.595v-.985h1.382c.237 0 .413.051.528.155.116.103.173.248.173.434v.24c0 .03-.002.058-.005.086-.004.026-.006.05-.01.07l-.01.071h.025a2.362 2.362 0 0 1 .678-.792 2.14 2.14 0 0 1 .516-.282c.19-.073.394-.109.615-.109.369 0 .681.091.937.274.255.183.436.476.541.88h.02a1.85 1.85 0 0 1 .29-.445c.122-.14.263-.264.422-.369.159-.105.334-.188.525-.249.192-.06.392-.09.603-.09.266 0 .507.04.718.118.211.08.39.203.536.37.145.164.257.374.336.626.077.252.116.553.116.901v2.424h.772v.99h-2.093v-3.165c0-.148-.009-.288-.028-.416a.976.976 0 0 0-.106-.336.577.577 0 0 0-.221-.223.747.747 0 0 0-.371-.08c-.227 0-.425.051-.595.156a1.34 1.34 0 0 0-.421.417 1.962 1.962 0 0 0-.252.6 2.986 2.986 0 0 0-.084.705v1.352h.768v.99h-2.083v-3.165c0-.14-.008-.276-.023-.403a.957.957 0 0 0-.099-.336.579.579 0 0 0-.219-.23.723.723 0 0 0-.375-.087c-.234 0-.436.056-.607.17a1.404 1.404 0 0 0-.424.445 2.067 2.067 0 0 0-.249.622 3.035 3.035 0 0 0-.082.703v1.291h.758v.99h-2.851v-.99z"/>
                <path d="M291.295 50.753v-.27h-.007c-.143-13.581-11.021-24.585-24.38-24.585-6.605 0-12.601 2.695-16.998 7.057l1.236 1.365c4.07-4.057 9.633-6.564 15.762-6.564 12.353 0 22.414 10.17 22.557 22.727h-1.737v-.2c0-5.704-2.307-10.878-6.036-14.642l-1.413 1.302c3.412 3.42 5.526 8.139 5.526 13.34v.2h-2.173v-.2c0-8.91-7.006-16.214-15.8-16.696v1.89c7.754.479 13.916 6.935 13.916 14.807v.44h.034v1.245h9.513v-1.216z"/>
                <path d="M266.908 31.387c4.406 0 8.462 1.52 11.68 4.059l1.43-1.32a20.716 20.716 0 0 0-13.11-4.662c-11.479 0-20.819 9.34-20.819 20.82v.2h-1.739a23.153 23.153 0 0 1 5.262-14.478l-1.243-1.374a25.026 25.026 0 0 0-5.847 16.12v.169h.06v1.048h9.513v-1.485h-.026v-.2c0-7.853 6.134-14.298 13.861-14.803v-1.89c-8.767.509-15.746 7.8-15.746 16.693v.2h-2.172v-.2c0-10.42 8.476-18.897 18.896-18.897"/>
                <path d="M257.26 46.825l.558 1.128 1.245.182-.902.878.213 1.24-1.114-.585-1.113.585.212-1.24-.901-.878 1.245-.182zM276.63 46.825l.558 1.128 1.245.182-.901.878.212 1.24-1.113-.585-1.114.585.213-1.24-.902-.878 1.245-.182z"/>
            </g>
            <g fill="#FFF">
                <path d="M31.642 26.705c1.29.418 2.575.847 3.856 1.29.24.081.278.021.277-.207-.004-1.643-.024-3.286.036-4.93 0-.336-.017-.674.006-1.009.017-.256-.086-.36-.319-.433-1.28-.4-2.56-.805-3.832-1.23-.305-.1-.359-.036-.357.27.017 1.94.02 3.883.012 5.824 0 .26.091.35.321.425zM36.791 27.632c0 .23.044.292.284.21 1.294-.443 2.592-.877 3.892-1.3.237-.077.311-.192.31-.44-.012-1.31-.002-2.616.001-3.925v-2.085c-1.449.46-2.86.913-4.275 1.357-.194.06-.21.187-.21.354.002 1.943.004 3.887-.002 5.829zM47.754 21.765c.007.39.001.777.001 1.165 0 1.54 0 3.08.003 4.62 0 .16-.079.41.257.295 1.331-.45 2.663-.897 3.997-1.338.158-.053.222-.128.222-.302-.006-2.018-.003-4.036-.003-6.11-1.446.458-2.856.91-4.268 1.354-.168.053-.213.153-.209.316zM24.647 35.567c-.006-2.02-.004-4.038-.004-6.11-.07.014-.12.018-.167.033-1.353.429-2.704.865-4.06 1.285-.222.068-.261.192-.26.397.007 1.23.003 2.46.003 3.69v2.347c.04.019.055.03.064.028l4.224-1.394c.135-.045.2-.116.2-.276zM30.025 37.183c.205.07.271.04.27-.186-.006-1.968-.005-3.936 0-5.905 0-.167-.055-.254-.22-.307-1.402-.441-2.802-.891-4.258-1.356 0 2.07.003 4.103-.004 6.135 0 .242.165.258.32.31 1.298.435 2.597.866 3.892 1.309zM24.552 39.959c-1.425-.453-2.848-.908-4.315-1.376 0 1.765-.004 3.474.003 5.183.001.374-.142.818.056 1.102.21.299.695.28 1.053.416.037.014.072.03.11.042 1.075.357 2.152.714 3.261 1.08 0-2.093 0-4.163.002-6.233 0-.131-.06-.18-.17-.214zM17.224 30.234c-.833-.265-1.666-.527-2.532-.802 0 2.078.003 4.112-.005 6.144 0 .226.152.242.29.288 1.31.44 2.622.873 3.93 1.32.255.088.271-.016.271-.223-.005-1.944-.005-3.887.001-5.83.001-.199-.058-.298-.258-.357-.569-.168-1.13-.36-1.697-.54zM29.93 45.027c.227-.074.29-.192.289-.42-.01-1.089-.005-2.177-.005-3.265v-2.758c-1.455.467-2.89.93-4.326 1.385-.152.048-.158.138-.158.26.002 1.981.004 3.964-.002 5.946-.001.195.037.248.236.181 1.32-.45 2.64-.896 3.966-1.329zM46.541 27.857c.053.018.119.058.186-.02.024-1.772-.017-3.555.04-5.339.031-.964.006-.966-.91-1.262-1.176-.38-2.354-.756-3.568-1.145 0 2.096.004 4.126-.004 6.158-.001.23.16.235.295.281 1.319.445 2.64.888 3.961 1.327zM35.471 29.522c-1.289.411-2.576.83-3.869 1.231-.254.078-.337.196-.333.463.025 1.68.033 3.362.046 5.043.002.32 0 .64 0 .98 1.443-.474 2.848-.94 4.257-1.394.212-.069.186-.209.187-.363.003-.867.01-1.733.012-2.6V29.45c-.127.03-.216.046-.3.072zM33.134 29.327c.561-.183 1.12-.373 1.678-.56-1.315-.477-2.62-.878-3.927-1.273a.41.41 0 0 0-.227.012c-1.294.392-2.587.788-3.88 1.183l-.014.08c1.297.422 2.594.844 3.891 1.264.144.046.276.002.415-.044.687-.225 1.376-.438 2.064-.662zM21.34 37.973c1.239.402 2.479.802 3.716 1.208.146.049.272.025.412-.021 1.176-.384 2.355-.76 3.53-1.148.079-.026.223 0 .227-.157-.074-.028-.146-.057-.22-.08-.787-.242-1.597-.433-2.36-.738-.962-.384-1.87-.38-2.832-.001-.841.332-1.728.546-2.59.812.015.105.07.11.118.125zM21.311 27.947c-1.093-.438-2.136-.473-3.238-.015-.778.323-1.614.512-2.423.76l.004.08c1.042.341 2.095.651 3.121 1.032.616.23 1.173.233 1.79.002 1.03-.383 2.086-.694 3.246-1.073-.91-.28-1.728-.477-2.5-.786zM40.318 19.433a1.938 1.938 0 0 0-.005-.076c-.818-.219-1.653-.389-2.449-.669-1.052-.37-2.06-.378-3.115-.005-.803.284-1.645.453-2.47.674 1.308.502 2.613.927 3.921 1.344.08.026.184.015.266-.01 1.285-.417 2.568-.838 3.852-1.258zM46.185 20.408c.723.28 1.385.298 2.117.012.974-.38 1.986-.664 2.981-.988-1.019-.344-2.042-.588-3.045-.897a3.17 3.17 0 0 0-1.955-.002c-1.002.31-2.025.551-3.05.825.068.146.187.14.274.168.893.295 1.803.543 2.678.882z"/>
            </g>
            <path fill="#FFF" d="M59.047 63.447l-.067-.042a4.33 4.33 0 0 1-2.047-3.685c0-.848.245-1.67.709-2.378a4.353 4.353 0 0 1 1.818-1.567c.01-1.61 1.335-2.919 2.959-2.919.286 0 .568.04.84.121a5.64 5.64 0 0 1 5.318-3.73c3.112 0 5.644 2.515 5.644 5.61 0 .222-.014.448-.042.673.507.027.999.145 1.463.348.493.215.935.52 1.315.904a4.183 4.183 0 0 1 1.21 2.938 4.171 4.171 0 0 1-2.028 3.588l-.002.001-.241.138h-16.85z"/>
            <path fill="#FFF" d="M74.027 55.658c.04-.269.061-.538.061-.802 0-3.019-2.473-5.476-5.51-5.476a5.483 5.483 0 0 0-3.323 1.106 5.53 5.53 0 0 0-1.913 2.658 2.82 2.82 0 0 0-3.748 2.716 4.21 4.21 0 0 0-.544 7.432l.035.021H75.86l.21-.119a4.036 4.036 0 0 0 1.965-3.474c0-2.213-1.79-4.019-4.008-4.062M26.554 63.392l-.065-.042a4.203 4.203 0 0 1-1.988-3.578c0-.823.239-1.622.689-2.31a4.229 4.229 0 0 1 1.765-1.52 2.868 2.868 0 0 1 3.69-2.718c.17-.475.408-.925.707-1.342a5.516 5.516 0 0 1 1.154-1.18 5.45 5.45 0 0 1 3.303-1.1c3.022 0 5.48 2.443 5.48 5.447 0 .217-.012.435-.04.654a4.095 4.095 0 0 1 3.558 2.501 4.05 4.05 0 0 1-1.655 5.052l-.001.002-.234.133H26.554z"/>
            <path fill="#FFF" d="M41.102 55.827c.039-.26.059-.52.059-.778 0-2.933-2.401-5.319-5.352-5.319-1.176 0-2.29.372-3.226 1.076a5.361 5.361 0 0 0-1.857 2.58c-.29-.1-.591-.15-.897-.15a2.74 2.74 0 0 0-2.743 2.788 4.087 4.087 0 0 0-.528 7.217l.033.021h16.291l.203-.116a3.919 3.919 0 0 0 1.909-3.374c0-2.149-1.739-3.903-3.892-3.945"/>
            <path fill="#FFF" d="M41.623 70.266l-.045-.026a2.904 2.904 0 0 1 .321-5.11 1.978 1.978 0 0 1 2.545-1.875 3.808 3.808 0 0 1 1.283-1.739 3.763 3.763 0 0 1 2.278-.76c2.084 0 3.78 1.687 3.78 3.757 0 .15-.009.301-.028.451.34.02.669.097.98.234a2.816 2.816 0 0 1 1.692 2.574c0 .987-.509 1.886-1.36 2.402h-.001l-.161.092H41.623z"/>
            <path fill="#FFF" d="M51.655 65.05c.027-.18.041-.36.041-.536 0-2.023-1.656-3.667-3.69-3.667-.81 0-1.58.256-2.225.74a3.708 3.708 0 0 0-1.282 1.78 1.89 1.89 0 0 0-2.51 1.82 2.82 2.82 0 0 0-.364 4.976l.023.015h11.235l.14-.08a2.704 2.704 0 0 0 1.316-2.326 2.733 2.733 0 0 0-2.684-2.721"/>
            <mask id="c" fill="#fff">
                <use xlink:href="#b"/>
            </mask>
            <path fill="#FFF" d="M32.647 63.759h2.011v-.377h-2.011z" mask="url(#c)"/>
            <path fill="#FFF" d="M34.591 63.74c0 .252.097.447-.237.634-.485.148-.506.725-.506.725h-.407s-.022-.577-.507-.725c-.334-.187-.237-.382-.237-.634h1.894zM34.659 77.553c.005-.255.093-.455-.25-.646-.51-.157-.532-.764-.532-.764h-.428s-.023.607-.533.764c-.342.19-.254.39-.25.646h-.052v.397h.344v.793h.033v.199c0 .047.039.086.085.086a.086.086 0 0 0 .086-.086v-.2h.034v-.792h.957v.793h.033v.199c0 .047.038.086.085.086a.086.086 0 0 0 .086-.086v-.2h.033v-.792h.339v-.397h-.07z" mask="url(#c)"/>
            <path fill="#FFF" d="M33.494 77.251h.348V64.639h-.348zM68.494 77.251h.348V64.639h-.348zM46.561 70.523h2.011v-.378h-2.011z" mask="url(#c)"/>
            <path fill="#FFF" d="M48.505 70.504c0 .252.097.447-.237.634-.485.148-.506.725-.506.725h-.407s-.022-.577-.507-.725c-.334-.187-.237-.382-.237-.634h1.894zM48.573 84.317c.004-.256.093-.456-.25-.646-.51-.158-.532-.765-.532-.765h-.428s-.023.607-.533.765c-.342.19-.254.39-.25.646h-.052v.396h.344v.793h.033v.2c0 .046.038.085.085.085a.086.086 0 0 0 .086-.086v-.199h.034v-.793h.957v.793h.032v.2a.086.086 0 1 0 .172 0v-.2h.033v-.793h.339v-.396h-.07z" mask="url(#c)"/>
            <path fill="#FFF" d="M47.401 84.015h.348V71.404h-.348zM67.557 63.675h2.011v-.377h-2.011z" mask="url(#c)"/>
            <path fill="#FFF" d="M69.5 63.656c0 .251.098.447-.236.633-.485.15-.506.726-.506.726h-.407s-.022-.577-.507-.726c-.334-.186-.237-.382-.237-.633H69.5zM69.568 77.469c.005-.255.093-.455-.249-.646-.51-.157-.533-.764-.533-.764h-.428s-.022.607-.533.764c-.342.19-.254.39-.249.646h-.053v.396h.344v.794h.033v.199a.086.086 0 0 0 .171 0v-.2h.034v-.793h.956v.794h.033v.199c0 .047.04.085.086.085a.085.085 0 0 0 .086-.085v-.2h.033v-.793h.34v-.396h-.07z" mask="url(#c)"/>
            <path fill="#FFF" d="M53.106 37.978c-9.808 0-17.76 7.951-17.76 17.76 0 9.808 7.952 17.76 17.76 17.76 9.808 0 17.759-7.952 17.759-17.76 0-9.809-7.951-17.76-17.76-17.76m0 1c9.242 0 16.76 7.52 16.76 16.76 0 9.241-7.518 16.76-16.76 16.76-9.24 0-16.758-7.519-16.758-16.76 0-9.24 7.518-16.76 16.759-16.76" mask="url(#c)"/>
        </g>
    </g>
</svg>
