<?xml version="1.0" encoding="utf-8"?>
<!-- Generator: Adobe Illustrator 23.0.2, SVG Export Plug-In . SVG Version: 6.00 Build 0)  -->
<svg version="1.1" id="Layer_1" xmlns="http://www.w3.org/2000/svg" xmlns:xlink="http://www.w3.org/1999/xlink" x="0px" y="0px"
	 viewBox="0 0 365 100" style="enable-background:new 0 0 365 100;" xml:space="preserve">
<style type="text/css">
	.st0{fill:url(#SVGID_1_);}
	.st1{fill:url(#SVGID_2_);}
	.st2{fill:url(#SVGID_3_);}
	.st3{fill-rule:evenodd;clip-rule:evenodd;fill:url(#SVGID_4_);}
	.st4{fill-rule:evenodd;clip-rule:evenodd;fill:#FFFFFF;}
	.st5{fill-rule:evenodd;clip-rule:evenodd;fill:url(#SVGID_5_);}
	.st6{fill:#FFF7E8;}
	.st7{filter:url(#Adobe_OpacityMaskFilter);}
	.st8{mask:url(#c_1_);}
	.st9{fill:none;stroke:#000000;stroke-width:0.6756;stroke-miterlimit:10;}
	.st10{fill-rule:evenodd;clip-rule:evenodd;}
	.st11{fill:none;stroke:#000000;stroke-miterlimit:10;}
	.st12{fill-rule:evenodd;clip-rule:evenodd;fill:#FFF7E8;}
	.st13{fill-rule:evenodd;clip-rule:evenodd;fill:none;stroke:#000000;stroke-width:0.5;stroke-miterlimit:10;}
	.st14{fill:none;stroke:#000000;stroke-width:0.5;stroke-miterlimit:10;}
	.st15{fill:#FFFFFF;}
	.st16{font-family:'Roboto-Bold';}
	.st17{font-size:17px;}
	.st18{font-family:'Roboto-Regular';}
</style>
<linearGradient id="SVGID_1_" gradientUnits="userSpaceOnUse" x1="-174.539" y1="54.6006" x2="-52.7401" y2="54.6006">
	<stop  offset="0" style="stop-color:#11998E"/>
	<stop  offset="0.1903" style="stop-color:#15A28C"/>
	<stop  offset="0.5047" style="stop-color:#21BB87"/>
	<stop  offset="0.9022" style="stop-color:#33E47F"/>
	<stop  offset="0.9999" style="stop-color:#38EF7D"/>
</linearGradient>
<rect x="-174.5" y="-5.9" class="st0" width="121.8" height="121"/>
<linearGradient id="SVGID_2_" gradientUnits="userSpaceOnUse" x1="-526.6732" y1="-297.8747" x2="-324.0979" y2="-297.8747">
	<stop  offset="0" style="stop-color:#1A2980"/>
	<stop  offset="0.1533" style="stop-color:#1A3182"/>
	<stop  offset="0.3901" style="stop-color:#1B4786"/>
	<stop  offset="0.6806" style="stop-color:#1B6A8D"/>
	<stop  offset="0.9999" style="stop-color:#1C9997"/>
</linearGradient>
<rect x="-526.7" y="-353.1" class="st1" width="202.6" height="110.5"/>
<g>
	<linearGradient id="SVGID_3_" gradientUnits="userSpaceOnUse" x1="-239.0905" y1="-165.2423" x2="40.1931" y2="-444.5259">
		<stop  offset="0" style="stop-color:#1A2980"/>
		<stop  offset="0.1533" style="stop-color:#1A3182"/>
		<stop  offset="0.3901" style="stop-color:#1B4786"/>
		<stop  offset="0.6806" style="stop-color:#1B6A8D"/>
		<stop  offset="0.9999" style="stop-color:#1C9997"/>
	</linearGradient>
	<rect x="-281.9" y="-401.7" class="st2" width="365" height="193.6"/>
</g>
<linearGradient id="SVGID_4_" gradientUnits="userSpaceOnUse" x1="0.7735" y1="98.307" x2="363.7681" y2="1.8148">
	<stop  offset="0" style="stop-color:#11998E"/>
	<stop  offset="0.1903" style="stop-color:#15A28C"/>
	<stop  offset="0.5047" style="stop-color:#21BB87"/>
	<stop  offset="0.9022" style="stop-color:#33E47F"/>
	<stop  offset="0.9999" style="stop-color:#38EF7D"/>
</linearGradient>
<path class="st3" d="M-2.6,102.1h370.3V-2.1H-2.6V102.1z"/>
<g>
	<path class="st4" d="M266.8,37.4l2.4,4.8l5.4,0.8l-3.9,3.8l0.9,5.3l-4.8-2.5l-4.8,2.5l0.9-5.3l-3.9-3.8l5.4-0.8L266.8,37.4z
		 M242.5,60.7h0.9v-3.8c0-0.1,0-0.2-0.1-0.2c-0.1,0-0.1-0.1-0.2-0.1h-0.7v-1.2h1.7c0.3,0,0.5,0.1,0.6,0.2c0.1,0.1,0.2,0.3,0.2,0.5
		v0.3c0,0,0,0.1,0,0.1l0,0.1l0,0.1h0c0.2-0.4,0.5-0.7,0.8-1c0.2-0.1,0.4-0.3,0.6-0.3c0.2-0.1,0.5-0.1,0.8-0.1c0.5,0,0.8,0.1,1.1,0.3
		c0.3,0.2,0.5,0.6,0.7,1.1h0c0.1-0.2,0.2-0.4,0.4-0.5c0.5-0.5,1.2-0.9,1.9-0.9c0.3,0,0.6,0,0.9,0.1c0.3,0.1,0.5,0.2,0.7,0.5
		c0.2,0.2,0.3,0.5,0.4,0.8c0.1,0.3,0.1,0.7,0.1,1.1v3h0.9v1.2h-2.6V58c0-0.2,0-0.4,0-0.5c0-0.1-0.1-0.3-0.1-0.4
		c-0.1-0.1-0.2-0.2-0.3-0.3c-0.1-0.1-0.3-0.1-0.5-0.1c-0.3,0-0.5,0.1-0.7,0.2c-0.2,0.1-0.4,0.3-0.5,0.5c-0.1,0.2-0.2,0.5-0.3,0.7
		c-0.1,0.3-0.1,0.6-0.1,0.9v1.7h0.9v1.2h-2.5V58c0-0.2,0-0.3,0-0.5c0-0.1-0.1-0.3-0.1-0.4c-0.1-0.1-0.2-0.2-0.3-0.3
		c-0.1-0.1-0.3-0.1-0.5-0.1c-0.3,0-0.5,0.1-0.7,0.2c-0.2,0.1-0.4,0.3-0.5,0.5c-0.1,0.2-0.2,0.5-0.3,0.8c-0.1,0.3-0.1,0.6-0.1,0.9
		v1.6h0.9v1.2h-3.5L242.5,60.7L242.5,60.7z M256.6,59.9c0,0.1,0,0.2,0.1,0.3c0.1,0.2,0.3,0.4,0.5,0.5c0.3,0.1,0.7,0.1,1-0.1
		c0.2-0.1,0.3-0.2,0.5-0.4c0.1-0.2,0.2-0.4,0.3-0.6c0.1-0.2,0.1-0.4,0.1-0.6v-0.2h-0.3c-0.1,0-0.2,0-0.4,0c-0.2,0-0.3,0-0.5,0
		c-0.2,0-0.3,0.1-0.5,0.1c-0.1,0-0.3,0.1-0.4,0.2c-0.1,0.1-0.2,0.2-0.3,0.3C256.6,59.6,256.6,59.8,256.6,59.9 M254.9,60
		c0-0.3,0.1-0.6,0.2-0.8s0.3-0.4,0.5-0.6c0.2-0.2,0.5-0.3,0.7-0.4c0.3-0.1,0.5-0.2,0.8-0.2c0.3,0,0.5-0.1,0.8-0.1c0.2,0,0.5,0,0.6,0
		h0.4v-0.2c0-0.2,0-0.4-0.1-0.5c-0.1-0.1-0.1-0.3-0.3-0.3c-0.1-0.1-0.2-0.2-0.4-0.2c-0.2,0-0.3-0.1-0.5-0.1c-0.2,0-0.5,0-0.7,0.1
		c-0.2,0.1-0.4,0.1-0.6,0.2c-0.2,0.1-0.4,0.2-0.6,0.3l-0.6-1.1c0.2-0.2,0.4-0.3,0.7-0.4c0.2-0.1,0.5-0.2,0.8-0.3
		c0.3-0.1,0.7-0.1,1.1-0.1c0.9,0,1.5,0.2,2,0.7c0.5,0.4,0.7,1.1,0.7,1.9v2.6c0,0.2,0.1,0.3,0.3,0.3h0.6v1.2H260
		c-0.1,0-0.3,0-0.4-0.1c-0.1,0-0.2-0.1-0.3-0.2c-0.1-0.1-0.1-0.1-0.1-0.2c0-0.1,0-0.2,0-0.3v-0.1c0-0.1,0-0.2,0-0.3h0
		c-0.1,0.2-0.3,0.4-0.5,0.6c-0.1,0.1-0.2,0.2-0.3,0.2c-0.1,0.1-0.2,0.1-0.4,0.2c-0.3,0.1-0.6,0.2-1,0.2c-0.3,0-0.5,0-0.8-0.1
		c-0.3-0.1-0.5-0.2-0.7-0.4c-0.2-0.2-0.4-0.4-0.5-0.6C255,60.6,254.9,60.3,254.9,60 M262.2,59.7h1.4v0.4c0,0.1,0,0.2,0.1,0.3
		c0.1,0.1,0.2,0.2,0.3,0.2c0.1,0.1,0.3,0.1,0.4,0.1c0.2,0,0.3,0,0.5,0c0.3,0,0.6-0.1,0.8-0.2c0.2-0.1,0.3-0.3,0.3-0.5
		c0-0.1,0-0.2-0.1-0.3c-0.1-0.1-0.2-0.2-0.3-0.2c-0.2-0.1-0.3-0.1-0.5-0.2c-0.2-0.1-0.4-0.1-0.6-0.2c-0.2-0.1-0.5-0.2-0.7-0.3
		c-0.2-0.1-0.5-0.2-0.7-0.4c-0.2-0.2-0.4-0.3-0.5-0.6c-0.1-0.2-0.2-0.5-0.2-0.8c0-0.3,0.1-0.6,0.2-0.9s0.4-0.4,0.6-0.6
		c0.3-0.2,0.5-0.3,0.8-0.3c0.3-0.1,0.6-0.1,0.9-0.1c0.2,0,0.5,0,0.8,0.1c0.3,0,0.5,0.1,0.8,0.2c0.2,0.1,0.4,0.2,0.6,0.4
		c0.2,0.2,0.2,0.4,0.2,0.6v0.8H266V57c0-0.2-0.1-0.3-0.3-0.4c-0.2-0.1-0.4-0.1-0.7-0.1c-0.1,0-0.2,0-0.4,0c-0.1,0-0.2,0.1-0.3,0.1
		c-0.1,0-0.1,0.1-0.2,0.2c-0.1,0.1-0.1,0.2-0.1,0.3c0,0.1,0,0.2,0.1,0.3c0.1,0.1,0.2,0.2,0.3,0.3c0.1,0.1,0.3,0.1,0.4,0.2
		c0.2,0.1,0.3,0.1,0.5,0.2c0.2,0.1,0.5,0.2,0.8,0.3c0.3,0.1,0.5,0.2,0.7,0.4c0.2,0.2,0.4,0.3,0.5,0.5c0.1,0.2,0.2,0.5,0.2,0.8
		c0,0.3-0.1,0.6-0.2,0.9c-0.1,0.2-0.3,0.5-0.6,0.6c-0.2,0.2-0.5,0.3-0.9,0.4c-0.6,0.2-1.3,0.2-2,0c-0.3-0.1-0.6-0.2-0.8-0.3
		c-0.2-0.1-0.5-0.3-0.6-0.5c-0.2-0.2-0.2-0.4-0.2-0.7L262.2,59.7L262.2,59.7z M269.3,56.6h-1v-1.2h1v-1.8h1.6v1.8h1.5v1.2h-1.5v2.7
		c0,0.3,0,0.5,0.1,0.7c0.2,0.3,0.4,0.5,0.8,0.6c0.1,0,0.3,0,0.4,0h0.1c0,0,0.1,0,0.1,0c0,0,0.1,0,0.1,0v1.3c-0.2,0-0.3,0-0.5,0
		c-0.2,0-0.3,0-0.5,0c-0.2,0-0.4-0.1-0.6-0.1c-0.2-0.1-0.4-0.1-0.6-0.3c-0.2-0.1-0.4-0.3-0.5-0.4c-0.2-0.2-0.3-0.4-0.4-0.7
		c-0.1-0.3-0.1-0.6-0.1-0.9V56.6z M277.8,57.9c0-0.2,0-0.4-0.1-0.6c-0.1-0.2-0.2-0.3-0.3-0.4c-0.2-0.2-0.5-0.4-0.9-0.4
		c-0.2,0-0.4,0-0.6,0.1c-0.2,0.1-0.3,0.2-0.5,0.3c-0.1,0.1-0.3,0.3-0.3,0.5c-0.1,0.2-0.2,0.4-0.2,0.6
		C275,57.9,277.8,57.9,277.8,57.9z M273.3,58.6c0-0.5,0.1-1,0.2-1.4c0.2-0.4,0.4-0.8,0.7-1.1c0.3-0.3,0.6-0.5,1-0.7
		c0.4-0.2,0.9-0.3,1.3-0.2c0.5,0,0.9,0.1,1.2,0.2c0.4,0.2,0.7,0.4,0.9,0.7c0.2,0.3,0.4,0.6,0.6,1c0.1,0.4,0.2,0.9,0.2,1.4l0,0.2
		c0,0.1,0,0.1,0,0.2H275c0,0.3,0.1,0.6,0.2,0.8c0.2,0.4,0.6,0.8,1,0.9c0.2,0.1,0.5,0.1,0.7,0.1c0.3,0,0.5,0,0.7-0.1
		c0.2-0.1,0.4-0.1,0.6-0.2c0.2-0.1,0.4-0.2,0.5-0.3l0.6,1.1c-0.2,0.2-0.4,0.3-0.7,0.5c-0.3,0.1-0.5,0.2-0.8,0.3
		c-0.3,0.1-0.7,0.1-1.1,0.1c-0.5,0-1-0.1-1.5-0.3c-0.4-0.2-0.8-0.4-1.1-0.7c-0.3-0.3-0.5-0.7-0.7-1.1
		C273.4,59.5,273.3,59.1,273.3,58.6L273.3,58.6z M280.6,60.7h0.9v-3.8c0-0.1,0-0.2-0.1-0.2c-0.1-0.1-0.1-0.1-0.2-0.1h-0.7v-1.2h1.7
		c0.3,0,0.5,0.1,0.7,0.2s0.2,0.3,0.2,0.6v0.4c0,0.1,0,0.2,0,0.3l0,0.1h0c0.1-0.2,0.2-0.5,0.3-0.7c0.1-0.2,0.3-0.4,0.5-0.5
		c0.2-0.2,0.4-0.3,0.6-0.4c0.3-0.1,0.5-0.1,0.8-0.1c0,0,0.1,0,0.1,0l0.1,0v1.6l-0.1,0c-0.4-0.1-0.8,0-1.1,0.2
		c-0.2,0.1-0.4,0.3-0.6,0.5c-0.2,0.2-0.3,0.5-0.3,0.8c-0.1,0.3-0.1,0.6-0.1,0.9v1.4h0.9v1.2h-3.5V60.7z M286.1,59.7h1.4v0.4
		c0,0.1,0,0.2,0.1,0.3c0.1,0.1,0.2,0.2,0.3,0.2c0.1,0.1,0.3,0.1,0.4,0.1c0.2,0,0.3,0,0.5,0c0.3,0,0.6-0.1,0.8-0.2
		c0.2-0.1,0.3-0.3,0.3-0.5c0-0.1,0-0.2-0.1-0.3c-0.1-0.1-0.2-0.2-0.3-0.2c-0.2-0.1-0.3-0.1-0.5-0.2c-0.2-0.1-0.4-0.1-0.6-0.2
		c-0.2-0.1-0.5-0.2-0.7-0.3c-0.2-0.1-0.5-0.2-0.7-0.4c-0.2-0.2-0.4-0.3-0.5-0.6c-0.1-0.2-0.2-0.5-0.2-0.8c0-0.3,0.1-0.6,0.2-0.9
		c0.2-0.2,0.4-0.4,0.6-0.6c0.2-0.1,0.5-0.3,0.8-0.3c0.3-0.1,0.6-0.1,0.9-0.1c0.2,0,0.5,0,0.8,0.1c0.3,0,0.5,0.1,0.8,0.2
		c0.2,0.1,0.4,0.2,0.6,0.4c0.2,0.2,0.2,0.4,0.2,0.6v0.8h-1.4V57c0-0.2-0.1-0.3-0.3-0.4c-0.2-0.1-0.4-0.1-0.7-0.1c-0.1,0-0.2,0-0.4,0
		c-0.1,0-0.2,0.1-0.3,0.1c-0.1,0-0.1,0.1-0.2,0.2c-0.1,0.1-0.1,0.2-0.1,0.3c0,0.1,0,0.2,0.1,0.3c0.1,0.1,0.2,0.2,0.3,0.3
		c0.1,0.1,0.3,0.1,0.4,0.2c0.2,0.1,0.3,0.1,0.5,0.2c0.2,0.1,0.5,0.2,0.8,0.3c0.3,0.1,0.5,0.2,0.7,0.4c0.2,0.2,0.4,0.3,0.5,0.5
		c0.1,0.2,0.2,0.5,0.2,0.8c0,0.3-0.1,0.6-0.2,0.9c-0.1,0.2-0.3,0.5-0.6,0.6c-0.2,0.2-0.5,0.3-0.9,0.4c-0.6,0.2-1.3,0.2-2,0
		c-0.3-0.1-0.6-0.2-0.8-0.3c-0.2-0.1-0.5-0.3-0.6-0.5c-0.2-0.2-0.3-0.4-0.2-0.7L286.1,59.7L286.1,59.7z M245,68.5
		c0,0.2,0,0.4,0.1,0.6s0.1,0.4,0.3,0.5c0.1,0.2,0.2,0.3,0.4,0.4c0.2,0.1,0.4,0.1,0.6,0.1c0.4,0,0.7-0.2,0.9-0.4
		c0.1-0.1,0.2-0.3,0.3-0.5c0.1-0.2,0.1-0.4,0.1-0.7c0-0.2,0-0.5-0.1-0.7c-0.1-0.2-0.1-0.4-0.3-0.5c-0.1-0.1-0.3-0.3-0.4-0.3
		c-0.3-0.1-0.7-0.2-1,0c-0.2,0.1-0.3,0.2-0.4,0.3c-0.1,0.2-0.2,0.3-0.3,0.5C245.1,68,245,68.2,245,68.5L245,68.5z M243.8,72.2V67
		c0-0.2-0.1-0.2-0.2-0.2h-0.6v-1h1.4c0.1,0,0.2,0,0.3,0c0.1,0,0.1,0.1,0.2,0.1c0.1,0,0.1,0.1,0.1,0.2s0,0.1,0,0.2v0c0,0,0,0.1,0,0.1
		l0,0.1c0,0,0,0,0,0.1h0c0.1-0.2,0.2-0.3,0.4-0.4c0.1-0.1,0.1-0.1,0.2-0.2c0.1-0.1,0.2-0.1,0.3-0.1c0.3-0.1,0.5-0.1,0.8-0.1
		c0.4,0,0.7,0.1,1,0.2c0.3,0.1,0.5,0.3,0.7,0.6c0.2,0.2,0.4,0.5,0.5,0.9c0.1,0.3,0.2,0.7,0.2,1.1c0,0.4-0.1,0.8-0.2,1.1
		c-0.1,0.3-0.3,0.6-0.5,0.9c-0.2,0.2-0.5,0.4-0.8,0.6c-0.3,0.1-0.6,0.2-1,0.2c-0.2,0-0.5,0-0.7-0.1c-0.2-0.1-0.3-0.2-0.5-0.3
		c-0.1-0.1-0.3-0.2-0.4-0.4h0c0,0,0,0.1,0,0.1l0,0.1c0,0.1,0,0.1,0,0.2v1.3h0.8v1H243v-1L243.8,72.2L243.8,72.2z M250.4,70.1h0.8V67
		c0-0.1,0-0.1-0.1-0.2c0,0-0.1-0.1-0.2-0.1h-0.6v-1h1.4c0.2,0,0.4,0.1,0.5,0.2c0.1,0.1,0.2,0.3,0.2,0.5v0.3c0,0.1,0,0.1,0,0.1
		c0,0,0,0.1,0,0.1l0,0.1h0c0.1-0.2,0.1-0.4,0.3-0.5c0.1-0.2,0.2-0.3,0.4-0.4c0.1-0.1,0.3-0.2,0.5-0.3c0.2-0.1,0.5-0.1,0.7-0.1l0.1,0
		v1.3c0,0-0.1,0-0.1,0c-0.1,0-0.2,0-0.2,0c-0.2,0-0.5,0-0.7,0.2c-0.2,0.1-0.4,0.3-0.5,0.4c-0.1,0.2-0.2,0.4-0.3,0.6
		c-0.1,0.2-0.1,0.5-0.1,0.7v1.2h0.8v1h-2.9L250.4,70.1L250.4,70.1z M256.8,68.5c0,0.2,0,0.5,0.1,0.7c0.2,0.4,0.5,0.7,0.8,0.9
		c0.2,0.1,0.4,0.1,0.6,0.1c0.4,0,0.8-0.2,1.1-0.5c0.1-0.1,0.3-0.3,0.3-0.5c0.1-0.2,0.1-0.4,0.1-0.7c0-0.2,0-0.5-0.1-0.7
		c-0.3-0.8-1.2-1.2-2-0.9c-0.2,0.1-0.4,0.2-0.5,0.4c-0.1,0.1-0.3,0.3-0.3,0.5C256.8,68,256.8,68.2,256.8,68.5 M255.4,68.5
		c0-0.8,0.3-1.5,0.9-2c0.3-0.2,0.6-0.4,0.9-0.6c0.4-0.1,0.7-0.2,1.1-0.2c0.4,0,0.8,0.1,1.1,0.2c0.4,0.1,0.7,0.3,0.9,0.6
		c0.3,0.2,0.5,0.5,0.6,0.9c0.2,0.3,0.2,0.7,0.2,1.1c0,0.4-0.1,0.8-0.2,1.1c-0.2,0.3-0.4,0.6-0.6,0.9c-0.3,0.2-0.6,0.4-0.9,0.6
		c-0.4,0.1-0.7,0.2-1.1,0.2c-0.4,0-0.8-0.1-1.1-0.2c-0.3-0.1-0.7-0.3-0.9-0.6c-0.3-0.2-0.5-0.5-0.6-0.9
		C255.5,69.2,255.4,68.8,255.4,68.5 M265.2,69.9c0.2,0,0.3,0,0.5-0.1c0.1-0.1,0.3-0.1,0.4-0.3c0.1-0.1,0.2-0.3,0.3-0.5
		c0.1-0.2,0.1-0.4,0.1-0.8s0-0.6-0.1-0.7c-0.1-0.2-0.2-0.3-0.3-0.5c-0.1-0.1-0.3-0.2-0.4-0.2c-0.2,0-0.3-0.1-0.5-0.1
		c-0.2,0-0.4,0-0.5,0.1s-0.3,0.2-0.4,0.3c-0.1,0.1-0.2,0.3-0.2,0.5c-0.1,0.2-0.1,0.4-0.1,0.6c0,0.2,0,0.4,0.1,0.6
		c0.1,0.2,0.1,0.4,0.3,0.5c0.1,0.1,0.2,0.3,0.4,0.3C264.8,69.9,265,69.9,265.2,69.9z M263.4,71.9c0.3,0.1,0.6,0.2,0.9,0.3
		c0.2,0,0.4,0.1,0.6,0.1c0.2,0,0.4,0,0.6-0.1c0.2,0,0.3-0.1,0.5-0.2c0.1-0.1,0.3-0.2,0.3-0.4c0.1-0.2,0.1-0.4,0.1-0.6v-0.3
		c0,0,0-0.1,0-0.1c0,0,0-0.1,0-0.1l0-0.1h0c-0.2,0.2-0.4,0.4-0.6,0.5c-0.2,0.1-0.5,0.2-0.9,0.2c-0.4,0-0.7-0.1-1-0.2
		c-0.3-0.1-0.5-0.3-0.7-0.6c-0.2-0.3-0.4-0.5-0.5-0.9c-0.1-0.3-0.2-0.7-0.2-1c0-0.3,0-0.7,0.2-1c0.1-0.3,0.2-0.6,0.5-0.8
		c0.2-0.2,0.4-0.4,0.7-0.6c0.3-0.1,0.7-0.2,1-0.2c0.2,0,0.3,0,0.5,0c0.2,0,0.3,0.1,0.5,0.1c0.1,0.1,0.3,0.1,0.4,0.2
		c0.1,0.1,0.2,0.2,0.3,0.4h0l0-0.1c0,0,0-0.1,0-0.1c0-0.1,0-0.3,0.1-0.4c0.1-0.1,0.2-0.1,0.5-0.1h1.3v1h-0.5c-0.1,0-0.1,0-0.2,0.1
		c0,0-0.1,0.1-0.1,0.2v3.8c0,0.3,0,0.6-0.1,0.8c-0.1,0.2-0.2,0.5-0.3,0.6c-0.1,0.2-0.3,0.3-0.5,0.5c-0.2,0.1-0.4,0.2-0.6,0.3
		c-0.2,0.1-0.4,0.1-0.7,0.2c-0.6,0.1-1.1,0.1-1.7-0.1c-0.3-0.1-0.6-0.2-0.9-0.3L263.4,71.9L263.4,71.9z M269.7,70.1h0.8V67
		c0-0.1,0-0.1-0.1-0.2c0,0-0.1-0.1-0.2-0.1h-0.6v-1h1.4c0.2,0,0.4,0.1,0.5,0.2c0.1,0.1,0.2,0.3,0.2,0.5v0.3c0,0.1,0,0.1,0,0.1
		c0,0,0,0.1,0,0.1l0,0.1h0c0.1-0.2,0.1-0.4,0.3-0.5c0.1-0.2,0.2-0.3,0.4-0.4c0.1-0.1,0.3-0.2,0.5-0.3c0.2-0.1,0.5-0.1,0.7-0.1l0.1,0
		v1.3c0,0-0.1,0-0.1,0c-0.1,0-0.2,0-0.2,0c-0.2,0-0.5,0-0.7,0.2c-0.2,0.1-0.4,0.3-0.5,0.4c-0.1,0.2-0.2,0.4-0.3,0.6
		c-0.1,0.2-0.1,0.5-0.1,0.7v1.2h0.8v1h-2.9L269.7,70.1L269.7,70.1z M276,69.5c0,0.1,0,0.2,0.1,0.3c0.1,0.2,0.2,0.3,0.4,0.4
		c0.1,0,0.2,0.1,0.3,0.1c0.2,0,0.3,0,0.5-0.1c0.1-0.1,0.3-0.2,0.4-0.3c0.1-0.1,0.2-0.3,0.3-0.5c0.1-0.2,0.1-0.3,0.1-0.5v-0.2h-0.2
		c-0.1,0-0.2,0-0.3,0c-0.1,0-0.3,0-0.4,0c-0.1,0-0.3,0.1-0.4,0.1c-0.1,0-0.2,0.1-0.3,0.2c-0.1,0.1-0.2,0.1-0.2,0.2
		C276.1,69.3,276,69.4,276,69.5 M274.7,69.6c0-0.3,0.1-0.5,0.2-0.7c0.1-0.2,0.2-0.4,0.4-0.5c0.2-0.1,0.4-0.2,0.6-0.3
		c0.2-0.1,0.4-0.1,0.7-0.2c0.2,0,0.4-0.1,0.6-0.1c0.2,0,0.4,0,0.5,0h0.3v-0.2c0-0.2,0-0.3-0.1-0.4c0-0.1-0.1-0.2-0.2-0.3
		c-0.1-0.1-0.2-0.1-0.3-0.2c-0.1,0-0.3-0.1-0.4-0.1c-0.2,0-0.4,0-0.6,0.1c-0.2,0-0.3,0.1-0.5,0.2c-0.2,0.1-0.3,0.2-0.5,0.3l-0.5-0.9
		c0.2-0.1,0.4-0.2,0.6-0.3c0.2-0.1,0.4-0.2,0.7-0.2c0.3-0.1,0.5-0.1,0.9-0.1c0.7,0,1.3,0.2,1.6,0.5c0.4,0.4,0.6,0.9,0.6,1.6v2.1
		c0,0.2,0.1,0.2,0.2,0.2h0.5v1h-1.2c-0.1,0-0.2,0-0.3,0c-0.1,0-0.1-0.1-0.2-0.1c-0.1,0-0.1-0.1-0.1-0.2c0-0.1,0-0.1,0-0.2v-0.1
		c0-0.1,0-0.2,0-0.3h0c-0.1,0.3-0.3,0.5-0.6,0.7c-0.1,0.1-0.2,0.1-0.3,0.2c-0.1,0-0.2,0.1-0.4,0.1c-0.4,0.1-0.7,0.1-1.1-0.1
		c-0.2-0.1-0.4-0.2-0.6-0.3c-0.2-0.1-0.3-0.3-0.4-0.5C274.7,70.1,274.7,69.9,274.7,69.6 M281.3,70.1h0.8V67c0-0.1,0-0.1-0.1-0.2
		c0,0-0.1-0.1-0.2-0.1h-0.6v-1h1.4c0.2,0,0.4,0.1,0.5,0.2c0.1,0.1,0.2,0.2,0.2,0.4v0.2c0,0,0,0.1,0,0.1c0,0,0,0.1,0,0.1l0,0.1h0
		c0.2-0.3,0.4-0.6,0.7-0.8c0.2-0.1,0.3-0.2,0.5-0.3c0.2-0.1,0.4-0.1,0.6-0.1c0.4,0,0.7,0.1,0.9,0.3c0.3,0.2,0.4,0.5,0.5,0.9h0
		c0.1-0.2,0.2-0.3,0.3-0.4c0.1-0.1,0.3-0.3,0.4-0.4s0.3-0.2,0.5-0.2c0.2-0.1,0.4-0.1,0.6-0.1c0.3,0,0.5,0,0.7,0.1
		c0.2,0.1,0.4,0.2,0.5,0.4c0.1,0.2,0.3,0.4,0.3,0.6c0.1,0.3,0.1,0.6,0.1,0.9v2.4h0.8v1h-2.1v-3.2c0-0.1,0-0.3,0-0.4
		c0-0.1-0.1-0.2-0.1-0.3c-0.1-0.1-0.1-0.2-0.2-0.2c-0.1-0.1-0.2-0.1-0.4-0.1c-0.2,0-0.4,0.1-0.6,0.2c-0.2,0.1-0.3,0.2-0.4,0.4
		c-0.1,0.2-0.2,0.4-0.3,0.6c-0.1,0.2-0.1,0.5-0.1,0.7v1.4h0.8v1h-2.1v-3.2c0-0.1,0-0.3,0-0.4c0-0.1,0-0.2-0.1-0.3
		c-0.1-0.1-0.1-0.2-0.2-0.2c-0.1-0.1-0.2-0.1-0.4-0.1c-0.2,0-0.4,0.1-0.6,0.2c-0.2,0.1-0.3,0.3-0.4,0.4c-0.1,0.2-0.2,0.4-0.2,0.6
		c-0.1,0.2-0.1,0.5-0.1,0.7v1.3h0.8v1h-2.9L281.3,70.1L281.3,70.1z"/>
	<path class="st4" d="M291.3,50.6v-0.3h0c-0.1-13.6-11-24.6-24.4-24.6c-6.6,0-12.6,2.7-17,7.1l1.2,1.4c4.1-4.1,9.6-6.6,15.8-6.6
		c12.4,0,22.4,10.2,22.6,22.7h-1.7v-0.2c0-5.7-2.3-10.9-6-14.6l-1.4,1.3c3.4,3.4,5.5,8.1,5.5,13.3v0.2h-2.2v-0.2
		c0-8.9-7-16.2-15.8-16.7v1.9c7.8,0.5,13.9,6.9,13.9,14.8v0.4h0v1.2h9.5L291.3,50.6L291.3,50.6z"/>
	<path class="st4" d="M266.9,31.2c4.4,0,8.5,1.5,11.7,4.1l1.4-1.3c-3.7-3-8.3-4.7-13.1-4.7c-11.5,0-20.8,9.3-20.8,20.8v0.2h-1.7
		c0.1-5.3,1.9-10.4,5.3-14.5l-1.2-1.4c-3.8,4.5-5.9,10.2-5.8,16.1v0.2h0.1v1h9.5v-1.5h0v-0.2c0-7.9,6.1-14.3,13.9-14.8v-1.9
		c-8.8,0.5-15.7,7.8-15.7,16.7v0.2H248v-0.2C248,39.7,256.5,31.2,266.9,31.2"/>
	<path class="st4" d="M257.3,46.6l0.6,1.1l1.2,0.2l-0.9,0.9l0.2,1.2l-1.1-0.6l-1.1,0.6l0.2-1.2l-0.9-0.9l1.2-0.2L257.3,46.6z
		 M276.6,46.6l0.6,1.1l1.2,0.2l-0.9,0.9l0.2,1.2l-1.1-0.6l-1.1,0.6l0.2-1.2l-0.9-0.9l1.2-0.2L276.6,46.6z"/>
</g>
<text transform="matrix(1 0 0 1 109.0795 198.3679)"><tspan x="0" y="0" class="st6" style="font-family:'Lato-Black'; font-size:16.8988px;">Automated</tspan><tspan x="0" y="20.3" class="st6" style="font-family:'Lato-Regular'; font-size:16.8988px;">Testing</tspan></text>
<g>
	<linearGradient id="SVGID_5_" gradientUnits="userSpaceOnUse" x1="133.8073" y1="-338.1507" x2="500.4856" y2="-273.2009">
		<stop  offset="0" style="stop-color:#1A2980"/>
		<stop  offset="0.9999" style="stop-color:#21B3B1"/>
	</linearGradient>
	<path class="st5" d="M132.1-253.5h370.3v-104.3H132.1V-253.5z"/>
	<g>
		<path class="st4" d="M401.6-318.3l2.4,4.9l5.4,0.8l-3.9,3.8l0.9,5.3l-4.8-2.5l-4.8,2.5l0.9-5.3l-3.9-3.8l5.4-0.8L401.6-318.3z
			 M377.3-295h0.9v-3.8c0-0.1,0-0.2-0.1-0.2c-0.1,0-0.1-0.1-0.2-0.1h-0.7v-1.2h1.7c0.3,0,0.5,0.1,0.6,0.2c0.1,0.1,0.2,0.3,0.2,0.5
			v0.3c0,0,0,0.1,0,0.1l0,0.1l0,0.1h0c0.2-0.4,0.5-0.7,0.8-1c0.2-0.1,0.4-0.3,0.6-0.3c0.2-0.1,0.5-0.1,0.8-0.1
			c0.5,0,0.8,0.1,1.1,0.3c0.3,0.2,0.5,0.6,0.7,1.1h0c0.1-0.2,0.2-0.4,0.4-0.5c0.5-0.5,1.2-0.9,1.9-0.9c0.3,0,0.6,0,0.9,0.1
			c0.3,0.1,0.5,0.2,0.7,0.4c0.2,0.2,0.3,0.5,0.4,0.8c0.1,0.3,0.1,0.7,0.1,1.1v3h0.9v1.2h-2.6v-3.9c0-0.2,0-0.4,0-0.5
			c0-0.1-0.1-0.3-0.1-0.4c-0.1-0.1-0.2-0.2-0.3-0.3c-0.1-0.1-0.3-0.1-0.5-0.1c-0.3,0-0.5,0.1-0.7,0.2c-0.2,0.1-0.4,0.3-0.5,0.5
			c-0.1,0.2-0.2,0.5-0.3,0.7c-0.1,0.3-0.1,0.6-0.1,0.9v1.7h0.9v1.2h-2.5v-3.9c0-0.2,0-0.3,0-0.5c0-0.1-0.1-0.3-0.1-0.4
			c-0.1-0.1-0.2-0.2-0.3-0.3c-0.1-0.1-0.3-0.1-0.5-0.1c-0.3,0-0.5,0.1-0.7,0.2c-0.2,0.1-0.4,0.3-0.5,0.5c-0.1,0.2-0.2,0.5-0.3,0.8
			c-0.1,0.3-0.1,0.6-0.1,0.9v1.6h0.9v1.2h-3.5L377.3-295L377.3-295z M391.3-295.7c0,0.1,0,0.2,0.1,0.3c0.1,0.2,0.3,0.4,0.5,0.5
			c0.3,0.1,0.7,0.1,1-0.1c0.2-0.1,0.3-0.2,0.5-0.4c0.1-0.2,0.2-0.4,0.3-0.6c0.1-0.2,0.1-0.4,0.1-0.6v-0.2h-0.3c-0.1,0-0.2,0-0.4,0
			c-0.2,0-0.3,0-0.5,0c-0.2,0-0.3,0.1-0.5,0.1c-0.1,0-0.3,0.1-0.4,0.2c-0.1,0.1-0.2,0.2-0.3,0.3C391.4-296,391.3-295.9,391.3-295.7
			 M389.7-295.6c0-0.3,0.1-0.6,0.2-0.9c0.1-0.2,0.3-0.4,0.5-0.6c0.2-0.2,0.5-0.3,0.7-0.4c0.3-0.1,0.5-0.2,0.8-0.2
			c0.3-0.1,0.5-0.1,0.8-0.1c0.2,0,0.5,0,0.6,0h0.4v-0.2c0-0.2,0-0.4-0.1-0.5c-0.1-0.1-0.1-0.3-0.3-0.3c-0.1-0.1-0.2-0.2-0.4-0.2
			c-0.2,0-0.3-0.1-0.5-0.1c-0.2,0-0.5,0-0.7,0.1c-0.2,0.1-0.4,0.1-0.6,0.2c-0.2,0.1-0.4,0.2-0.6,0.3l-0.6-1.1
			c0.2-0.2,0.4-0.3,0.7-0.4c0.2-0.1,0.5-0.2,0.8-0.3c0.3-0.1,0.7-0.1,1.1-0.1c0.9,0,1.5,0.2,2,0.7c0.5,0.4,0.7,1.1,0.7,1.9v2.6
			c0,0.2,0.1,0.3,0.3,0.3h0.6v1.2h-1.5c-0.1,0-0.3,0-0.4-0.1c-0.1,0-0.2-0.1-0.3-0.1c-0.1-0.1-0.1-0.1-0.1-0.2c0-0.1,0-0.2,0-0.3
			v-0.1c0-0.1,0-0.2,0-0.3h0c-0.1,0.2-0.3,0.4-0.5,0.6c-0.1,0.1-0.2,0.2-0.3,0.2c-0.1,0.1-0.2,0.1-0.4,0.2c-0.3,0.1-0.6,0.2-1,0.2
			c-0.3,0-0.5,0-0.8-0.1c-0.3-0.1-0.5-0.2-0.7-0.4c-0.2-0.2-0.4-0.4-0.5-0.6C389.8-295,389.7-295.3,389.7-295.6 M397-295.9h1.4v0.4
			c0,0.1,0,0.2,0.1,0.3c0.1,0.1,0.2,0.2,0.3,0.2c0.1,0.1,0.3,0.1,0.4,0.1c0.2,0,0.3,0,0.5,0c0.3,0,0.6-0.1,0.8-0.2
			c0.2-0.1,0.3-0.3,0.3-0.5c0-0.1,0-0.2-0.1-0.3c-0.1-0.1-0.2-0.2-0.3-0.2c-0.2-0.1-0.3-0.1-0.5-0.2c-0.2-0.1-0.4-0.1-0.6-0.2
			c-0.2-0.1-0.5-0.2-0.7-0.3c-0.2-0.1-0.5-0.2-0.7-0.4c-0.2-0.2-0.4-0.3-0.5-0.6c-0.1-0.2-0.2-0.5-0.2-0.8c0-0.3,0.1-0.6,0.2-0.9
			c0.2-0.2,0.4-0.4,0.6-0.6c0.3-0.2,0.5-0.3,0.8-0.3c0.3-0.1,0.6-0.1,0.9-0.1c0.2,0,0.5,0,0.8,0.1c0.3,0,0.5,0.1,0.8,0.2
			c0.2,0.1,0.4,0.2,0.6,0.4c0.2,0.2,0.2,0.4,0.2,0.6v0.8h-1.4v-0.4c0-0.2-0.1-0.3-0.3-0.4c-0.2-0.1-0.4-0.1-0.7-0.1
			c-0.1,0-0.2,0-0.4,0c-0.1,0-0.2,0.1-0.3,0.1c-0.1,0-0.1,0.1-0.2,0.2c-0.1,0.1-0.1,0.2-0.1,0.3c0,0.1,0,0.2,0.1,0.3
			c0.1,0.1,0.2,0.2,0.3,0.3c0.1,0.1,0.3,0.1,0.4,0.2c0.2,0.1,0.3,0.1,0.5,0.2c0.2,0.1,0.5,0.2,0.8,0.3c0.3,0.1,0.5,0.2,0.7,0.4
			c0.2,0.1,0.4,0.3,0.5,0.5c0.1,0.2,0.2,0.5,0.2,0.8c0,0.3-0.1,0.6-0.2,0.9c-0.1,0.2-0.3,0.5-0.6,0.6c-0.2,0.2-0.5,0.3-0.9,0.4
			c-0.6,0.2-1.3,0.2-2,0c-0.3-0.1-0.6-0.2-0.8-0.3c-0.2-0.1-0.5-0.3-0.6-0.5c-0.2-0.2-0.2-0.4-0.2-0.7L397-295.9L397-295.9z
			 M404.1-299.1h-1v-1.2h1v-1.8h1.6v1.8h1.5v1.2h-1.5v2.7c0,0.3,0,0.5,0.1,0.7c0.2,0.3,0.4,0.5,0.8,0.6c0.1,0,0.3,0,0.4,0h0.1
			c0,0,0.1,0,0.1,0c0,0,0.1,0,0.1,0v1.3c-0.2,0-0.3,0-0.5,0c-0.2,0-0.3,0-0.5,0c-0.2,0-0.4-0.1-0.6-0.1c-0.2-0.1-0.4-0.1-0.6-0.3
			c-0.2-0.1-0.4-0.3-0.5-0.4c-0.2-0.2-0.3-0.4-0.4-0.7c-0.1-0.3-0.1-0.6-0.1-0.9V-299.1z M412.6-297.8c0-0.2,0-0.4-0.1-0.6
			c-0.1-0.2-0.2-0.3-0.3-0.4c-0.2-0.2-0.5-0.4-0.9-0.4c-0.2,0-0.4,0-0.6,0.1c-0.2,0.1-0.3,0.2-0.5,0.3c-0.1,0.1-0.3,0.3-0.3,0.4
			c-0.1,0.2-0.2,0.4-0.2,0.6C409.8-297.8,412.6-297.8,412.6-297.8z M408.1-297c0-0.5,0.1-1,0.2-1.4c0.2-0.4,0.4-0.8,0.7-1.1
			c0.3-0.3,0.6-0.5,1-0.7c0.4-0.2,0.9-0.3,1.3-0.2c0.5,0,0.9,0.1,1.2,0.2c0.4,0.2,0.7,0.4,0.9,0.7c0.2,0.3,0.4,0.6,0.6,1
			c0.1,0.4,0.2,0.9,0.2,1.4l0,0.2c0,0.1,0,0.1,0,0.2h-4.5c0,0.3,0.1,0.6,0.2,0.8c0.2,0.4,0.6,0.8,1,0.9c0.2,0.1,0.5,0.1,0.7,0.1
			c0.3,0,0.5,0,0.7-0.1c0.2-0.1,0.4-0.1,0.6-0.2c0.2-0.1,0.4-0.2,0.5-0.3l0.6,1.1c-0.2,0.2-0.4,0.3-0.7,0.5
			c-0.3,0.1-0.5,0.2-0.8,0.3c-0.3,0.1-0.7,0.1-1.1,0.1c-0.5,0-1-0.1-1.5-0.3c-0.4-0.2-0.8-0.4-1.1-0.7c-0.3-0.3-0.5-0.7-0.7-1.1
			C408.2-296.1,408.1-296.6,408.1-297L408.1-297z M415.3-295h0.9v-3.8c0-0.1,0-0.2-0.1-0.2c-0.1-0.1-0.1-0.1-0.2-0.1h-0.7v-1.2h1.7
			c0.3,0,0.5,0.1,0.7,0.2c0.1,0.1,0.2,0.3,0.2,0.6v0.4c0,0.1,0,0.2,0,0.3l0,0.1h0c0.1-0.2,0.2-0.5,0.3-0.7c0.1-0.2,0.3-0.4,0.5-0.5
			c0.2-0.1,0.4-0.3,0.6-0.4c0.3-0.1,0.5-0.1,0.8-0.1c0,0,0.1,0,0.1,0l0.1,0v1.6l-0.1,0c-0.4-0.1-0.8,0-1.1,0.2
			c-0.2,0.1-0.4,0.3-0.6,0.5c-0.2,0.2-0.3,0.5-0.3,0.8c-0.1,0.3-0.1,0.6-0.1,0.9v1.4h0.9v1.2h-3.5V-295z M420.9-295.9h1.4v0.4
			c0,0.1,0,0.2,0.1,0.3c0.1,0.1,0.2,0.2,0.3,0.2c0.1,0.1,0.3,0.1,0.4,0.1c0.2,0,0.3,0,0.5,0c0.3,0,0.6-0.1,0.8-0.2
			c0.2-0.1,0.3-0.3,0.3-0.5c0-0.1,0-0.2-0.1-0.3c-0.1-0.1-0.2-0.2-0.3-0.2c-0.2-0.1-0.3-0.1-0.5-0.2c-0.2-0.1-0.4-0.1-0.6-0.2
			c-0.2-0.1-0.5-0.2-0.7-0.3c-0.2-0.1-0.5-0.2-0.7-0.4c-0.2-0.2-0.4-0.3-0.5-0.6c-0.1-0.2-0.2-0.5-0.2-0.8c0-0.3,0.1-0.6,0.2-0.9
			c0.2-0.2,0.4-0.4,0.6-0.6c0.2-0.1,0.5-0.3,0.8-0.3c0.3-0.1,0.6-0.1,0.9-0.1c0.2,0,0.5,0,0.8,0.1c0.3,0,0.5,0.1,0.8,0.2
			c0.2,0.1,0.4,0.2,0.6,0.4c0.2,0.2,0.2,0.4,0.2,0.6v0.8h-1.4v-0.4c0-0.2-0.1-0.3-0.3-0.4c-0.2-0.1-0.4-0.1-0.7-0.1
			c-0.1,0-0.2,0-0.4,0c-0.1,0-0.2,0.1-0.3,0.1c-0.1,0-0.1,0.1-0.2,0.2c-0.1,0.1-0.1,0.2-0.1,0.3c0,0.1,0,0.2,0.1,0.3
			c0.1,0.1,0.2,0.2,0.3,0.3c0.1,0.1,0.3,0.1,0.4,0.2c0.2,0.1,0.3,0.1,0.5,0.2c0.2,0.1,0.5,0.2,0.8,0.3c0.3,0.1,0.5,0.2,0.7,0.4
			c0.2,0.1,0.4,0.3,0.5,0.5c0.1,0.2,0.2,0.5,0.2,0.8c0,0.3-0.1,0.6-0.2,0.9c-0.1,0.2-0.3,0.5-0.6,0.6c-0.2,0.2-0.5,0.3-0.9,0.4
			c-0.6,0.2-1.3,0.2-2,0c-0.3-0.1-0.6-0.2-0.8-0.3c-0.2-0.1-0.5-0.3-0.6-0.5c-0.2-0.2-0.3-0.4-0.2-0.7L420.9-295.9L420.9-295.9z
			 M379.8-287.2c0,0.2,0,0.4,0.1,0.6s0.1,0.4,0.3,0.5c0.1,0.2,0.2,0.3,0.4,0.4c0.2,0.1,0.4,0.1,0.6,0.1c0.4,0,0.7-0.2,0.9-0.4
			c0.1-0.1,0.2-0.3,0.3-0.5c0.1-0.2,0.1-0.4,0.1-0.7c0-0.2,0-0.5-0.1-0.7c-0.1-0.2-0.1-0.4-0.3-0.5c-0.1-0.1-0.3-0.3-0.4-0.3
			c-0.3-0.1-0.7-0.2-1,0c-0.2,0.1-0.3,0.2-0.4,0.3c-0.1,0.2-0.2,0.3-0.3,0.5C379.8-287.7,379.8-287.4,379.8-287.2L379.8-287.2z
			 M378.5-283.4v-5.2c0-0.2-0.1-0.2-0.2-0.2h-0.6v-1h1.4c0.1,0,0.2,0,0.3,0c0.1,0,0.1,0.1,0.2,0.1c0.1,0,0.1,0.1,0.1,0.2
			s0,0.1,0,0.2v0c0,0,0,0.1,0,0.1l0,0.1c0,0,0,0,0,0.1h0c0.1-0.2,0.2-0.3,0.4-0.4c0.1-0.1,0.1-0.1,0.2-0.2c0.1-0.1,0.2-0.1,0.3-0.1
			c0.3-0.1,0.5-0.1,0.8-0.1c0.4,0,0.7,0.1,1,0.2c0.3,0.1,0.5,0.3,0.7,0.6c0.2,0.2,0.4,0.5,0.5,0.9c0.1,0.3,0.2,0.7,0.2,1.1
			c0,0.4-0.1,0.8-0.2,1.1c-0.1,0.3-0.3,0.6-0.5,0.9c-0.2,0.2-0.5,0.4-0.8,0.6c-0.3,0.1-0.6,0.2-1,0.2c-0.2,0-0.5,0-0.7-0.1
			c-0.2-0.1-0.3-0.2-0.5-0.3c-0.1-0.1-0.3-0.2-0.4-0.4h0c0,0,0,0.1,0,0.1l0,0.1c0,0.1,0,0.1,0,0.2v1.3h0.8v1h-2.9v-1L378.5-283.4
			L378.5-283.4z M385.2-285.5h0.8v-3.1c0-0.1,0-0.1-0.1-0.2c0,0-0.1-0.1-0.2-0.1h-0.6v-1h1.4c0.2,0,0.4,0,0.5,0.2
			c0.1,0.1,0.2,0.3,0.2,0.5v0.3c0,0.1,0,0.1,0,0.1c0,0,0,0.1,0,0.1l0,0.1h0c0.1-0.2,0.1-0.4,0.3-0.5c0.1-0.2,0.2-0.3,0.4-0.4
			c0.1-0.1,0.3-0.2,0.5-0.3c0.2-0.1,0.5-0.1,0.7-0.1l0.1,0v1.3c0,0-0.1,0-0.1,0c-0.1,0-0.2,0-0.2,0c-0.2,0-0.5,0-0.7,0.2
			c-0.2,0.1-0.4,0.3-0.5,0.4c-0.1,0.2-0.2,0.4-0.3,0.6c-0.1,0.2-0.1,0.5-0.1,0.7v1.2h0.8v1h-2.9L385.2-285.5L385.2-285.5z
			 M391.5-287.2c0,0.2,0,0.5,0.1,0.7c0.2,0.4,0.5,0.7,0.8,0.9c0.2,0.1,0.4,0.1,0.6,0.1c0.4,0,0.8-0.2,1.1-0.5
			c0.1-0.1,0.3-0.3,0.3-0.5c0.1-0.2,0.1-0.4,0.1-0.7c0-0.2,0-0.5-0.1-0.7c-0.3-0.8-1.2-1.2-2-0.9c-0.2,0.1-0.4,0.2-0.5,0.4
			c-0.1,0.1-0.3,0.3-0.3,0.5C391.6-287.6,391.5-287.4,391.5-287.2 M390.2-287.2c0-0.8,0.3-1.5,0.9-2c0.3-0.2,0.6-0.4,0.9-0.6
			c0.4-0.1,0.7-0.2,1.1-0.2c0.4,0,0.8,0.1,1.1,0.2c0.4,0.1,0.7,0.3,0.9,0.6c0.3,0.2,0.5,0.5,0.6,0.9c0.2,0.3,0.2,0.7,0.2,1.1
			c0,0.4-0.1,0.8-0.2,1.1c-0.2,0.3-0.4,0.6-0.6,0.9c-0.3,0.2-0.6,0.4-0.9,0.6c-0.4,0.1-0.7,0.2-1.1,0.2c-0.4,0-0.8-0.1-1.1-0.2
			c-0.3-0.1-0.7-0.3-0.9-0.6c-0.3-0.2-0.5-0.5-0.6-0.9C390.3-286.4,390.2-286.8,390.2-287.2 M399.9-285.8c0.2,0,0.3,0,0.5-0.1
			c0.1-0.1,0.3-0.1,0.4-0.3c0.1-0.1,0.2-0.3,0.3-0.5c0.1-0.2,0.1-0.4,0.1-0.8c0-0.3,0-0.5-0.1-0.7c-0.1-0.2-0.2-0.3-0.3-0.5
			c-0.1-0.1-0.3-0.2-0.4-0.2c-0.2,0-0.3-0.1-0.5-0.1c-0.2,0-0.4,0-0.5,0.1c-0.2,0.1-0.3,0.2-0.4,0.3c-0.1,0.1-0.2,0.3-0.2,0.5
			c-0.1,0.2-0.1,0.4-0.1,0.6c0,0.2,0,0.4,0.1,0.6c0.1,0.2,0.1,0.4,0.3,0.5c0.1,0.1,0.2,0.3,0.4,0.3
			C399.5-285.8,399.7-285.8,399.9-285.8z M398.2-283.8c0.3,0.1,0.6,0.2,0.9,0.3c0.2,0,0.4,0.1,0.6,0.1c0.2,0,0.4,0,0.6-0.1
			c0.2,0,0.3-0.1,0.5-0.2c0.1-0.1,0.3-0.2,0.3-0.4c0.1-0.2,0.1-0.4,0.1-0.6v-0.3c0,0,0-0.1,0-0.1c0,0,0-0.1,0-0.1l0-0.1h0
			c-0.2,0.2-0.4,0.4-0.6,0.5c-0.2,0.1-0.5,0.2-0.9,0.2c-0.4,0-0.7-0.1-1-0.2c-0.3-0.1-0.5-0.3-0.7-0.6c-0.2-0.3-0.4-0.5-0.5-0.9
			c-0.1-0.3-0.2-0.7-0.2-1c0-0.3,0-0.7,0.2-1c0.1-0.3,0.2-0.6,0.5-0.8c0.2-0.2,0.4-0.4,0.7-0.6c0.3-0.1,0.7-0.2,1-0.2
			c0.2,0,0.3,0,0.5,0c0.2,0,0.3,0.1,0.5,0.1c0.1,0.1,0.3,0.1,0.4,0.2c0.1,0.1,0.2,0.2,0.3,0.4h0l0-0.1c0,0,0-0.1,0-0.1
			c0-0.1,0-0.3,0.1-0.4c0.1-0.1,0.2-0.1,0.5-0.1h1.3v1h-0.5c-0.1,0-0.1,0-0.2,0.1c0,0-0.1,0.1-0.1,0.2v3.8c0,0.3,0,0.6-0.1,0.8
			c-0.1,0.2-0.2,0.5-0.3,0.6c-0.1,0.2-0.3,0.3-0.5,0.5c-0.2,0.1-0.4,0.2-0.6,0.3c-0.2,0.1-0.4,0.1-0.7,0.2c-0.6,0.1-1.1,0.1-1.7-0.1
			c-0.3-0.1-0.6-0.2-0.9-0.3L398.2-283.8L398.2-283.8z M404.5-285.5h0.8v-3.1c0-0.1,0-0.1-0.1-0.2c0,0-0.1-0.1-0.2-0.1h-0.6v-1h1.4
			c0.2,0,0.4,0,0.5,0.2c0.1,0.1,0.2,0.3,0.2,0.5v0.3c0,0.1,0,0.1,0,0.1c0,0,0,0.1,0,0.1l0,0.1h0c0.1-0.2,0.1-0.4,0.3-0.5
			c0.1-0.2,0.2-0.3,0.4-0.4c0.1-0.1,0.3-0.2,0.5-0.3c0.2-0.1,0.5-0.1,0.7-0.1l0.1,0v1.3c0,0-0.1,0-0.1,0c-0.1,0-0.2,0-0.2,0
			c-0.2,0-0.5,0-0.7,0.2c-0.2,0.1-0.4,0.3-0.5,0.4c-0.1,0.2-0.2,0.4-0.3,0.6c-0.1,0.2-0.1,0.5-0.1,0.7v1.2h0.8v1h-2.9L404.5-285.5
			L404.5-285.5z M410.8-286.1c0,0.1,0,0.2,0.1,0.3c0.1,0.2,0.2,0.3,0.4,0.4c0.1,0,0.2,0.1,0.3,0.1c0.2,0,0.3,0,0.5-0.1
			c0.1-0.1,0.3-0.2,0.4-0.3c0.1-0.1,0.2-0.3,0.3-0.5c0.1-0.2,0.1-0.3,0.1-0.5v-0.2h-0.2c-0.1,0-0.2,0-0.3,0c-0.1,0-0.3,0-0.4,0
			c-0.1,0-0.3,0-0.4,0.1c-0.1,0-0.2,0.1-0.3,0.2c-0.1,0.1-0.2,0.1-0.2,0.2C410.8-286.4,410.8-286.2,410.8-286.1 M409.5-286
			c0-0.3,0.1-0.5,0.2-0.7c0.1-0.2,0.2-0.4,0.4-0.5c0.2-0.1,0.4-0.2,0.6-0.3c0.2-0.1,0.4-0.1,0.7-0.2c0.2,0,0.4-0.1,0.6-0.1
			c0.2,0,0.4,0,0.5,0h0.3v-0.2c0-0.2,0-0.3-0.1-0.4c0-0.1-0.1-0.2-0.2-0.3c-0.1-0.1-0.2-0.1-0.3-0.2c-0.1,0-0.3-0.1-0.4-0.1
			c-0.2,0-0.4,0-0.6,0.1c-0.2,0-0.3,0.1-0.5,0.2c-0.2,0.1-0.3,0.2-0.5,0.3l-0.5-0.9c0.2-0.1,0.4-0.2,0.6-0.3
			c0.2-0.1,0.4-0.2,0.7-0.2c0.3-0.1,0.5-0.1,0.9-0.1c0.7,0,1.3,0.2,1.6,0.5c0.4,0.4,0.6,0.9,0.6,1.6v2.1c0,0.2,0.1,0.2,0.2,0.2h0.5
			v1h-1.2c-0.1,0-0.2,0-0.3,0c-0.1,0-0.1-0.1-0.2-0.1c-0.1,0-0.1-0.1-0.1-0.2c0-0.1,0-0.1,0-0.2v-0.1c0-0.1,0-0.2,0-0.3h0
			c-0.1,0.3-0.3,0.5-0.6,0.7c-0.1,0.1-0.2,0.1-0.3,0.2c-0.1,0-0.2,0.1-0.4,0.1c-0.4,0.1-0.7,0.1-1.1-0.1c-0.2-0.1-0.4-0.2-0.6-0.3
			c-0.2-0.1-0.3-0.3-0.4-0.5C409.5-285.5,409.5-285.8,409.5-286 M416.1-285.5h0.8v-3.1c0-0.1,0-0.1-0.1-0.2c0,0-0.1-0.1-0.2-0.1H416
			v-1h1.4c0.2,0,0.4,0.1,0.5,0.2c0.1,0.1,0.2,0.2,0.2,0.4v0.2c0,0,0,0.1,0,0.1c0,0,0,0.1,0,0.1l0,0.1h0c0.2-0.3,0.4-0.6,0.7-0.8
			c0.2-0.1,0.3-0.2,0.5-0.3c0.2-0.1,0.4-0.1,0.6-0.1c0.4,0,0.7,0.1,0.9,0.3c0.3,0.2,0.4,0.5,0.5,0.9h0c0.1-0.2,0.2-0.3,0.3-0.4
			c0.1-0.1,0.3-0.3,0.4-0.4s0.3-0.2,0.5-0.2c0.2-0.1,0.4-0.1,0.6-0.1c0.3,0,0.5,0,0.7,0.1c0.2,0.1,0.4,0.2,0.5,0.4
			c0.1,0.2,0.3,0.4,0.3,0.6c0.1,0.3,0.1,0.6,0.1,0.9v2.4h0.8v1h-2.1v-3.2c0-0.1,0-0.3,0-0.4c0-0.1-0.1-0.2-0.1-0.3
			c-0.1-0.1-0.1-0.2-0.2-0.2c-0.1-0.1-0.2-0.1-0.4-0.1c-0.2,0-0.4,0.1-0.6,0.2c-0.2,0.1-0.3,0.2-0.4,0.4c-0.1,0.2-0.2,0.4-0.3,0.6
			c-0.1,0.2-0.1,0.5-0.1,0.7v1.4h0.8v1h-2.1v-3.2c0-0.1,0-0.3,0-0.4c0-0.1,0-0.2-0.1-0.3c-0.1-0.1-0.1-0.2-0.2-0.2
			c-0.1-0.1-0.2-0.1-0.4-0.1c-0.2,0-0.4,0.1-0.6,0.2c-0.2,0.1-0.3,0.3-0.4,0.4c-0.1,0.2-0.2,0.4-0.2,0.6c-0.1,0.2-0.1,0.5-0.1,0.7
			v1.3h0.8v1h-2.9L416.1-285.5L416.1-285.5z"/>
		<path class="st4" d="M426.1-305.1v-0.3h0c-0.1-13.6-11-24.6-24.4-24.6c-6.6,0-12.6,2.7-17,7.1l1.2,1.4c4.1-4.1,9.6-6.6,15.8-6.6
			c12.4,0,22.4,10.2,22.6,22.7h-1.7v-0.2c0-5.7-2.3-10.9-6-14.6l-1.4,1.3c3.4,3.4,5.5,8.1,5.5,13.3v0.2h-2.2v-0.2
			c0-8.9-7-16.2-15.8-16.7v1.9c7.8,0.5,13.9,6.9,13.9,14.8v0.4h0v1.2h9.5L426.1-305.1L426.1-305.1z"/>
		<path class="st4" d="M401.7-324.5c4.4,0,8.5,1.5,11.7,4.1l1.4-1.3c-3.7-3-8.3-4.7-13.1-4.7c-11.5,0-20.8,9.3-20.8,20.8v0.2h-1.7
			c0.1-5.3,1.9-10.4,5.3-14.5l-1.2-1.4c-3.8,4.5-5.9,10.2-5.8,16.1v0.2h0.1v1h9.5v-1.5h0v-0.2c0-7.9,6.1-14.3,13.9-14.8v-1.9
			c-8.8,0.5-15.7,7.8-15.7,16.7v0.2h-2.2v-0.2C382.8-316,391.3-324.5,401.7-324.5"/>
		<path class="st4" d="M392-309l0.6,1.1l1.2,0.2l-0.9,0.9l0.2,1.2l-1.1-0.6l-1.1,0.6l0.2-1.2l-0.9-0.9l1.2-0.2L392-309z M411.4-309
			l0.6,1.1l1.2,0.2l-0.9,0.9l0.2,1.2l-1.1-0.6l-1.1,0.6l0.2-1.2l-0.9-0.9l1.2-0.2L411.4-309z"/>
	</g>
</g>
<text transform="matrix(1 0 0 1 243.631 -309.695)"><tspan x="0" y="0" class="st6" style="font-family:'Lato-Black'; font-size:18.8095px;">Machine</tspan><tspan x="0" y="22.6" class="st6" style="font-family:'Lato-Regular'; font-size:18.8095px;">Learning</tspan></text>
<g>
	<path class="st6" d="M212.6-312.8c0-7.9-4.6-14.3-10.2-14.3c-0.4,0-0.8,0-1.1,0.1c0-0.1,0-0.2,0-0.3c-1.3-3.6-6-6.2-11.4-6.6v0
		c-9.5-3-17.2,2.5-21.1,6.4c-2,2-3,4.6-3,7.3c-0.2,2.8,1.1,3.7-5.6,12.1c-4.5,5.6,1.9,6.9,1.9,6.9c-0.2,1.1-1.5,2.8-0.4,5.2l0.9,2
		c0.6,0.6,0,1.1-0.2,2.7c-0.4,2,1,3.8,3,4.1c9,1.4,9.4,1.1,9.4,1v9.6l14.8-1.4c4.8-0.3,8.8-3.5,9.8-7.6c6-0.7,10.9-6.8,10.9-13.9
		c0-1.2-0.1-2.4-0.4-3.6C211.6-305.6,212.6-309.1,212.6-312.8z M186.5-299.9c0,0.9-0.7,1.6-1.6,1.6h-14.7c-0.9,0-1.6-0.7-1.6-1.6
		v-14.7c0-0.9,0.7-1.6,1.6-1.6h14.7c0.9,0,1.6,0.7,1.6,1.6V-299.9z M199.6-287c0-0.2,0-0.3,0-0.5c0-1.6-0.4-3.2-1.3-4.6
		c-0.2-0.3-0.6-0.5-1-0.3c-0.3,0.2-0.5,0.6-0.3,1c0.7,1.2,1.1,2.5,1.1,3.9c0,4-3.7,7.5-8.3,8.1v-27.2h4.6l1.5,3.4h-2.2
		c-0.3,0-0.5,0.2-0.5,0.5v5.6c-0.6,0.2-1.1,0.8-1.1,1.5c0,0.9,0.7,1.6,1.6,1.6c0.9,0,1.6-0.7,1.6-1.6c0-0.6-0.4-1.2-0.9-1.4v-5.1
		h2.2l0.8,1.9c0.1,0.2,0.3,0.3,0.5,0.3h3.2c0.2,0.6,0.8,1.1,1.5,1.1c0.9,0,1.6-0.7,1.6-1.6c0-0.9-0.7-1.6-1.6-1.6
		c-0.6,0-1.2,0.4-1.4,1h-2.9l-0.8-1.9c0,0,0,0,0,0l-1.6-3.7h4.4c0,0,0.1,0,0.1,0c0.2,0.6,0.8,1,1.5,1c0.9,0,1.6-0.7,1.6-1.6
		s-0.7-1.6-1.6-1.6c-0.7,0-1.2,0.4-1.5,1c0,0-0.1,0-0.1,0h-10.1v-2h8.3c0.2,0,0.3-0.1,0.4-0.2l3.8-4.1c0.2,0.1,0.4,0.1,0.6,0.1
		c0.9,0,1.6-0.7,1.6-1.6c0-0.9-0.7-1.6-1.6-1.6s-1.6,0.7-1.6,1.6c0,0.3,0.1,0.5,0.2,0.7l-3.6,3.9h-8.1v-1.7h5.3
		c0.2,0,0.3-0.1,0.4-0.2l2.7-3.1c0.1,0,0.2,0,0.4,0c0.9,0,1.6-0.7,1.6-1.6c0-0.9-0.7-1.6-1.6-1.6s-1.6,0.7-1.6,1.6
		c0,0.3,0.1,0.6,0.3,0.9l-2.4,2.9h-5v-18.8c4.7,0.4,8.9,2.7,10,5.7c0,0,0,0.1,0.1,0.1c-0.9,0.3-1.8,0.8-2.6,1.4
		c-0.3,0.2-0.4,0.7-0.1,1c0.2,0.3,0.7,0.4,1,0.1c1.3-1,2.7-1.5,4.1-1.5c4.8,0,8.7,5.8,8.7,12.8c0,3-0.7,5.8-2,8.1
		c-0.4-1.1-1-2.2-1.8-3.1c-0.2-0.3-0.7-0.4-1-0.1c-0.3,0.2-0.4,0.7-0.1,1c1.6,2,2.5,4.7,2.5,7.6C208.8-293.2,204.7-287.8,199.6-287z
		"/>
	<path class="st6" d="M174.4-312.5l-3.7,10.5h2.4l0.8-2.5h3.8l0.8,2.5h2.4l-3.7-10.5H174.4z M174.4-306.4c0.7-2.4,1.2-3.9,1.4-4.5
		c0,0.2,0.1,0.4,0.2,0.7c0.1,0.3,0.5,1.6,1.2,3.8H174.4z"/>
	<rect x="182.2" y="-312.5" class="st6" width="2.2" height="10.4"/>
</g>
<g>
	<path class="st6" d="M-147-316.5c0-14.5-8.4-26.4-18.8-26.4c-0.7,0-1.4,0.1-2.1,0.2c0-0.2,0-0.4-0.1-0.5
		c-2.5-6.6-11.1-11.5-21-12.2v0c-17.6-5.5-31.8,4.6-39.1,11.9c-3.7,3.7-5.5,8.5-5.5,13.5c-0.5,5.3,2.1,6.9-10.3,22.4
		c-8.2,10.3,3.4,12.8,3.4,12.8c-0.5,2.1-2.7,5.3-0.7,9.6l1.6,3.7c1.1,1.1,0,2.1-0.5,5c-0.7,3.7,1.8,7.1,5.5,7.5
		c16.7,2.5,17.4,2.1,17.4,1.8v17.8l27.4-2.7c8.8-0.6,16.3-6.5,18.2-14c11.1-1.3,20.1-12.6,20.1-25.6c0-2.3-0.3-4.5-0.8-6.6
		C-148.8-303.2-147-309.7-147-316.5z M-195.1-292.7c0,1.7-1.4,3-3,3h-27.2c-1.7,0-3-1.4-3-3v-27.2c0-1.7,1.4-3,3-3h27.2
		c1.7,0,3,1.4,3,3V-292.7z M-171-268.9c0-0.3,0.1-0.6,0.1-0.9c0-3-0.8-5.9-2.4-8.5c-0.4-0.6-1.2-0.8-1.8-0.5
		c-0.6,0.4-0.8,1.2-0.5,1.8c1.3,2.2,2,4.7,2,7.1c0,7.4-6.9,13.9-15.2,14.9v-50.3h8.5l2.7,6.2h-4.1c-0.5,0-1,0.4-1,1v10.4
		c-1.2,0.3-2.1,1.4-2.1,2.8c0,1.6,1.3,2.9,2.9,2.9c1.6,0,2.9-1.3,2.9-2.9c0-1.2-0.7-2.2-1.7-2.6v-9.5h4l1.6,3.6
		c0.2,0.4,0.5,0.6,0.9,0.6h5.9c0.4,1.2,1.4,2,2.7,2c1.6,0,2.9-1.3,2.9-2.9c0-1.6-1.3-2.9-2.9-2.9c-1.2,0-2.2,0.7-2.7,1.8h-5.3
		l-1.6-3.6c0,0,0,0,0,0l-3-6.8h8.1c0.1,0,0.1,0,0.2,0c0.4,1.1,1.5,1.9,2.7,1.9c1.6,0,2.9-1.3,2.9-2.9c0-1.6-1.3-2.9-2.9-2.9
		c-1.2,0-2.3,0.8-2.7,1.9c-0.1,0-0.1,0-0.2,0h-18.7v-3.8h15.4c0.3,0,0.5-0.1,0.7-0.3l7-7.6c0.3,0.1,0.7,0.2,1,0.2
		c1.6,0,2.9-1.3,2.9-2.9c0-1.6-1.3-2.9-2.9-2.9s-2.9,1.3-2.9,2.9c0,0.5,0.1,1,0.4,1.4l-6.7,7.2h-14.9v-3.1h9.8
		c0.3,0,0.6-0.1,0.8-0.3l5-5.8c0.2,0.1,0.4,0.1,0.7,0.1c1.6,0,2.9-1.3,2.9-2.9c0-1.6-1.3-2.9-2.9-2.9s-2.9,1.3-2.9,2.9
		c0,0.6,0.2,1.2,0.5,1.7l-4.5,5.3h-9.3v-34.8c8.7,0.7,16.4,4.9,18.5,10.5c0,0.1,0.1,0.2,0.1,0.2c-1.7,0.6-3.2,1.4-4.7,2.6
		c-0.6,0.5-0.7,1.3-0.2,1.9c0.5,0.6,1.3,0.7,1.9,0.2c2.3-1.8,5-2.8,7.6-2.8c8.9,0,16.1,10.6,16.1,23.7c0,5.5-1.3,10.7-3.6,14.9
		c-0.8-2.1-1.9-4-3.2-5.7c-0.5-0.6-1.3-0.7-1.9-0.2c-0.6,0.5-0.7,1.3-0.2,1.9c2.9,3.7,4.5,8.7,4.5,14
		C-154-280.3-161.5-270.4-171-268.9z"/>
	<path class="st6" d="M-217.5-316l-6.8,19.4h4.4l1.4-4.6h7l1.4,4.6h4.4l-6.8-19.4H-217.5z M-217.5-304.6c1.4-4.4,2.2-7.2,2.5-8.4
		c0.1,0.3,0.2,0.7,0.4,1.3c0.2,0.5,0.9,2.9,2.2,7.1H-217.5z"/>
	<rect x="-203.2" y="-315.9" class="st6" width="4.1" height="19.3"/>
</g>
<g>
	<path class="st6" d="M-456.3-291.1c0-7.9-4.6-14.4-10.3-14.4c-0.4,0-0.8,0-1.1,0.1c0-0.1,0-0.2,0-0.3c-1.3-3.6-6.1-6.3-11.5-6.7v0
		c-9.6-3-17.3,2.5-21.3,6.5c-2,2-3,4.6-3,7.4c-0.2,2.9,1.1,3.7-5.6,12.2c-4.5,5.6,1.9,7,1.9,7c-0.2,1.1-1.5,2.9-0.4,5.2l0.9,2
		c0.6,0.6,0,1.1-0.2,2.7c-0.4,2,1,3.9,3,4.1c9.1,1.4,9.5,1.1,9.5,1v9.7l15-1.5c4.8-0.3,8.9-3.6,9.9-7.6c6.1-0.7,11-6.9,11-14
		c0-1.2-0.1-2.4-0.4-3.6C-457.3-283.9-456.3-287.4-456.3-291.1z M-482.6-278.1c0,0.9-0.7,1.6-1.6,1.6h-14.8c-0.9,0-1.6-0.7-1.6-1.6
		v-14.8c0-0.9,0.7-1.6,1.6-1.6h14.8c0.9,0,1.6,0.7,1.6,1.6V-278.1z M-469.5-265.1c0-0.2,0-0.3,0-0.5c0-1.6-0.4-3.2-1.3-4.6
		c-0.2-0.3-0.6-0.5-1-0.3c-0.3,0.2-0.5,0.7-0.3,1c0.7,1.2,1.1,2.5,1.1,3.9c0,4-3.8,7.6-8.3,8.1v-27.4h4.6l1.5,3.4h-2.2
		c-0.3,0-0.5,0.2-0.5,0.5v5.7c-0.7,0.2-1.1,0.8-1.1,1.5c0,0.9,0.7,1.6,1.6,1.6c0.9,0,1.6-0.7,1.6-1.6c0-0.6-0.4-1.2-0.9-1.4v-5.2
		h2.2l0.9,2c0.1,0.2,0.3,0.3,0.5,0.3h3.2c0.2,0.6,0.8,1.1,1.5,1.1c0.9,0,1.6-0.7,1.6-1.6c0-0.9-0.7-1.6-1.6-1.6
		c-0.7,0-1.2,0.4-1.4,1h-2.9l-0.9-2c0,0,0,0,0,0l-1.6-3.7h4.4c0,0,0.1,0,0.1,0c0.2,0.6,0.8,1,1.5,1c0.9,0,1.6-0.7,1.6-1.6
		s-0.7-1.6-1.6-1.6c-0.7,0-1.3,0.4-1.5,1c0,0-0.1,0-0.1,0h-10.2v-2.1h8.4c0.2,0,0.3-0.1,0.4-0.2l3.8-4.1c0.2,0.1,0.4,0.1,0.6,0.1
		c0.9,0,1.6-0.7,1.6-1.6c0-0.9-0.7-1.6-1.6-1.6c-0.9,0-1.6,0.7-1.6,1.6c0,0.3,0.1,0.5,0.2,0.7l-3.6,3.9h-8.2v-1.7h5.3
		c0.2,0,0.3-0.1,0.4-0.2l2.7-3.2c0.1,0,0.2,0,0.4,0c0.9,0,1.6-0.7,1.6-1.6c0-0.9-0.7-1.6-1.6-1.6s-1.6,0.7-1.6,1.6
		c0,0.3,0.1,0.6,0.3,0.9l-2.5,2.9h-5.1v-19c4.8,0.4,9,2.7,10.1,5.7c0,0,0,0.1,0.1,0.1c-0.9,0.3-1.8,0.8-2.6,1.4
		c-0.3,0.2-0.4,0.7-0.1,1c0.2,0.3,0.7,0.4,1,0.1c1.3-1,2.7-1.5,4.1-1.5c4.9,0,8.8,5.8,8.8,12.9c0,3-0.7,5.8-2,8.1
		c-0.5-1.1-1-2.2-1.8-3.1c-0.2-0.3-0.7-0.4-1-0.1c-0.3,0.2-0.4,0.7-0.1,1c1.6,2,2.5,4.7,2.5,7.6
		C-460.2-271.3-464.3-265.9-469.5-265.1z"/>
	<path class="st6" d="M-494.8-290.8l-3.7,10.6h2.4l0.8-2.5h3.8l0.8,2.5h2.4l-3.7-10.6H-494.8z M-494.8-284.6
		c0.8-2.4,1.2-3.9,1.4-4.6c0,0.2,0.1,0.4,0.2,0.7c0.1,0.3,0.5,1.6,1.2,3.9H-494.8z"/>
	<rect x="-487" y="-290.8" class="st6" width="2.2" height="10.5"/>
</g>
<g>
	<path class="st6" d="M-44.7-274.9v20.1h-4.1v-11.6c0-0.3,0-0.6,0-0.9c0-0.3,0-0.6,0.1-1l-5.3,10.4c-0.2,0.3-0.4,0.6-0.7,0.7
		s-0.6,0.2-1,0.2h-0.6c-0.4,0-0.7-0.1-1-0.2s-0.5-0.4-0.7-0.7l-5.3-10.4c0,0.3,0,0.7,0.1,1s0,0.6,0,0.9v11.6h-4.1v-20.1h3.6
		c0.2,0,0.4,0,0.5,0c0.2,0,0.3,0,0.4,0.1c0.1,0,0.2,0.1,0.3,0.2s0.2,0.2,0.3,0.4l5.2,10.2c0.2,0.4,0.4,0.7,0.5,1.1
		c0.2,0.4,0.3,0.8,0.5,1.2c0.2-0.4,0.3-0.8,0.5-1.2c0.2-0.4,0.4-0.8,0.5-1.1l5.2-10.2c0.1-0.2,0.2-0.3,0.3-0.4
		c0.1-0.1,0.2-0.2,0.3-0.2c0.1,0,0.3-0.1,0.4-0.1c0.2,0,0.3,0,0.5,0H-44.7z"/>
	<path class="st6" d="M-22.8-254.8h-3.6c-0.4,0-0.7-0.1-1-0.3s-0.4-0.4-0.6-0.7l-1.2-3.5h-7.7l-1.2,3.5c-0.1,0.3-0.3,0.5-0.5,0.7
		c-0.3,0.2-0.6,0.3-1,0.3h-3.6l7.8-20.1h4.8L-22.8-254.8z M-30.2-262.5l-1.9-5.5c-0.1-0.4-0.3-0.8-0.4-1.2c-0.2-0.5-0.3-1-0.5-1.5
		c-0.1,0.6-0.3,1.1-0.4,1.6c-0.2,0.5-0.3,0.9-0.4,1.2l-1.9,5.5H-30.2z"/>
	<path class="st6" d="M-8.3-260c0.1,0,0.2,0,0.3,0.1c0.1,0,0.2,0.1,0.3,0.2l1.9,1.9c-0.8,1.1-1.8,1.9-3,2.4s-2.7,0.8-4.3,0.8
		c-1.5,0-2.9-0.3-4.1-0.8s-2.2-1.2-3.1-2.2c-0.8-0.9-1.5-2-1.9-3.3c-0.5-1.3-0.7-2.6-0.7-4.1c0-1.5,0.2-2.9,0.7-4.1s1.2-2.3,2.1-3.3
		c0.9-0.9,1.9-1.6,3.2-2.1c1.2-0.5,2.6-0.8,4.1-0.8c0.8,0,1.5,0.1,2.1,0.2s1.3,0.3,1.9,0.6c0.6,0.2,1.1,0.5,1.6,0.9
		c0.5,0.3,0.9,0.7,1.3,1.1l-1.6,2.1c-0.1,0.1-0.2,0.2-0.4,0.4c-0.1,0.1-0.3,0.2-0.6,0.2c-0.2,0-0.3,0-0.5-0.1
		c-0.1-0.1-0.3-0.2-0.5-0.3c-0.2-0.1-0.3-0.2-0.5-0.3s-0.4-0.2-0.7-0.3c-0.3-0.1-0.6-0.2-1-0.3c-0.4-0.1-0.8-0.1-1.3-0.1
		c-0.8,0-1.5,0.1-2.1,0.4c-0.6,0.3-1.2,0.7-1.7,1.3c-0.5,0.5-0.8,1.2-1.1,2c-0.3,0.8-0.4,1.7-0.4,2.7c0,1,0.1,1.9,0.4,2.8
		s0.7,1.5,1.1,2c0.5,0.5,1,1,1.7,1.3c0.6,0.3,1.3,0.4,2.1,0.4c0.4,0,0.8,0,1.2-0.1c0.4,0,0.7-0.1,1-0.2s0.6-0.2,0.9-0.4
		c0.3-0.2,0.5-0.4,0.8-0.6c0.1-0.1,0.2-0.2,0.4-0.2C-8.5-259.9-8.4-260-8.3-260z"/>
	<path class="st6" d="M13.9-274.9v20.1H9.2v-8.5H1v8.5h-4.7v-20.1H1v8.4h8.2v-8.4H13.9z"/>
	<path class="st6" d="M22.5-254.8h-4.7v-20.1h4.7V-254.8z"/>
	<path class="st6" d="M43.9-274.9v20.1h-2.4c-0.4,0-0.7-0.1-0.9-0.2s-0.5-0.3-0.7-0.6l-9.5-12c0,0.4,0.1,0.7,0.1,1
		c0,0.3,0,0.7,0,0.9v10.8h-4.1v-20.1h2.5c0.2,0,0.4,0,0.5,0c0.1,0,0.3,0.1,0.4,0.1s0.2,0.1,0.3,0.2c0.1,0.1,0.2,0.2,0.3,0.4
		l9.6,12.1c0-0.4-0.1-0.8-0.1-1.1s0-0.7,0-1v-10.7H43.9z"/>
	<path class="st6" d="M52.5-271.3v4.7h6.3v3.5h-6.3v4.8h8.3v3.6h-13v-20.1h13v3.6H52.5z"/>
	<path class="st6" d="M-121.6-233.8v1.9h-7.9v-13.7h2.2v11.8H-121.6z"/>
	<path class="st6" d="M-111.1-233.7l0,1.8h-8.5v-13.7h8.5v1.8h-6.3v4.1h5v1.7h-5v4.2H-111.1z"/>
	<path class="st6" d="M-97.2-231.9H-99c-0.2,0-0.4,0-0.5-0.1c-0.1-0.1-0.2-0.2-0.3-0.4l-1.1-3h-5.9l-1.1,3c-0.1,0.1-0.1,0.2-0.3,0.4
		c-0.1,0.1-0.3,0.2-0.5,0.2h-1.7l5.4-13.7h2.3L-97.2-231.9z M-101.4-237l-1.9-5c-0.2-0.4-0.3-0.9-0.5-1.5c-0.1,0.3-0.1,0.6-0.2,0.8
		c-0.1,0.3-0.2,0.5-0.2,0.7l-1.9,5H-101.4z"/>
	<path class="st6" d="M-85.2-231.9h-2c-0.4,0-0.7-0.2-0.9-0.5l-3.2-4.6c-0.1-0.2-0.2-0.3-0.4-0.3c-0.1-0.1-0.3-0.1-0.6-0.1h-1.2v5.5
		h-2.2v-13.7h4c0.9,0,1.7,0.1,2.3,0.3c0.7,0.2,1.2,0.4,1.6,0.8c0.4,0.3,0.7,0.7,0.9,1.2c0.2,0.5,0.3,1,0.3,1.6
		c0,0.5-0.1,0.9-0.2,1.3c-0.1,0.4-0.3,0.8-0.6,1.1c-0.3,0.3-0.6,0.6-1,0.9c-0.4,0.2-0.8,0.4-1.3,0.6c0.3,0.2,0.5,0.4,0.7,0.7
		L-85.2-231.9z M-91.6-239c0.5,0,1-0.1,1.3-0.2s0.7-0.3,1-0.5c0.3-0.2,0.4-0.5,0.6-0.8s0.2-0.6,0.2-1c0-0.7-0.2-1.3-0.7-1.7
		s-1.2-0.6-2.2-0.6h-1.8v4.8H-91.6z"/>
	<path class="st6" d="M-72.2-245.6v13.7h-1.1c-0.2,0-0.3,0-0.4-0.1c-0.1-0.1-0.2-0.2-0.3-0.3l-7.5-9.7c0,0.2,0,0.4,0,0.5
		c0,0.2,0,0.3,0,0.5v9h-2v-13.7h1.2c0.1,0,0.2,0,0.2,0s0.1,0,0.2,0.1c0.1,0,0.1,0.1,0.2,0.1s0.1,0.1,0.2,0.2l7.5,9.7
		c0-0.2,0-0.4,0-0.6s0-0.4,0-0.5v-8.9H-72.2z"/>
	<path class="st6" d="M-66.7-231.9h-2.2v-13.7h2.2V-231.9z"/>
	<path class="st6" d="M-52.1-245.6v13.7h-1.1c-0.2,0-0.3,0-0.4-0.1c-0.1-0.1-0.2-0.2-0.3-0.3l-7.5-9.7c0,0.2,0,0.4,0,0.5
		c0,0.2,0,0.3,0,0.5v9h-2v-13.7h1.2c0.1,0,0.2,0,0.2,0s0.1,0,0.2,0.1c0.1,0,0.1,0.1,0.2,0.1s0.1,0.1,0.2,0.2l7.5,9.7
		c0-0.2,0-0.4,0-0.6s0-0.4,0-0.5v-8.9H-52.1z"/>
	<path class="st6" d="M-37.6-238.7v5.4c-1.4,1-3,1.5-4.8,1.5c-1.1,0-2.1-0.2-3-0.5s-1.7-0.8-2.3-1.4s-1.1-1.4-1.5-2.2
		c-0.3-0.9-0.5-1.8-0.5-2.8c0-1,0.2-2,0.5-2.8c0.3-0.9,0.8-1.6,1.4-2.2c0.6-0.6,1.4-1.1,2.2-1.4c0.9-0.3,1.8-0.5,2.9-0.5
		c0.6,0,1.1,0,1.5,0.1s0.9,0.2,1.3,0.4s0.8,0.3,1.1,0.6c0.3,0.2,0.7,0.5,0.9,0.7l-0.6,1c-0.1,0.2-0.2,0.3-0.4,0.3
		c-0.2,0-0.3,0-0.5-0.1c-0.2-0.1-0.4-0.2-0.6-0.3c-0.2-0.1-0.4-0.2-0.7-0.3c-0.3-0.1-0.6-0.2-0.9-0.3c-0.3-0.1-0.8-0.1-1.2-0.1
		c-0.7,0-1.4,0.1-2,0.4c-0.6,0.2-1.1,0.6-1.5,1c-0.4,0.4-0.7,1-1,1.6c-0.2,0.6-0.3,1.3-0.3,2.1c0,0.8,0.1,1.5,0.4,2.2
		c0.2,0.6,0.6,1.2,1,1.6c0.4,0.4,1,0.8,1.6,1c0.6,0.2,1.3,0.4,2.1,0.4c0.6,0,1.1-0.1,1.5-0.2c0.4-0.1,0.9-0.3,1.3-0.5v-2.7h-1.9
		c-0.1,0-0.3,0-0.3-0.1c-0.1-0.1-0.1-0.2-0.1-0.3v-1.3H-37.6z"/>
	<path class="st6" d="M-21.7-233.7l0,1.8h-8.5v-13.7h8.5v1.8H-28v4.1h5v1.7h-5v4.2H-21.7z"/>
	<path class="st6" d="M-7.9-245.6v13.7H-9c-0.2,0-0.3,0-0.4-0.1c-0.1-0.1-0.2-0.2-0.3-0.3l-7.5-9.7c0,0.2,0,0.4,0,0.5
		c0,0.2,0,0.3,0,0.5v9h-2v-13.7h1.2c0.1,0,0.2,0,0.2,0s0.1,0,0.2,0.1c0.1,0,0.1,0.1,0.2,0.1s0.1,0.1,0.2,0.2l7.5,9.7
		c0-0.2,0-0.4,0-0.6s0-0.4,0-0.5v-8.9H-7.9z"/>
	<path class="st6" d="M6.6-238.7v5.4c-1.4,1-3,1.5-4.8,1.5c-1.1,0-2.1-0.2-3-0.5s-1.7-0.8-2.3-1.4s-1.1-1.4-1.5-2.2
		c-0.3-0.9-0.5-1.8-0.5-2.8c0-1,0.2-2,0.5-2.8c0.3-0.9,0.8-1.6,1.4-2.2c0.6-0.6,1.4-1.1,2.2-1.4c0.9-0.3,1.8-0.5,2.9-0.5
		c0.6,0,1.1,0,1.5,0.1s0.9,0.2,1.3,0.4s0.8,0.3,1.1,0.6c0.3,0.2,0.7,0.5,0.9,0.7l-0.6,1c-0.1,0.2-0.2,0.3-0.4,0.3
		c-0.2,0-0.3,0-0.5-0.1c-0.2-0.1-0.4-0.2-0.6-0.3c-0.2-0.1-0.4-0.2-0.7-0.3c-0.3-0.1-0.6-0.2-0.9-0.3c-0.3-0.1-0.8-0.1-1.2-0.1
		c-0.7,0-1.4,0.1-2,0.4c-0.6,0.2-1.1,0.6-1.5,1c-0.4,0.4-0.7,1-1,1.6c-0.2,0.6-0.3,1.3-0.3,2.1c0,0.8,0.1,1.5,0.4,2.2
		c0.2,0.6,0.6,1.2,1,1.6c0.4,0.4,1,0.8,1.6,1c0.6,0.2,1.3,0.4,2.1,0.4c0.6,0,1.1-0.1,1.5-0.2c0.4-0.1,0.9-0.3,1.3-0.5v-2.7H2.7
		c-0.1,0-0.3,0-0.3-0.1c-0.1-0.1-0.1-0.2-0.1-0.3v-1.3H6.6z"/>
	<path class="st6" d="M11.5-231.9H9.2v-13.7h2.2V-231.9z"/>
	<path class="st6" d="M26.1-245.6v13.7h-1.1c-0.2,0-0.3,0-0.4-0.1c-0.1-0.1-0.2-0.2-0.3-0.3l-7.5-9.7c0,0.2,0,0.4,0,0.5
		c0,0.2,0,0.3,0,0.5v9h-2v-13.7h1.2c0.1,0,0.2,0,0.2,0s0.1,0,0.2,0.1c0.1,0,0.1,0.1,0.2,0.1s0.1,0.1,0.2,0.2l7.5,9.7
		c0-0.2,0-0.4,0-0.6s0-0.4,0-0.5v-8.9H26.1z"/>
	<path class="st6" d="M37.9-233.7l0,1.8h-8.5v-13.7h8.5v1.8h-6.3v4.1h5v1.7h-5v4.2H37.9z"/>
	<path class="st6" d="M48.9-233.7l0,1.8h-8.5v-13.7h8.5v1.8h-6.3v4.1h5v1.7h-5v4.2H48.9z"/>
	<path class="st6" d="M61.7-231.9h-2c-0.4,0-0.7-0.2-0.9-0.5l-3.2-4.6c-0.1-0.2-0.2-0.3-0.4-0.3c-0.1-0.1-0.3-0.1-0.6-0.1h-1.2v5.5
		h-2.2v-13.7h4c0.9,0,1.7,0.1,2.3,0.3c0.7,0.2,1.2,0.4,1.6,0.8c0.4,0.3,0.7,0.7,0.9,1.2c0.2,0.5,0.3,1,0.3,1.6
		c0,0.5-0.1,0.9-0.2,1.3c-0.1,0.4-0.3,0.8-0.6,1.1c-0.3,0.3-0.6,0.6-1,0.9c-0.4,0.2-0.8,0.4-1.3,0.6c0.3,0.2,0.5,0.4,0.7,0.7
		L61.7-231.9z M55.3-239c0.5,0,1-0.1,1.3-0.2s0.7-0.3,1-0.5c0.3-0.2,0.4-0.5,0.6-0.8s0.2-0.6,0.2-1c0-0.7-0.2-1.3-0.7-1.7
		s-1.2-0.6-2.2-0.6h-1.8v4.8H55.3z"/>
</g>
<text transform="matrix(1 0 0 1 -88.9327 -479.4839)"><tspan x="0" y="0" class="st6" style="font-family:'Lato-Black'; font-size:27.6449px;">Machine</tspan><tspan x="-61.2" y="22.8" class="st6" style="font-family:'Lato-Semibold'; font-size:19.041px;">Learning Engineer</tspan></text>
<g>
	<path class="st6" d="M-404-340.6v12.4h-2.5v-7.1c0-0.2,0-0.3,0-0.5c0-0.2,0-0.4,0-0.6l-3.3,6.4c-0.1,0.2-0.2,0.3-0.4,0.5
		c-0.2,0.1-0.4,0.2-0.6,0.2h-0.4c-0.2,0-0.4-0.1-0.6-0.2c-0.2-0.1-0.3-0.3-0.4-0.5l-3.3-6.4c0,0.2,0,0.4,0,0.6c0,0.2,0,0.4,0,0.5
		v7.1h-2.5v-12.4h2.2c0.1,0,0.2,0,0.3,0s0.2,0,0.3,0.1s0.1,0.1,0.2,0.1c0.1,0.1,0.1,0.1,0.2,0.3l3.2,6.3c0.1,0.2,0.2,0.4,0.3,0.7
		c0.1,0.2,0.2,0.5,0.3,0.7c0.1-0.2,0.2-0.5,0.3-0.7c0.1-0.2,0.2-0.5,0.3-0.7l3.2-6.3c0.1-0.1,0.1-0.2,0.2-0.3
		c0.1-0.1,0.1-0.1,0.2-0.1c0.1,0,0.2,0,0.3-0.1s0.2,0,0.3,0H-404z"/>
	<path class="st6" d="M-390.5-328.1h-2.2c-0.2,0-0.5-0.1-0.6-0.2s-0.3-0.3-0.3-0.4l-0.7-2.2h-4.7l-0.7,2.2c-0.1,0.2-0.2,0.3-0.3,0.4
		c-0.2,0.1-0.4,0.2-0.6,0.2h-2.2l4.8-12.4h2.9L-390.5-328.1z M-395-332.9l-1.2-3.4c-0.1-0.2-0.2-0.5-0.3-0.8c-0.1-0.3-0.2-0.6-0.3-1
		c-0.1,0.3-0.2,0.7-0.3,1c-0.1,0.3-0.2,0.6-0.3,0.8l-1.1,3.4H-395z"/>
	<path class="st6" d="M-381.5-331.4c0.1,0,0.1,0,0.2,0c0.1,0,0.1,0.1,0.2,0.1l1.1,1.2c-0.5,0.7-1.1,1.1-1.9,1.5
		c-0.8,0.3-1.6,0.5-2.7,0.5c-0.9,0-1.8-0.2-2.5-0.5c-0.7-0.3-1.4-0.8-1.9-1.3c-0.5-0.6-0.9-1.2-1.2-2s-0.4-1.6-0.4-2.5
		c0-0.9,0.2-1.8,0.5-2.6c0.3-0.8,0.7-1.4,1.3-2c0.5-0.6,1.2-1,2-1.3c0.8-0.3,1.6-0.5,2.5-0.5c0.5,0,0.9,0,1.3,0.1
		c0.4,0.1,0.8,0.2,1.2,0.3c0.4,0.1,0.7,0.3,1,0.5c0.3,0.2,0.6,0.4,0.8,0.7l-1,1.3c-0.1,0.1-0.1,0.2-0.2,0.2
		c-0.1,0.1-0.2,0.1-0.4,0.1c-0.1,0-0.2,0-0.3-0.1c-0.1,0-0.2-0.1-0.3-0.2c-0.1-0.1-0.2-0.1-0.3-0.2c-0.1-0.1-0.3-0.1-0.4-0.2
		c-0.2-0.1-0.4-0.1-0.6-0.2c-0.2,0-0.5-0.1-0.8-0.1c-0.5,0-0.9,0.1-1.3,0.3s-0.7,0.4-1,0.8c-0.3,0.3-0.5,0.8-0.7,1.2
		s-0.2,1.1-0.2,1.7c0,0.6,0.1,1.2,0.3,1.7s0.4,0.9,0.7,1.2s0.6,0.6,1,0.8s0.8,0.3,1.3,0.3c0.3,0,0.5,0,0.7,0s0.4-0.1,0.6-0.1
		s0.4-0.1,0.5-0.2c0.2-0.1,0.3-0.2,0.5-0.4c0.1-0.1,0.1-0.1,0.2-0.1C-381.7-331.3-381.6-331.4-381.5-331.4z"/>
	<path class="st6" d="M-367.9-340.6v12.4h-2.9v-5.2h-5v5.2h-2.9v-12.4h2.9v5.2h5v-5.2H-367.9z"/>
	<path class="st6" d="M-362.6-328.1h-2.9v-12.4h2.9V-328.1z"/>
	<path class="st6" d="M-349.4-340.6v12.4h-1.5c-0.2,0-0.4,0-0.6-0.1s-0.3-0.2-0.4-0.4l-5.9-7.4c0,0.2,0,0.4,0,0.6c0,0.2,0,0.4,0,0.6
		v6.7h-2.5v-12.4h1.5c0.1,0,0.2,0,0.3,0c0.1,0,0.2,0,0.2,0.1s0.1,0.1,0.2,0.1s0.1,0.1,0.2,0.2l5.9,7.5c0-0.2,0-0.5-0.1-0.7
		c0-0.2,0-0.4,0-0.6v-6.6H-349.4z"/>
	<path class="st6" d="M-344.1-338.3v2.9h3.9v2.1h-3.9v3h5.1v2.2h-8v-12.4h8v2.2H-344.1z"/>
	<path class="st6" d="M-451.4-315.2v1.2h-4.9v-8.5h1.4v7.3H-451.4z"/>
	<path class="st6" d="M-444.9-315.2l0,1.1h-5.3v-8.5h5.3v1.1h-3.9v2.5h3.1v1.1h-3.1v2.6H-444.9z"/>
	<path class="st6" d="M-436.4-314.1h-1.1c-0.1,0-0.2,0-0.3-0.1s-0.1-0.1-0.2-0.2l-0.7-1.9h-3.6l-0.7,1.9c0,0.1-0.1,0.2-0.2,0.2
		s-0.2,0.1-0.3,0.1h-1.1l3.4-8.5h1.4L-436.4-314.1z M-439-317.2l-1.2-3.1c-0.1-0.2-0.2-0.5-0.3-0.9c0,0.2-0.1,0.4-0.1,0.5
		s-0.1,0.3-0.1,0.4l-1.2,3.1H-439z"/>
	<path class="st6" d="M-428.9-314.1h-1.2c-0.2,0-0.4-0.1-0.5-0.3l-2-2.8c-0.1-0.1-0.1-0.2-0.2-0.2s-0.2-0.1-0.4-0.1h-0.8v3.4h-1.4
		v-8.5h2.5c0.6,0,1,0.1,1.4,0.2c0.4,0.1,0.7,0.3,1,0.5c0.3,0.2,0.4,0.5,0.6,0.8c0.1,0.3,0.2,0.6,0.2,1c0,0.3,0,0.6-0.1,0.8
		c-0.1,0.3-0.2,0.5-0.4,0.7c-0.2,0.2-0.4,0.4-0.6,0.5c-0.2,0.2-0.5,0.3-0.8,0.4c0.2,0.1,0.3,0.2,0.4,0.4L-428.9-314.1z
		 M-432.9-318.5c0.3,0,0.6,0,0.8-0.1c0.2-0.1,0.4-0.2,0.6-0.3s0.3-0.3,0.4-0.5s0.1-0.4,0.1-0.6c0-0.5-0.2-0.8-0.5-1.1
		c-0.3-0.2-0.8-0.4-1.4-0.4h-1.1v3H-432.9z"/>
	<path class="st6" d="M-420.9-322.5v8.5h-0.7c-0.1,0-0.2,0-0.3-0.1c-0.1,0-0.1-0.1-0.2-0.2l-4.6-6c0,0.1,0,0.2,0,0.3s0,0.2,0,0.3
		v5.6h-1.2v-8.5h0.7c0.1,0,0.1,0,0.1,0s0.1,0,0.1,0s0.1,0,0.1,0.1c0,0,0.1,0.1,0.1,0.1l4.6,6c0-0.1,0-0.2,0-0.4s0-0.2,0-0.3v-5.5
		H-420.9z"/>
	<path class="st6" d="M-417.5-314.1h-1.4v-8.5h1.4V-314.1z"/>
	<path class="st6" d="M-408.5-322.5v8.5h-0.7c-0.1,0-0.2,0-0.3-0.1c-0.1,0-0.1-0.1-0.2-0.2l-4.6-6c0,0.1,0,0.2,0,0.3s0,0.2,0,0.3
		v5.6h-1.2v-8.5h0.7c0.1,0,0.1,0,0.1,0s0.1,0,0.1,0s0.1,0,0.1,0.1c0,0,0.1,0.1,0.1,0.1l4.6,6c0-0.1,0-0.2,0-0.4s0-0.2,0-0.3v-5.5
		H-408.5z"/>
	<path class="st6" d="M-399.6-318.2v3.3c-0.8,0.6-1.8,0.9-2.9,0.9c-0.7,0-1.3-0.1-1.9-0.3c-0.6-0.2-1-0.5-1.4-0.9
		c-0.4-0.4-0.7-0.8-0.9-1.4c-0.2-0.5-0.3-1.1-0.3-1.7c0-0.6,0.1-1.2,0.3-1.8s0.5-1,0.9-1.4c0.4-0.4,0.8-0.7,1.4-0.9
		c0.5-0.2,1.1-0.3,1.8-0.3c0.3,0,0.7,0,0.9,0.1c0.3,0.1,0.6,0.1,0.8,0.2c0.2,0.1,0.5,0.2,0.7,0.3s0.4,0.3,0.6,0.4l-0.4,0.6
		c-0.1,0.1-0.1,0.2-0.2,0.2s-0.2,0-0.3-0.1c-0.1-0.1-0.2-0.1-0.4-0.2s-0.3-0.1-0.4-0.2s-0.4-0.1-0.6-0.2c-0.2,0-0.5-0.1-0.8-0.1
		c-0.4,0-0.8,0.1-1.2,0.2c-0.4,0.1-0.7,0.4-0.9,0.6c-0.3,0.3-0.5,0.6-0.6,1c-0.1,0.4-0.2,0.8-0.2,1.3c0,0.5,0.1,1,0.2,1.4
		c0.1,0.4,0.4,0.7,0.6,1c0.3,0.3,0.6,0.5,1,0.6c0.4,0.1,0.8,0.2,1.3,0.2c0.3,0,0.7,0,0.9-0.1c0.3-0.1,0.5-0.2,0.8-0.3v-1.7h-1.2
		c-0.1,0-0.2,0-0.2-0.1s-0.1-0.1-0.1-0.2v-0.8H-399.6z"/>
	<path class="st6" d="M-389.8-315.2l0,1.1h-5.3v-8.5h5.3v1.1h-3.9v2.5h3.1v1.1h-3.1v2.6H-389.8z"/>
	<path class="st6" d="M-381.3-322.5v8.5h-0.7c-0.1,0-0.2,0-0.3-0.1c-0.1,0-0.1-0.1-0.2-0.2l-4.6-6c0,0.1,0,0.2,0,0.3s0,0.2,0,0.3
		v5.6h-1.2v-8.5h0.7c0.1,0,0.1,0,0.1,0s0.1,0,0.1,0s0.1,0,0.1,0.1c0,0,0.1,0.1,0.1,0.1l4.6,6c0-0.1,0-0.2,0-0.4s0-0.2,0-0.3v-5.5
		H-381.3z"/>
	<path class="st6" d="M-372.4-318.2v3.3c-0.8,0.6-1.8,0.9-2.9,0.9c-0.7,0-1.3-0.1-1.9-0.3c-0.6-0.2-1-0.5-1.4-0.9
		c-0.4-0.4-0.7-0.8-0.9-1.4c-0.2-0.5-0.3-1.1-0.3-1.7c0-0.6,0.1-1.2,0.3-1.8s0.5-1,0.9-1.4c0.4-0.4,0.8-0.7,1.4-0.9
		c0.5-0.2,1.1-0.3,1.8-0.3c0.3,0,0.7,0,0.9,0.1c0.3,0.1,0.6,0.1,0.8,0.2c0.2,0.1,0.5,0.2,0.7,0.3s0.4,0.3,0.6,0.4l-0.4,0.6
		c-0.1,0.1-0.1,0.2-0.2,0.2s-0.2,0-0.3-0.1c-0.1-0.1-0.2-0.1-0.4-0.2s-0.3-0.1-0.4-0.2s-0.4-0.1-0.6-0.2c-0.2,0-0.5-0.1-0.8-0.1
		c-0.4,0-0.8,0.1-1.2,0.2c-0.4,0.1-0.7,0.4-0.9,0.6c-0.3,0.3-0.5,0.6-0.6,1c-0.1,0.4-0.2,0.8-0.2,1.3c0,0.5,0.1,1,0.2,1.4
		c0.1,0.4,0.4,0.7,0.6,1c0.3,0.3,0.6,0.5,1,0.6c0.4,0.1,0.8,0.2,1.3,0.2c0.3,0,0.7,0,0.9-0.1c0.3-0.1,0.5-0.2,0.8-0.3v-1.7h-1.2
		c-0.1,0-0.2,0-0.2-0.1s-0.1-0.1-0.1-0.2v-0.8H-372.4z"/>
	<path class="st6" d="M-369.4-314.1h-1.4v-8.5h1.4V-314.1z"/>
	<path class="st6" d="M-360.4-322.5v8.5h-0.7c-0.1,0-0.2,0-0.3-0.1c-0.1,0-0.1-0.1-0.2-0.2l-4.6-6c0,0.1,0,0.2,0,0.3s0,0.2,0,0.3
		v5.6h-1.2v-8.5h0.7c0.1,0,0.1,0,0.1,0s0.1,0,0.1,0s0.1,0,0.1,0.1c0,0,0.1,0.1,0.1,0.1l4.6,6c0-0.1,0-0.2,0-0.4s0-0.2,0-0.3v-5.5
		H-360.4z"/>
	<path class="st6" d="M-353.1-315.2l0,1.1h-5.3v-8.5h5.3v1.1h-3.9v2.5h3.1v1.1h-3.1v2.6H-353.1z"/>
	<path class="st6" d="M-346.3-315.2l0,1.1h-5.3v-8.5h5.3v1.1h-3.9v2.5h3.1v1.1h-3.1v2.6H-346.3z"/>
	<path class="st6" d="M-338.4-314.1h-1.2c-0.2,0-0.4-0.1-0.5-0.3l-2-2.8c-0.1-0.1-0.1-0.2-0.2-0.2s-0.2-0.1-0.4-0.1h-0.8v3.4h-1.4
		v-8.5h2.5c0.6,0,1,0.1,1.4,0.2c0.4,0.1,0.7,0.3,1,0.5c0.3,0.2,0.4,0.5,0.6,0.8c0.1,0.3,0.2,0.6,0.2,1c0,0.3,0,0.6-0.1,0.8
		c-0.1,0.3-0.2,0.5-0.4,0.7c-0.2,0.2-0.4,0.4-0.6,0.5c-0.2,0.2-0.5,0.3-0.8,0.4c0.2,0.1,0.3,0.2,0.4,0.4L-338.4-314.1z
		 M-342.4-318.5c0.3,0,0.6,0,0.8-0.1c0.2-0.1,0.4-0.2,0.6-0.3s0.3-0.3,0.4-0.5s0.1-0.4,0.1-0.6c0-0.5-0.2-0.8-0.5-1.1
		c-0.3-0.2-0.8-0.4-1.4-0.4h-1.1v3H-342.4z"/>
</g>
<defs>
	<filter id="Adobe_OpacityMaskFilter" filterUnits="userSpaceOnUse" x="-149.2" y="20.5" width="71.2" height="69.1">
		<feColorMatrix  type="matrix" values="1 0 0 0 0  0 1 0 0 0  0 0 1 0 0  0 0 0 1 0"/>
	</filter>
</defs>
<mask maskUnits="userSpaceOnUse" x="-149.2" y="20.5" width="71.2" height="69.1" id="c_1_">
	<g class="st7">
		<path id="b_1_" class="st4" d="M-501.4,128.5h464.9V-16.8h-464.9V128.5z"/>
	</g>
</mask>
<g class="st8">
	<path class="st4" d="M-113.8,37.5l3.5,7l7.8,1.1l-5.6,5.5l1.3,7.7l-7-3.7l-7,3.7l1.3-7.7l-5.6-5.5l7.8-1.1L-113.8,37.5z
		 M-149.2,71.3h1.4v-5.5c0-0.1,0-0.2-0.1-0.3c-0.1-0.1-0.2-0.1-0.3-0.1h-1.1v-1.8h2.5c0.4,0,0.7,0.1,0.9,0.3
		c0.2,0.2,0.3,0.4,0.3,0.8v0.4c0,0.1,0,0.1,0,0.2l0,0.1l0,0.1h0c0.3-0.6,0.7-1,1.2-1.4c0.3-0.2,0.6-0.4,0.9-0.5
		c0.3-0.1,0.7-0.2,1.1-0.2c0.7,0,1.2,0.2,1.7,0.5c0.5,0.3,0.8,0.8,1,1.6h0c0.1-0.3,0.3-0.5,0.5-0.8c0.7-0.8,1.7-1.3,2.8-1.3
		c0.5,0,0.9,0.1,1.3,0.2c0.4,0.1,0.7,0.4,1,0.7c0.3,0.3,0.5,0.7,0.6,1.1c0.1,0.4,0.2,1,0.2,1.6v4.3h1.4v1.8h-3.7v-5.6
		c0-0.3,0-0.5,0-0.7c0-0.2-0.1-0.4-0.2-0.6c-0.1-0.2-0.2-0.3-0.4-0.4c-0.2-0.1-0.4-0.2-0.7-0.1c-0.4,0-0.8,0.1-1.1,0.3
		c-0.3,0.2-0.6,0.4-0.7,0.7c-0.2,0.3-0.4,0.7-0.4,1.1c-0.1,0.4-0.2,0.8-0.1,1.3v2.4h1.4v1.8h-3.7v-5.6c0-0.3,0-0.5,0-0.7
		c0-0.2-0.1-0.4-0.2-0.6c-0.1-0.2-0.2-0.3-0.4-0.4c-0.2-0.1-0.4-0.2-0.7-0.2c-0.4,0-0.8,0.1-1.1,0.3c-0.3,0.2-0.6,0.5-0.8,0.8
		c-0.2,0.3-0.4,0.7-0.4,1.1c-0.1,0.4-0.1,0.8-0.1,1.2v2.3h1.3v1.8h-5.1L-149.2,71.3L-149.2,71.3z M-128.7,70.2c0,0.2,0,0.3,0.1,0.5
		c0.1,0.3,0.4,0.6,0.7,0.7c0.2,0.1,0.4,0.1,0.6,0.1c0.3,0,0.6-0.1,0.9-0.2c0.3-0.2,0.5-0.4,0.7-0.6c0.2-0.2,0.3-0.5,0.5-0.8
		c0.1-0.3,0.2-0.6,0.2-0.9v-0.3h-0.4c-0.2,0-0.3,0-0.6,0c-0.2,0-0.5,0-0.7,0.1c-0.2,0-0.5,0.1-0.7,0.2c-0.2,0.1-0.4,0.2-0.6,0.3
		c-0.2,0.1-0.3,0.3-0.4,0.4C-128.7,69.8-128.7,70-128.7,70.2 M-131.1,70.4c0-0.5,0.1-0.9,0.3-1.2c0.2-0.3,0.4-0.6,0.7-0.9
		c0.3-0.2,0.7-0.4,1-0.6c0.4-0.1,0.8-0.2,1.2-0.3c0.4-0.1,0.8-0.1,1.1-0.1c0.4,0,0.7,0,0.9,0h0.6v-0.3c0-0.3,0-0.6-0.1-0.8
		c-0.1-0.2-0.2-0.4-0.4-0.5c-0.2-0.1-0.4-0.2-0.6-0.3c-0.2-0.1-0.5-0.1-0.7-0.1c-0.4,0-0.7,0-1,0.1c-0.3,0.1-0.6,0.2-0.8,0.3
		c-0.3,0.1-0.5,0.3-0.8,0.5l-0.9-1.6c0.3-0.2,0.7-0.4,1-0.6c0.3-0.1,0.7-0.3,1.2-0.4c0.5-0.1,1-0.2,1.5-0.2c1.3,0,2.2,0.3,2.9,1
		c0.7,0.6,1,1.6,1,2.8v3.8c0,0.3,0.1,0.4,0.4,0.4h0.8v1.8h-2.2c-0.2,0-0.4,0-0.6-0.1c-0.1,0-0.3-0.1-0.4-0.2
		c-0.1-0.1-0.2-0.2-0.2-0.3c0-0.1-0.1-0.3-0.1-0.4V72c0-0.2,0-0.3,0.1-0.5h0c-0.2,0.3-0.4,0.6-0.7,0.9c-0.1,0.1-0.3,0.2-0.4,0.3
		c-0.2,0.1-0.3,0.2-0.5,0.3c-0.4,0.2-0.9,0.3-1.4,0.3c-0.4,0-0.8-0.1-1.2-0.2c-0.4-0.1-0.7-0.3-1-0.5c-0.3-0.2-0.5-0.6-0.7-0.9
		C-131,71.3-131.1,70.9-131.1,70.4 M-120.5,69.9h2v0.6c0,0.2,0,0.3,0.1,0.4c0.1,0.1,0.2,0.2,0.4,0.3c0.2,0.1,0.4,0.1,0.6,0.2
		c0.2,0,0.5,0.1,0.7,0.1c0.5,0,0.9-0.1,1.2-0.2c0.3-0.2,0.5-0.4,0.5-0.7c0-0.2,0-0.4-0.2-0.5c-0.1-0.1-0.3-0.3-0.4-0.4
		c-0.2-0.1-0.4-0.2-0.7-0.3c-0.3-0.1-0.6-0.2-0.9-0.3c-0.4-0.1-0.7-0.3-1-0.4c-0.3-0.1-0.7-0.3-1-0.6c-0.3-0.2-0.5-0.5-0.7-0.8
		c-0.2-0.4-0.3-0.7-0.3-1.1c0-0.5,0.1-0.9,0.3-1.3c0.2-0.3,0.5-0.6,0.9-0.8c0.4-0.2,0.8-0.4,1.2-0.5c0.4-0.1,0.9-0.1,1.3-0.1
		c0.3,0,0.7,0,1.1,0.1c0.4,0.1,0.8,0.2,1.1,0.3c0.3,0.2,0.6,0.4,0.8,0.6c0.2,0.2,0.3,0.6,0.3,0.9v1.2h-2V66c0-0.2-0.1-0.4-0.4-0.6
		c-0.3-0.1-0.6-0.2-1-0.2c-0.2,0-0.4,0-0.5,0c-0.2,0-0.3,0.1-0.4,0.2c-0.1,0.1-0.2,0.2-0.3,0.3c-0.1,0.1-0.1,0.2-0.1,0.4
		c0,0.2,0.1,0.4,0.2,0.5c0.1,0.1,0.3,0.3,0.4,0.4c0.2,0.1,0.4,0.2,0.6,0.3c0.2,0.1,0.5,0.2,0.8,0.2c0.4,0.1,0.7,0.2,1.1,0.4
		c0.4,0.1,0.7,0.3,1,0.5c0.3,0.2,0.5,0.5,0.7,0.8c0.2,0.3,0.3,0.7,0.3,1.2c0,0.5-0.1,0.9-0.3,1.2c-0.2,0.4-0.5,0.7-0.9,0.9
		c-0.4,0.2-0.8,0.4-1.3,0.5c-0.9,0.2-1.9,0.2-2.9,0c-0.4-0.1-0.8-0.2-1.2-0.4c-0.3-0.2-0.7-0.4-0.9-0.7c-0.2-0.3-0.4-0.6-0.4-1
		L-120.5,69.9L-120.5,69.9z M-110.2,65.4h-1.4v-1.8h1.5v-2.6h2.3v2.6h2.1v1.8h-2.1v4c0,0.4,0.1,0.7,0.2,1c0.2,0.4,0.6,0.7,1.1,0.8
		c0.2,0,0.4,0.1,0.6,0.1h0.2c0,0,0.1,0,0.1,0c0,0,0.1,0,0.1,0v1.9c-0.2,0-0.5,0.1-0.7,0.1c-0.2,0-0.5,0-0.8,0
		c-0.3,0-0.6-0.1-0.9-0.2c-0.3-0.1-0.6-0.2-0.9-0.4c-0.3-0.2-0.5-0.4-0.7-0.6c-0.2-0.3-0.4-0.6-0.5-1c-0.1-0.4-0.2-0.9-0.2-1.4
		L-110.2,65.4L-110.2,65.4z M-97.8,67.3c0-0.3-0.1-0.6-0.2-0.9c-0.1-0.2-0.2-0.5-0.4-0.6c-0.3-0.4-0.8-0.6-1.3-0.5
		c-0.3,0-0.6,0-0.8,0.1c-0.2,0.1-0.5,0.2-0.7,0.4c-0.2,0.2-0.4,0.4-0.5,0.7c-0.1,0.3-0.2,0.5-0.3,0.8
		C-101.9,67.3-97.8,67.3-97.8,67.3z M-104.4,68.4c0-0.7,0.1-1.4,0.4-2c0.2-0.6,0.6-1.1,1-1.6c0.4-0.4,0.9-0.8,1.5-1
		c0.6-0.2,1.3-0.4,1.9-0.4c0.7,0,1.3,0.1,1.8,0.3c0.5,0.2,1,0.5,1.3,1c0.4,0.4,0.6,0.9,0.8,1.4c0.2,0.6,0.3,1.3,0.3,2l0,0.3
		c0,0.1,0,0.2,0,0.3h-6.5c0,0.4,0.1,0.8,0.3,1.1c0.3,0.6,0.8,1.1,1.5,1.3c0.3,0.1,0.7,0.2,1,0.2c0.4,0,0.7-0.1,1.1-0.2
		c0.3-0.1,0.6-0.2,0.9-0.3c0.3-0.1,0.6-0.3,0.8-0.5l0.9,1.7c-0.3,0.2-0.6,0.5-1,0.7c-0.4,0.2-0.8,0.3-1.2,0.5
		c-0.5,0.1-1,0.2-1.6,0.2c-0.8,0-1.5-0.1-2.1-0.4c-0.6-0.2-1.1-0.6-1.6-1.1c-0.4-0.5-0.8-1-1-1.6C-104.2,69.7-104.4,69-104.4,68.4
		L-104.4,68.4z M-93.8,71.3h1.4v-5.5c0-0.1,0-0.2-0.1-0.3c-0.1-0.1-0.2-0.1-0.3-0.1h-1.1v-1.8h2.5c0.4,0,0.7,0.1,0.9,0.3
		c0.2,0.2,0.3,0.5,0.3,0.9v0.6c0,0.1,0,0.3,0,0.4l0,0.2h0c0.1-0.3,0.3-0.7,0.4-0.9c0.2-0.3,0.4-0.5,0.7-0.8c0.3-0.2,0.5-0.4,0.9-0.5
		c0.4-0.1,0.8-0.2,1.2-0.2c0.1,0,0.1,0,0.1,0l0.1,0v2.3l-0.2,0c-0.6-0.1-1.1,0-1.6,0.3c-0.3,0.2-0.6,0.4-0.9,0.8
		c-0.2,0.3-0.4,0.7-0.5,1.1c-0.1,0.4-0.2,0.8-0.2,1.3v2h1.3v1.8h-5.1L-93.8,71.3L-93.8,71.3z M-85.8,69.9h2v0.6c0,0.2,0,0.3,0.1,0.4
		c0.1,0.1,0.2,0.2,0.4,0.3c0.2,0.1,0.4,0.1,0.6,0.2c0.2,0,0.5,0.1,0.7,0.1c0.5,0,0.9-0.1,1.2-0.2c0.3-0.2,0.5-0.4,0.5-0.7
		c0-0.2,0-0.4-0.2-0.5c-0.1-0.1-0.3-0.3-0.4-0.4c-0.2-0.1-0.4-0.2-0.7-0.3c-0.3-0.1-0.6-0.2-0.9-0.3c-0.4-0.1-0.7-0.3-1-0.4
		c-0.3-0.1-0.7-0.3-1-0.6c-0.3-0.2-0.5-0.5-0.7-0.8c-0.2-0.3-0.3-0.7-0.3-1.1c0-0.5,0.1-0.9,0.3-1.3c0.2-0.3,0.5-0.6,0.9-0.8
		c0.4-0.2,0.8-0.4,1.2-0.5c0.4-0.1,0.9-0.1,1.3-0.1c0.3,0,0.7,0,1.1,0.1c0.4,0.1,0.8,0.2,1.1,0.3c0.3,0.2,0.6,0.4,0.8,0.6
		c0.2,0.2,0.3,0.6,0.3,0.9v1.2h-2V66c0-0.2-0.1-0.4-0.4-0.6c-0.3-0.1-0.6-0.2-1-0.2c-0.2,0-0.4,0-0.5,0c-0.2,0-0.3,0.1-0.4,0.2
		c-0.1,0.1-0.2,0.2-0.3,0.3c-0.1,0.1-0.1,0.2-0.1,0.4c0,0.2,0.1,0.4,0.2,0.5c0.1,0.1,0.3,0.3,0.4,0.4c0.2,0.1,0.4,0.2,0.6,0.3
		c0.2,0.1,0.5,0.2,0.8,0.2c0.4,0.1,0.7,0.2,1.1,0.4c0.4,0.1,0.7,0.3,1,0.5c0.3,0.2,0.5,0.5,0.7,0.8c0.2,0.3,0.3,0.7,0.3,1.2
		c0,0.5-0.1,0.9-0.3,1.2c-0.2,0.4-0.5,0.7-0.9,0.9c-0.4,0.2-0.8,0.4-1.3,0.5c-0.9,0.2-1.9,0.2-2.9,0c-0.4-0.1-0.8-0.2-1.2-0.4
		c-0.3-0.2-0.7-0.4-0.9-0.7c-0.2-0.3-0.4-0.6-0.4-1L-85.8,69.9L-85.8,69.9z M-145.5,82.7c0,0.3,0,0.6,0.1,0.9
		c0.1,0.3,0.2,0.5,0.4,0.8c0.2,0.2,0.4,0.4,0.6,0.5c0.2,0.1,0.5,0.2,0.8,0.2c0.5,0,1-0.2,1.4-0.6c0.2-0.2,0.3-0.5,0.4-0.7
		c0.1-0.3,0.2-0.6,0.2-1c0-0.3,0-0.7-0.1-1c-0.1-0.3-0.2-0.5-0.4-0.8c-0.2-0.2-0.4-0.4-0.6-0.5c-0.5-0.2-1-0.2-1.5,0
		c-0.2,0.1-0.4,0.2-0.6,0.4c-0.2,0.2-0.3,0.5-0.4,0.8C-145.4,81.9-145.5,82.3-145.5,82.7L-145.5,82.7z M-147.3,88.1v-7.5
		c0-0.2-0.1-0.3-0.3-0.3h-0.9v-1.4h2c0.2,0,0.3,0,0.4,0.1c0.1,0,0.2,0.1,0.3,0.2c0.1,0.1,0.1,0.1,0.2,0.2s0,0.2,0,0.3v0
		c0,0,0,0.1,0,0.1l0,0.1c0,0,0,0.1,0,0.1h0c0.1-0.2,0.3-0.5,0.6-0.6c0.1-0.1,0.2-0.2,0.3-0.2c0.1-0.1,0.3-0.1,0.4-0.2
		c0.4-0.1,0.8-0.2,1.2-0.2c0.5,0,1,0.1,1.4,0.3c0.4,0.2,0.8,0.5,1.1,0.8c0.3,0.4,0.5,0.8,0.7,1.3c0.2,0.5,0.2,1,0.2,1.6
		c0,0.6-0.1,1.2-0.3,1.7c-0.2,0.5-0.4,0.9-0.7,1.3c-0.3,0.3-0.7,0.6-1.1,0.8c-0.4,0.2-0.9,0.3-1.4,0.3c-0.3,0-0.7,0-1-0.2
		c-0.2-0.1-0.5-0.2-0.7-0.4c-0.2-0.2-0.4-0.3-0.5-0.5h0c0,0.1,0,0.1,0,0.2l0,0.2c0,0.1,0,0.2,0,0.3v1.8h1.1v1.4h-4.2v-1.4
		L-147.3,88.1L-147.3,88.1z M-137.7,85.1h1.1v-4.5c0-0.1,0-0.2-0.1-0.2c-0.1-0.1-0.2-0.1-0.2-0.1h-0.9v-1.4h2c0.3,0,0.6,0.1,0.8,0.2
		c0.2,0.1,0.3,0.4,0.3,0.7v0.5c0,0.1,0,0.1,0,0.2c0,0.1,0,0.1,0,0.1l0,0.1h0c0.1-0.3,0.2-0.5,0.4-0.8c0.1-0.2,0.3-0.4,0.5-0.6
		c0.2-0.2,0.4-0.3,0.7-0.4c0.3-0.1,0.7-0.2,1.1-0.1l0.1,0v1.9c0,0-0.1,0-0.1,0c-0.1,0-0.2,0-0.3,0c-0.4,0-0.7,0.1-1,0.2
		c-0.3,0.2-0.5,0.4-0.7,0.6c-0.2,0.3-0.3,0.6-0.4,0.9c-0.1,0.3-0.1,0.7-0.1,1v1.7h1.1v1.4h-4.1L-137.7,85.1L-137.7,85.1z
		 M-128.4,82.6c0,0.4,0.1,0.7,0.2,1c0.2,0.6,0.7,1,1.2,1.2c0.3,0.1,0.6,0.2,0.9,0.2c0.6,0,1.2-0.2,1.6-0.7c0.2-0.2,0.4-0.5,0.5-0.8
		c0.1-0.3,0.2-0.6,0.2-1c0-0.4-0.1-0.7-0.2-1c-0.5-1.2-1.8-1.7-2.9-1.3c-0.3,0.1-0.6,0.3-0.8,0.5c-0.2,0.2-0.4,0.5-0.5,0.8
		C-128.4,82-128.4,82.3-128.4,82.6 M-130.4,82.6c0-1.1,0.4-2.2,1.2-2.9c0.4-0.4,0.8-0.6,1.3-0.8c0.5-0.2,1.1-0.3,1.6-0.3
		c0.6,0,1.1,0.1,1.7,0.3c0.5,0.2,1,0.5,1.4,0.8c0.4,0.4,0.7,0.8,0.9,1.3c0.2,0.5,0.3,1,0.3,1.6c0,0.6-0.1,1.1-0.3,1.6
		c-0.2,0.5-0.5,0.9-0.9,1.3c-0.4,0.4-0.8,0.6-1.3,0.8c-0.5,0.2-1.1,0.3-1.7,0.3c-0.6,0-1.1-0.1-1.7-0.3c-0.5-0.2-1-0.5-1.3-0.8
		c-0.4-0.4-0.7-0.8-0.9-1.3C-130.3,83.8-130.4,83.2-130.4,82.6 M-116.2,84.7c0.2,0,0.4,0,0.7-0.1c0.2-0.1,0.4-0.2,0.6-0.4
		c0.2-0.2,0.3-0.4,0.4-0.7c0.1-0.3,0.2-0.7,0.2-1.1c0-0.4-0.1-0.8-0.2-1.1c-0.1-0.3-0.2-0.5-0.4-0.7c-0.2-0.2-0.4-0.3-0.6-0.4
		c-0.2-0.1-0.5-0.1-0.7-0.1c-0.3,0-0.5,0-0.8,0.2c-0.2,0.1-0.4,0.2-0.6,0.4c-0.2,0.2-0.3,0.4-0.4,0.7c-0.1,0.3-0.1,0.6-0.1,0.9
		c0,0.3,0,0.6,0.1,0.9c0.1,0.3,0.2,0.5,0.4,0.7c0.2,0.2,0.4,0.4,0.6,0.5C-116.8,84.7-116.5,84.7-116.2,84.7z M-118.8,87.6
		c0.4,0.2,0.8,0.4,1.3,0.4c0.3,0.1,0.5,0.1,0.8,0.1s0.6,0,0.8-0.1c0.3-0.1,0.5-0.2,0.7-0.3c0.2-0.2,0.4-0.4,0.5-0.6
		c0.1-0.2,0.2-0.5,0.2-0.9v-0.5c0,0,0-0.1,0-0.1c0,0,0-0.1,0-0.1l0-0.1h0c-0.2,0.3-0.5,0.6-0.9,0.8c-0.3,0.2-0.8,0.3-1.3,0.3
		c-0.6,0-1.1-0.1-1.5-0.3c-0.4-0.2-0.8-0.5-1.1-0.8c-0.3-0.4-0.5-0.8-0.7-1.2c-0.2-0.5-0.2-1-0.2-1.5c0-0.5,0.1-1,0.2-1.5
		c0.1-0.4,0.4-0.9,0.7-1.2c0.3-0.3,0.6-0.6,1.1-0.8c0.5-0.2,1-0.3,1.5-0.3c0.2,0,0.5,0,0.7,0.1c0.2,0,0.5,0.1,0.7,0.2
		c0.2,0.1,0.4,0.2,0.6,0.4c0.2,0.1,0.3,0.3,0.4,0.5h0l0-0.1c0-0.1,0-0.1,0-0.2c0-0.2,0.1-0.4,0.2-0.5c0.1-0.1,0.4-0.2,0.7-0.2h1.9
		v1.4h-0.7c-0.1,0-0.2,0-0.2,0.1c-0.1,0.1-0.1,0.1-0.1,0.2V86c0,0.4-0.1,0.8-0.2,1.2c-0.1,0.3-0.3,0.7-0.4,0.9
		c-0.2,0.3-0.4,0.5-0.7,0.7c-0.3,0.2-0.5,0.3-0.8,0.5c-0.3,0.1-0.6,0.2-0.9,0.3c-0.8,0.1-1.7,0.1-2.5-0.1c-0.4-0.1-0.9-0.3-1.3-0.5
		L-118.8,87.6L-118.8,87.6z M-109.6,85.1h1.1v-4.5c0-0.1,0-0.2-0.1-0.2c-0.1-0.1-0.2-0.1-0.2-0.1h-0.9v-1.4h2c0.3,0,0.6,0.1,0.8,0.2
		c0.2,0.1,0.3,0.4,0.3,0.7v0.5c0,0.1,0,0.1,0,0.2c0,0.1,0,0.1,0,0.1l0,0.1h0c0.1-0.3,0.2-0.5,0.4-0.8c0.1-0.2,0.3-0.4,0.5-0.6
		c0.2-0.2,0.4-0.3,0.7-0.4c0.3-0.1,0.7-0.2,1.1-0.1l0.1,0v1.9c0,0-0.1,0-0.1,0c-0.1,0-0.2,0-0.3,0c-0.4,0-0.7,0.1-1,0.2
		c-0.3,0.2-0.5,0.4-0.7,0.6c-0.2,0.3-0.3,0.6-0.4,0.9c-0.1,0.3-0.1,0.7-0.1,1v1.7h1.1v1.4h-4.1L-109.6,85.1L-109.6,85.1z
		 M-100.4,84.2c0,0.1,0,0.3,0.1,0.4c0.1,0.3,0.3,0.5,0.6,0.6c0.2,0.1,0.3,0.1,0.5,0.1c0.3,0,0.5-0.1,0.7-0.2
		c0.2-0.1,0.4-0.3,0.6-0.5c0.2-0.2,0.3-0.4,0.4-0.7c0.1-0.2,0.1-0.5,0.1-0.7v-0.3h-0.3c-0.2,0-0.3,0-0.5,0c-0.2,0-0.4,0-0.6,0.1
		c-0.2,0-0.4,0.1-0.6,0.1c-0.2,0.1-0.3,0.1-0.5,0.2c-0.1,0.1-0.3,0.2-0.4,0.4C-100.4,83.8-100.4,84-100.4,84.2 M-102.4,84.3
		c0-0.4,0.1-0.7,0.2-1c0.2-0.3,0.4-0.5,0.6-0.7c0.3-0.2,0.5-0.3,0.9-0.5c0.3-0.1,0.6-0.2,1-0.3c0.3-0.1,0.6-0.1,0.9-0.1
		c0.3,0,0.5,0,0.8,0h0.5v-0.3c0-0.2,0-0.5-0.1-0.6c-0.1-0.2-0.2-0.3-0.3-0.4c-0.1-0.1-0.3-0.2-0.5-0.2c-0.2,0-0.4-0.1-0.6-0.1
		c-0.3,0-0.6,0-0.8,0.1c-0.2,0.1-0.5,0.2-0.7,0.3c-0.2,0.1-0.4,0.2-0.7,0.4l-0.7-1.3c0.2-0.2,0.5-0.3,0.8-0.5c0.3-0.1,0.6-0.2,1-0.3
		c0.4-0.1,0.8-0.2,1.3-0.2c1,0,1.8,0.3,2.4,0.8c0.5,0.5,0.8,1.3,0.8,2.3v3.1c0,0.2,0.1,0.3,0.3,0.3h0.7v1.4h-1.8
		c-0.2,0-0.3,0-0.5-0.1c-0.1,0-0.2-0.1-0.3-0.2c-0.1-0.1-0.1-0.2-0.2-0.3c0-0.1-0.1-0.2-0.1-0.3v-0.1c0-0.1,0-0.3,0-0.4h0
		c-0.2,0.4-0.5,0.8-0.9,1c-0.1,0.1-0.3,0.2-0.4,0.2c-0.2,0.1-0.3,0.1-0.5,0.2c-0.5,0.1-1.1,0.1-1.6-0.1c-0.3-0.1-0.6-0.2-0.8-0.4
		c-0.2-0.2-0.4-0.5-0.6-0.7C-102.3,85-102.4,84.7-102.4,84.3 M-92.8,85.1h1.1v-4.5c0-0.1,0-0.2-0.1-0.2c-0.1-0.1-0.2-0.1-0.2-0.1
		h-0.9v-1.4h2c0.3,0,0.6,0.1,0.8,0.2c0.2,0.1,0.3,0.4,0.3,0.6V80c0,0,0,0.1,0,0.1c0,0,0,0.1,0,0.1l0,0.1h0c0.2-0.5,0.6-0.8,1-1.2
		c0.2-0.2,0.5-0.3,0.7-0.4c0.3-0.1,0.6-0.2,0.9-0.2c0.5,0,1,0.1,1.4,0.4c0.4,0.3,0.6,0.7,0.8,1.3h0c0.1-0.2,0.3-0.5,0.4-0.6
		c0.2-0.2,0.4-0.4,0.6-0.5c0.2-0.2,0.5-0.3,0.8-0.4c0.3-0.1,0.6-0.1,0.9-0.1c0.4,0,0.7,0.1,1,0.2c0.3,0.1,0.6,0.3,0.8,0.5
		c0.2,0.2,0.4,0.5,0.5,0.9c0.1,0.4,0.2,0.8,0.2,1.3v3.5h1.1v1.4h-3v-4.6c0-0.2,0-0.4,0-0.6c0-0.2-0.1-0.3-0.2-0.5
		c-0.1-0.1-0.2-0.2-0.3-0.3c-0.2-0.1-0.4-0.1-0.5-0.1c-0.3,0-0.6,0.1-0.9,0.2c-0.2,0.2-0.5,0.4-0.6,0.6c-0.2,0.3-0.3,0.6-0.4,0.9
		c-0.1,0.3-0.1,0.7-0.1,1v2h1.1v1.4h-3v-4.6c0-0.2,0-0.4,0-0.6c0-0.2-0.1-0.3-0.1-0.5c-0.1-0.1-0.2-0.3-0.3-0.3
		c-0.2-0.1-0.4-0.1-0.5-0.1c-0.3,0-0.6,0.1-0.9,0.2c-0.3,0.2-0.5,0.4-0.6,0.6c-0.2,0.3-0.3,0.6-0.4,0.9c-0.1,0.3-0.1,0.7-0.1,1v1.9
		h1.1v1.4h-4.1L-92.8,85.1L-92.8,85.1z"/>
	<path class="st4" d="M-78.3,56.6v-0.4h0c-0.2-19.7-16-35.7-35.4-35.7c-9.6,0-18.3,3.9-24.7,10.3l1.8,2c5.9-5.9,14-9.5,22.9-9.5
		c17.9,0,32.6,14.8,32.8,33h-2.5V56c0-8.3-3.4-15.8-8.8-21.3l-2.1,1.9c5,5,8,11.8,8,19.4v0.3h-3.2V56c0-12.9-10.2-23.6-23-24.3v2.7
		c11.3,0.7,20.2,10.1,20.2,21.5v0.6h0v1.8h13.8V56.6z"/>
	<path class="st4" d="M-113.7,28.5c6.4,0,12.3,2.2,17,5.9l2.1-1.9c-5.4-4.4-12.1-6.8-19-6.8c-16.7,0-30.2,13.6-30.2,30.2v0.3h-2.5
		c0.1-7.7,2.8-15.1,7.6-21l-1.8-2c-5.5,6.6-8.5,14.9-8.5,23.4v0.2h0.1v1.5h13.8v-2.2h0V56c0-11.4,8.9-20.8,20.1-21.5v-2.7
		C-127.8,32.4-138,43-138,56v0.3h-3.2V56C-141.1,40.8-128.8,28.5-113.7,28.5"/>
	<path class="st4" d="M-127.7,50.9l0.8,1.6l1.8,0.3l-1.3,1.3l0.3,1.8l-1.6-0.8l-1.6,0.8l0.3-1.8l-1.3-1.3l1.8-0.3L-127.7,50.9z
		 M-99.6,50.9l0.8,1.6l1.8,0.3l-1.3,1.3l0.3,1.8l-1.6-0.8l-1.6,0.8l0.3-1.8l-1.3-1.3l1.8-0.3L-99.6,50.9z"/>
</g>
<g>
	<path d="M-170.4,274.6l-2.8-1.9c0-1.3-0.1-2.6-0.3-3.9l2.5-2.3c0.3-0.3,0.4-0.8,0.2-1.2l-2.5-4.8c-0.2-0.4-0.6-0.6-1.1-0.5
		l-3.3,0.7c-0.9-1-1.9-1.8-3-2.5l0.1-3.4c0-0.4-0.3-0.8-0.7-1l-5.3-1.7c-0.4-0.1-0.9,0-1.1,0.4l-1.9,2.8c-1.3,0-2.6,0.1-4,0.3
		l-2.3-2.5c-0.3-0.3-0.8-0.4-1.2-0.2l-4.8,2.5c-0.4,0.2-0.6,0.6-0.5,1.1l0.7,3.3c-1,0.9-1.8,1.9-2.6,3l-3.4-0.1
		c-0.5,0-0.8,0.3-1,0.7l-1.6,5.2c-0.1,0.4,0,0.9,0.4,1.1l2.8,1.9c0,1.3,0.1,2.7,0.3,4l-2.5,2.3c-0.3,0.3-0.4,0.8-0.2,1.2v0.1
		l-5.5,6.1v-0.5c-0.1-0.4-0.5-0.7-0.9-0.7h-4.2c-0.4,0-0.8,0.3-0.9,0.7l-0.7,2.4c-0.9,0.3-1.8,0.6-2.7,1.1l-2.2-1.2
		c-0.4-0.2-0.9-0.1-1.2,0.2l-3,3c-0.3,0.3-0.4,0.8-0.2,1.2l1.2,2.2c-0.5,0.8-0.8,1.7-1.1,2.7l-2.4,0.7c-0.4,0.1-0.7,0.5-0.7,0.9v4.2
		c0,0.4,0.3,0.8,0.7,0.9l2.4,0.7c0.3,0.9,0.6,1.8,1.1,2.7l-1.2,2.3c-0.2,0.4-0.1,0.9,0.2,1.2l3,3c0.3,0.2,0.8,0.3,1.1,0.1l2.2-1.2
		c0.8,0.5,1.7,0.8,2.7,1.1l0.7,2.4c0.1,0.4,0.5,0.7,0.9,0.7h4.2c0.4,0,0.8-0.3,0.9-0.7l0.7-2.4c0.9-0.3,1.8-0.6,2.7-1.1l2.2,1.2
		c0.4,0.2,0.9,0.1,1.2-0.2l3-3c0.3-0.3,0.4-0.8,0.2-1.2l-1.2-2.2c0.5-0.9,0.8-1.8,1.1-2.7l2.4-0.7c0.4-0.1,0.7-0.5,0.7-0.9V298
		c0-0.4-0.3-0.8-0.7-0.9l-0.5-0.2l6.2-5.6l3.4,1.1c0.4,0.1,0.9,0,1.1-0.4l1.9-2.8c1.3,0,2.7-0.1,4-0.3l2.3,2.5
		c0.3,0.3,0.8,0.4,1.2,0.2l4.8-2.5c0.4-0.2,0.6-0.6,0.5-1.1l-0.7-3.3c1-0.9,1.8-1.9,2.5-3l3.4,0.1c0.4,0,0.8-0.3,1-0.7l1.6-5.2
		C-169.9,275.3-170.1,274.9-170.4,274.6z M-195.4,266.9c1.4-1.4,3.2-2.2,5.3-2.2c4.1,0,7.5,3.4,7.5,7.5c0,4.1-3.4,7.5-7.5,7.5
		c-4.1,0-7.5-3.4-7.5-7.5C-197.7,268.8-195.5,267-195.4,266.9z M-190.1,281.7c0.3,0,0.5,0,0.8,0l-8.2,7.4l0.1-3.2
		c0-0.3-0.2-0.7-0.5-0.9c-1.3-0.8-2.5-1.8-3.4-2.9c-0.2-0.3-0.6-0.4-0.9-0.3l-3.2,0.6l-1.6-2.9l7.4-8.1c0,0.3,0,0.5,0,0.8
		C-199.6,277.4-195.4,281.7-190.1,281.7z M-206.8,284c0.2,0.4,0.6,0.6,1.1,0.5l3.3-0.7c0.9,1,1.9,1.8,3,2.6l-0.1,3.4
		c0,0.3,0.1,0.6,0.4,0.8l-6.2,5.5c-0.3-0.8-0.6-1.6-1-2.4l1.2-2.2c0.2-0.4,0.1-0.9-0.2-1.2l-3-3c-0.3-0.3-0.8-0.4-1.2-0.2l-2.2,1.2
		c-0.8-0.4-1.6-0.8-2.5-1l5.7-6.3L-206.8,284z M-218,294.4c3.1,0,5.6,2.5,5.6,5.6s-2.5,5.6-5.6,5.6s-5.6-2.5-5.6-5.6
		S-221.1,294.4-218,294.4z M-218,292.5c-0.3,0-0.5,0-0.8,0l3.3-3.6c0.1,0,0.1,0.1,0.2,0.1c1.1,0.3,2.2,0.7,3.2,1.3
		c0.3,0.2,0.7,0.2,1,0l2.1-1.1l2,2l-1.1,2.1c-0.2,0.3-0.2,0.7,0,1c0.6,1,1,2.1,1.3,3.2c0,0.1,0,0.1,0.1,0.2l-3.6,3.3
		c0-0.2,0-0.5,0-0.8C-210.4,295.9-213.8,292.5-218,292.5z M-204,298.7v2.8l-2.3,0.7c-0.3,0.1-0.6,0.4-0.7,0.7
		c-0.3,1.1-0.7,2.2-1.3,3.2c-0.2,0.3-0.2,0.7,0,1l1.1,2.1l-2,2l-2.1-1.1c-0.3-0.2-0.7-0.2-1,0c-1,0.6-2.1,1-3.2,1.3
		c-0.3,0.1-0.6,0.3-0.7,0.7l-0.6,2.3h-2.8l-0.7-2.3c-0.1-0.3-0.4-0.6-0.7-0.7c-1.1-0.3-2.2-0.7-3.2-1.3c-0.3-0.2-0.7-0.2-1,0
		l-1.8,0.9l-2-2l1.1-2.1c0.2-0.3,0.2-0.7,0-1c-0.6-1-1-2.1-1.3-3.2c-0.1-0.3-0.3-0.6-0.7-0.7l-2.3-0.7v-2.8l2.4-0.4
		c0.3-0.1,0.6-0.4,0.7-0.7c0.3-1.1,0.7-2.2,1.3-3.2c0.2-0.3,0.2-0.7,0-1l-1.1-2.1l2-2l2.1,1.1c0.3,0.2,0.7,0.2,1,0
		c1-0.6,2.1-1,3.2-1.3c0.3-0.1,0.6-0.3,0.7-0.7l0.7-2.3h2.8l0.3,0.9l-7,7.7l0,0c-1.7,1.6-2.5,3.5-2.5,5.6c0,4.2,3.4,7.6,7.6,7.6
		c2.1,0,4-0.8,5.3-2.2l0,0l7.7-7L-204,298.7z M-173.3,279.6l-3.2-0.1c-0.4,0-0.7,0.2-0.9,0.5c-0.8,1.3-1.8,2.4-2.9,3.4
		c-0.3,0.2-0.4,0.6-0.3,0.9l0.6,3.2l-3.5,1.8l-2.2-2.3c-0.2-0.3-0.6-0.4-0.9-0.3c-1.5,0.4-3,0.5-4.5,0.4c-0.4,0-0.7,0.1-0.9,0.4
		l-1.8,2.7l-1.6-0.5l11.9-10.8l0,0c1.7-1.7,2.8-4.1,2.8-6.7l0,0c0-5.2-4.2-9.5-9.5-9.5c-2.6,0-5,1.1-6.7,2.8l0,0l-8.1,8.9
		c-0.2-1-0.2-2.1-0.1-3.1c0-0.3-0.1-0.7-0.4-0.9l-2.7-1.8l1.2-3.8l3.2,0.1c0.3,0,0.7-0.2,0.9-0.5c0.8-1.3,1.8-2.5,2.9-3.4
		c0.3-0.2,0.4-0.6,0.3-0.9l-0.6-3.2l3.5-1.8l2.2,2.3c0.2,0.3,0.6,0.4,0.9,0.3c1.5-0.4,3-0.5,4.5-0.4c0.3,0,0.7-0.1,0.9-0.4l1.8-2.7
		l3.8,1.2l-0.1,3.2c0,0.3,0.2,0.7,0.5,0.9c1.3,0.8,2.4,1.8,3.4,2.9c0.2,0.3,0.6,0.4,0.9,0.3l3.2-0.6l1.8,3.5l-2.3,2.2
		c-0.3,0.2-0.4,0.6-0.3,0.9c0.4,1.5,0.5,3,0.4,4.5c0,0.3,0.1,0.7,0.4,0.9l2.7,1.8L-173.3,279.6z"/>
	<path d="M-190.1,275.8c2,0,3.6-1.6,3.6-3.6s-1.6-3.6-3.6-3.6s-3.6,1.6-3.6,3.6C-193.8,274.2-192.1,275.8-190.1,275.8z
		 M-190.1,270.5c0.9,0,1.7,0.8,1.7,1.7c0,0.9-0.8,1.7-1.7,1.7c-0.9,0-1.7-0.8-1.7-1.7C-191.8,271.3-191.1,270.5-190.1,270.5z"/>
	<path d="M-218,303.3c1.8,0,3.2-1.4,3.2-3.2c0-1.8-1.4-3.2-3.2-3.2s-3.2,1.4-3.2,3.2C-221.2,301.9-219.8,303.3-218,303.3z
		 M-218,298.8c0.7,0,1.3,0.6,1.3,1.3c0,0.7-0.6,1.3-1.3,1.3s-1.3-0.6-1.3-1.3C-219.3,299.4-218.7,298.8-218,298.8z"/>
</g>
<g>
	<path d="M-101.4,360.5c0-2.3-1.8-4.1-4.1-4.1H-125c-2.3,0-4.1,1.8-4.1,4.1V378c0,2.3,1.8,4.1,4.1,4.1h13.2c0.6,4.6,4.9,7.8,9.5,7.2
		c4.6-0.6,7.8-4.9,7.2-9.5c-0.5-3.4-2.9-6.1-6.2-7L-101.4,360.5z M-125,357.2h19.6c1.8,0,3.3,1.5,3.3,3.3v0.1h-26.2v-0.1
		C-128.3,358.7-126.9,357.2-125,357.2z M-95.8,380.9c0,4.2-3.4,7.7-7.7,7.7s-7.7-3.4-7.7-7.7c0-4.2,3.4-7.7,7.7-7.7c0,0,0,0,0,0
		C-99.2,373.3-95.8,376.7-95.8,380.9L-95.8,380.9z M-103.5,372.5c-1.3,0-2.6,0.3-3.8,0.9h-7.2c-0.2,0-0.4,0.2-0.4,0.4
		c0,0.2,0.2,0.4,0.4,0.4h6c-2.1,1.6-3.4,4.1-3.4,6.8c0,0.1,0,0.3,0,0.4H-125c-1.8,0-3.3-1.5-3.3-3.3v-16.6h26.2v11.3
		C-102.6,372.6-103,372.5-103.5,372.5z"/>
	<path d="M-105.4,366.3h-9.1c-0.2,0-0.4,0.2-0.4,0.4s0.2,0.4,0.4,0.4h9.1c0.2,0,0.4-0.2,0.4-0.4S-105.2,366.3-105.4,366.3z"/>
	<path d="M-119.3,364.7l-3.4,3.4l-1.6-1.6c-0.1-0.1-0.4-0.1-0.5,0c-0.1,0.1-0.1,0.4,0,0.5l1.9,1.8c0.1,0.1,0.2,0.1,0.3,0.1l0,0
		c0.1,0,0.2,0,0.3-0.1l3.6-3.7c0.1-0.2,0-0.4-0.2-0.5C-119.1,364.7-119.2,364.7-119.3,364.7z"/>
	<path d="M-119.3,371.9l-3.4,3.4l-1.6-1.6c-0.1-0.1-0.4-0.1-0.5,0s-0.1,0.4,0,0.5l1.9,1.8c0.1,0.1,0.2,0.1,0.3,0.1l0,0
		c0.1,0,0.2,0,0.3-0.1l3.6-3.7c0.1-0.1,0.1-0.4,0-0.5S-119.2,371.7-119.3,371.9L-119.3,371.9L-119.3,371.9z"/>
	<path d="M-103.9,377.2v3.4h-3.4c-0.2,0-0.4,0.2-0.4,0.4s0.2,0.4,0.4,0.4h3.4v3.4c0,0.2,0.2,0.4,0.4,0.4s0.4-0.2,0.4-0.4v-3.4h3.4
		c0.2,0,0.4-0.2,0.4-0.4s-0.2-0.4-0.4-0.4h-3.4v-3.4c0-0.2-0.2-0.4-0.4-0.4S-103.9,377-103.9,377.2z"/>
</g>
<g>
	<path d="M-317.6,235.9c0-2.3-1.8-4.1-4.1-4.1h-19.6c-2.3,0-4.1,1.8-4.1,4.1v17.5c0,2.3,1.8,4.1,4.1,4.1h13.2
		c0.6,4.6,4.9,7.8,9.5,7.2c4.6-0.6,7.8-4.9,7.2-9.5c-0.5-3.4-2.9-6.1-6.2-7L-317.6,235.9z M-341.2,232.5h19.6c1.8,0,3.3,1.5,3.3,3.3
		v0.1h-26.2v-0.1C-344.5,234-343,232.5-341.2,232.5z M-312,256.3c0,4.2-3.4,7.7-7.7,7.7s-7.7-3.4-7.7-7.7c0-4.2,3.4-7.7,7.7-7.7
		c0,0,0,0,0,0C-315.4,248.6-312,252.1-312,256.3L-312,256.3z M-319.7,247.9c-1.3,0-2.6,0.3-3.8,0.9h-7.2c-0.2,0-0.4,0.2-0.4,0.4
		c0,0.2,0.2,0.4,0.4,0.4h6c-2.1,1.6-3.4,4.1-3.4,6.8c0,0.1,0,0.3,0,0.4h-13.1c-1.8,0-3.3-1.5-3.3-3.3v-16.6h26.2V248
		C-318.8,247.9-319.2,247.9-319.7,247.9z"/>
	<path d="M-321.6,241.7h-9.1c-0.2,0-0.4,0.2-0.4,0.4c0,0.2,0.2,0.4,0.4,0.4h9.1c0.2,0,0.4-0.2,0.4-0.4
		C-321.2,241.8-321.4,241.7-321.6,241.7z"/>
	<path d="M-335.5,240.1l-3.4,3.4l-1.6-1.6c-0.1-0.1-0.4-0.1-0.5,0c-0.1,0.1-0.1,0.4,0,0.5l1.9,1.8c0.1,0.1,0.2,0.1,0.3,0.1l0,0
		c0.1,0,0.2,0,0.3-0.1l3.6-3.7c0.1-0.2,0-0.4-0.2-0.5C-335.3,240-335.4,240-335.5,240.1z"/>
	<path d="M-335.5,247.2l-3.4,3.4l-1.6-1.6c-0.1-0.1-0.4-0.1-0.5,0c-0.1,0.1-0.1,0.4,0,0.5l1.9,1.8c0.1,0.1,0.2,0.1,0.3,0.1l0,0
		c0.1,0,0.2,0,0.3-0.1l3.6-3.7c0.1-0.1,0.1-0.4,0-0.5S-335.4,247.1-335.5,247.2L-335.5,247.2L-335.5,247.2z"/>
	<path d="M-320,252.6v3.4h-3.4c-0.2,0-0.4,0.2-0.4,0.4c0,0.2,0.2,0.4,0.4,0.4h3.4v3.4c0,0.2,0.2,0.4,0.4,0.4c0.2,0,0.4-0.2,0.4-0.4
		v-3.4h3.4c0.2,0,0.4-0.2,0.4-0.4c0-0.2-0.2-0.4-0.4-0.4h-3.4v-3.4c0-0.2-0.2-0.4-0.4-0.4C-319.9,252.2-320,252.4-320,252.6z"/>
</g>
<g>
	<g>
		<path class="st9" d="M-287.4,316.8c0-2.6-2.1-4.8-4.8-4.8h-20.2c-2.6,0-4.8,2.1-4.8,4.8v0.4h29.7V316.8z"/>
		<path class="st9" d="M-317.1,317.2v16.7c0,2.6,2.1,4.8,4.8,4.8h20.2c2.6,0,4.8-2.1,4.8-4.8v-16.7H-317.1z"/>
	</g>
	<path d="M-291.9,323.2h-9c-0.2,0-0.4,0.2-0.4,0.4c0,0.2,0.2,0.4,0.4,0.4h9c0.2,0,0.4-0.2,0.4-0.4
		C-291.5,323.3-291.7,323.2-291.9,323.2z"/>
	<path d="M-308.3,321.4l-3.3,3.4l-1.6-1.6c-0.1-0.1-0.4-0.1-0.5,0c-0.1,0.1-0.1,0.4,0,0.5l1.8,1.8c0.1,0.1,0.2,0.1,0.3,0.1l0,0
		c0.1,0,0.2,0,0.3-0.1l3.6-3.7c0.1-0.2,0-0.4-0.2-0.5C-308.1,321.4-308.2,321.4-308.3,321.4z"/>
	<path d="M-291.9,330.6h-9c-0.2,0-0.4,0.2-0.4,0.4s0.2,0.4,0.4,0.4h9c0.2,0,0.4-0.2,0.4-0.4S-291.7,330.6-291.9,330.6z"/>
	<path d="M-308.3,328.9l-3.3,3.4l-1.6-1.6c-0.1-0.1-0.4-0.1-0.5,0s-0.1,0.4,0,0.5l1.8,1.8c0.1,0.1,0.2,0.1,0.3,0.1l0,0
		c0.1,0,0.2,0,0.3-0.1l3.6-3.7c0.1-0.2,0-0.4-0.2-0.5C-308.1,328.8-308.2,328.8-308.3,328.9z"/>
</g>
<g>
	<path class="st10" d="M-347.5,262.6l-2.9-0.5c-1.6-0.4-2.5-2.7-1.6-4l1.6-2.4c0.3-0.4,0.1-1.1-0.1-1.3l-3.2-3.1
		c-0.3-0.4-0.9-0.5-1.3-0.1l-2.4,1.6c-1.3,0.8-3.6-0.1-4-1.7l-0.5-2.9c-0.1-0.4-0.5-0.8-1.1-0.8h-4.4c-0.5,0-0.9,0.4-1.1,0.8
		l-0.5,2.9c-0.3,1.6-2.5,2.5-4,1.7l-2.4-1.6c-0.4-0.4-0.9-0.3-1.3,0.1l-3.1,3.1c-0.4,0.3-0.4,0.9-0.1,1.3l1.6,2.4
		c0.9,1.3,0,3.6-1.7,4l-2.8,0.5c-0.5,0.1-0.9,0.5-0.9,1.1v4.4c0,0.5,0.4,0.9,0.9,1.1l2.8,0.5c1.7,0.4,2.7,2.7,1.7,4l-1.6,2.4
		c-0.3,0.4-0.3,1.1,0.1,1.3l3.1,3.1c0.4,0.4,0.9,0.5,1.3,0.1l2.4-1.6c1.5-0.8,3.7,0.1,4,1.7l0.5,2.9c0.1,0.4,0.5,0.8,1.1,0.8h4.4
		c0.5,0,0.9-0.4,1.1-0.8l0.5-2.9c0.4-1.6,2.7-2.5,4-1.7l2.4,1.6c0.4,0.4,1.1,0.3,1.3-0.1l3.2-3.1c0.3-0.3,0.4-0.9,0.1-1.3l-1.6-2.4
		c-0.9-1.3,0-3.6,1.6-4l2.9-0.5c0.5-0.1,0.8-0.5,0.8-1.1v-4.4C-346.7,263.1-346.9,262.7-347.5,262.6z M-365.1,256.8c5,0,9,4.1,9,9
		c0,5-4,9.2-9,9.2s-9.2-4.1-9.2-9.2C-374.3,260.9-370.2,256.8-365.1,256.8z"/>
	<path class="st10" d="M-365.1,261.4c2.4,0,4.4,2,4.4,4.4c0,2.5-2,4.5-4.4,4.5c-2.5,0-4.5-2-4.5-4.5
		C-369.6,263.4-367.6,261.4-365.1,261.4z"/>
</g>
<line class="st11" x1="-335.5" y1="297.9" x2="-299.6" y2="289.3"/>
<line class="st11" x1="-300.8" y1="312.1" x2="-299.2" y2="290.6"/>
<path class="st10" d="M-299.9,284.9c2.4,0,4.4,2,4.4,4.4c0,2.5-2,4.5-4.4,4.5c-2.5,0-4.5-2-4.5-4.5
	C-304.4,286.9-302.4,284.9-299.9,284.9z"/>
<g>
	<g>
		<g>
			<path class="st12" d="M53,35l-1.9-0.3c-1-0.3-1.6-1.7-1-2.6l1-1.5c0.2-0.3,0.1-0.7-0.1-0.9l-2-2c-0.2-0.3-0.6-0.3-0.9-0.1l-1.5,1
				c-0.9,0.5-2.3-0.1-2.6-1.1l-0.3-1.9c-0.1-0.3-0.3-0.5-0.7-0.5h-2.8c-0.3,0-0.6,0.3-0.7,0.5l-0.3,1.9c-0.2,1-1.6,1.6-2.6,1.1
				l-1.5-1c-0.3-0.3-0.6-0.2-0.9,0.1l-2,2c-0.3,0.2-0.3,0.6-0.1,0.9l1,1.5c0.6,0.9,0,2.3-1.1,2.6L30.4,35c-0.3,0.1-0.6,0.3-0.6,0.7
				v2.8c0,0.3,0.3,0.6,0.6,0.7l1.8,0.3c1.1,0.3,1.7,1.7,1.1,2.6l-1,1.5c-0.2,0.3-0.2,0.7,0.1,0.9l2,2c0.3,0.3,0.6,0.3,0.9,0.1l1.5-1
				c0.9-0.5,2.4,0.1,2.6,1.1l0.3,1.9c0.1,0.3,0.3,0.5,0.7,0.5h2.8c0.3,0,0.6-0.3,0.7-0.5l0.3-1.9c0.3-1,1.7-1.6,2.6-1.1l1.5,1
				c0.3,0.3,0.7,0.2,0.9-0.1l2-2c0.2-0.2,0.3-0.6,0.1-0.9l-1-1.5c-0.6-0.9,0-2.3,1-2.6l1.9-0.3c0.3-0.1,0.5-0.3,0.5-0.7v-2.8
				C53.5,35.3,53.4,35,53,35z M41.7,31.2c3.2,0,5.8,2.6,5.8,5.8c0,3.2-2.6,5.9-5.8,5.9s-5.9-2.6-5.9-5.9
				C35.9,33.8,38.5,31.2,41.7,31.2z"/>
		</g>
		<g>
			<path class="st6" d="M65.4,49.2c-0.5,0-0.8-0.4-0.9-0.7l-0.4-1.9c-0.1-0.4-0.3-0.7-0.8-0.9c-0.5-0.2-1-0.2-1.4,0l-1.5,1
				c-0.3,0.3-0.8,0.3-1.2-0.1l-2-1.9c-0.4-0.2-0.4-0.8-0.1-1.2l1-1.5c0.2-0.3,0.2-0.8,0.1-1.2c-0.2-0.5-0.6-0.9-1-1l-1.8-0.3
				c-0.5-0.1-0.8-0.5-0.8-0.9l0-2.8c0-0.4,0.3-0.8,0.8-0.9l1.8-0.4c0.4-0.1,0.8-0.5,1-1c0.2-0.4,0.1-0.9-0.1-1.2l-1-1.5
				c-0.2-0.4-0.2-0.9,0.1-1.2l1.9-1.9c0.4-0.4,0.9-0.4,1.2-0.1l1.5,1c0.4,0.2,0.9,0.2,1.4,0c0.4-0.2,0.7-0.5,0.7-0.9l0.3-1.9
				c0.1-0.4,0.4-0.7,0.9-0.7l2.8,0c0,0,0,0,0,0c0.5,0,0.8,0.3,0.9,0.7l0.4,1.9c0.1,0.4,0.4,0.7,0.9,0.9c0.5,0.2,0.9,0.2,1.3,0l1.5-1
				c0.1-0.1,0.4-0.2,0.6-0.2c0.2,0,0.5,0.2,0.6,0.3l2,1.9c0.3,0.3,0.4,0.8,0.1,1.2l-1,1.5c-0.2,0.3-0.3,0.8-0.1,1.2
				c0.2,0.5,0.6,0.8,1,0.9l1.9,0.3c0.4,0.1,0.7,0.5,0.7,0.9l0,2.8c0,0.5-0.3,0.8-0.7,0.9l-1.9,0.4c-0.4,0.1-0.8,0.5-0.9,0.9
				c-0.2,0.4-0.1,0.9,0.1,1.2l1,1.5c0.2,0.4,0.1,0.9-0.1,1.2l-2,2c-0.1,0.2-0.3,0.3-0.6,0.3c-0.2,0-0.5-0.1-0.6-0.2l-1.5-1
				c-0.3-0.2-0.8-0.2-1.2,0c-0.5,0.2-0.8,0.6-0.9,1l-0.3,1.9c-0.1,0.4-0.4,0.7-0.9,0.7L65.4,49.2C65.4,49.2,65.4,49.2,65.4,49.2z
				 M62.6,45c0.3,0,0.7,0.1,1,0.2c0.6,0.3,0.9,0.7,1,1.3l0.3,1.9c0,0.1,0.2,0.3,0.4,0.3c0,0,0,0,0,0l2.8,0c0.2,0,0.4-0.2,0.4-0.3
				l0.3-1.8c0.1-0.6,0.6-1.1,1.2-1.3c0.6-0.3,1.2-0.2,1.7,0l1.5,1c0.1,0.1,0.2,0.1,0.3,0.1c0.1,0,0.2-0.1,0.2-0.1l2.1-2
				c0.1-0.1,0.1-0.4,0-0.5l-1-1.5c-0.3-0.4-0.4-1.1-0.1-1.7c0.2-0.6,0.7-1.1,1.3-1.3l1.9-0.4c0.2-0.1,0.3-0.2,0.3-0.4l0-2.8
				c0-0.2-0.1-0.4-0.3-0.4l-1.9-0.3c-0.6-0.1-1.1-0.6-1.3-1.3c-0.2-0.6-0.2-1.2,0.1-1.7l1-1.5c0.1-0.1,0-0.4-0.1-0.5l-2-1.9
				c-0.1-0.1-0.2-0.2-0.3-0.2c-0.1,0-0.2,0-0.2,0.1l-1.6,1.1c-0.5,0.3-1.1,0.3-1.7,0.1c-0.6-0.3-1.1-0.7-1.2-1.3l-0.4-1.9
				c0-0.1-0.2-0.3-0.4-0.3c0,0,0,0,0,0l-2.8,0c-0.2,0-0.4,0.2-0.4,0.3l-0.3,1.8c-0.1,0.5-0.5,1-1,1.3c-0.6,0.3-1.3,0.3-1.9,0l-1.6-1
				c-0.2-0.2-0.4,0-0.5,0.1l-1.9,2c-0.2,0.1-0.2,0.4-0.1,0.5l1,1.5c0.3,0.4,0.4,1.1,0.1,1.7c-0.2,0.7-0.8,1.1-1.4,1.3l-1.8,0.4
				c-0.2,0-0.4,0.2-0.4,0.4l0,2.8c0,0.2,0.2,0.4,0.4,0.4l1.8,0.3c0.6,0.1,1.2,0.6,1.4,1.3c0.2,0.6,0.2,1.2-0.1,1.7l-1,1.5
				c-0.1,0.2-0.1,0.4,0,0.5l2,2c0.1,0.1,0.3,0.3,0.5,0.1l1.6-1.1C62,45.1,62.3,45,62.6,45z M66.8,43.1c-1.6,0-3.1-0.6-4.3-1.8
				c-1.2-1.2-1.8-2.7-1.8-4.3c0-3.3,2.7-6,6.1-6.1l0,0c0,0,0,0,0,0c3.3,0,6,2.7,6,6c0,1.6-0.6,3.2-1.7,4.3
				C70,42.5,68.5,43.1,66.8,43.1C66.8,43.1,66.8,43.1,66.8,43.1z M66.8,31.5c-3.1,0-5.6,2.5-5.6,5.6c0,1.5,0.6,2.9,1.7,4
				c1.1,1.1,2.5,1.6,3.9,1.6c0,0,0,0,0,0c1.5,0,2.9-0.6,3.9-1.7c1-1.1,1.6-2.5,1.6-4C72.3,33.9,69.8,31.5,66.8,31.5
				C66.8,31.5,66.8,31.5,66.8,31.5L66.8,31.5z"/>
		</g>
		<g>
			<g>
				<path class="st6" d="M66.4,56.8H42v-0.6c0-2.3,1.8-4.1,4.1-4.1h16.2c2.3,0,4.1,1.8,4.1,4.1V56.8z M42.5,56.3h23.4v-0.1
					c0-2-1.6-3.6-3.6-3.6H46.1C44.1,52.6,42.5,54.2,42.5,56.3L42.5,56.3z"/>
				<path class="st6" d="M62.3,74.1H46.1c-2.3,0-4.1-1.8-4.1-4.1V56.3h24.4V70C66.4,72.2,64.6,74.1,62.3,74.1z M42.5,56.8V70
					c0,2,1.6,3.6,3.6,3.6h16.2c2,0,3.6-1.6,3.6-3.6V56.8H42.5z"/>
			</g>
			<path class="st6" d="M62.6,61.4h-7.2c-0.2,0-0.3,0.1-0.3,0.3s0.1,0.3,0.3,0.3h7.2c0.2,0,0.3-0.1,0.3-0.3S62.8,61.4,62.6,61.4z"/>
			<path class="st6" d="M49.4,59.9l-2.7,2.7l-1.3-1.3c-0.1-0.1-0.3-0.1-0.4,0c-0.1,0.1-0.1,0.3,0,0.4l1.5,1.5
				c0.1,0.1,0.1,0.1,0.2,0.1l0,0c0.1,0,0.2,0,0.2-0.1l2.9-2.9c0.1-0.1,0-0.3-0.1-0.4C49.5,59.9,49.4,59.9,49.4,59.9z"/>
			<path class="st6" d="M62.6,67.3h-7.2c-0.2,0-0.3,0.1-0.3,0.3c0,0.2,0.1,0.3,0.3,0.3h7.2c0.2,0,0.3-0.1,0.3-0.3
				C62.9,67.5,62.8,67.3,62.6,67.3z"/>
			<path class="st6" d="M48.7,65.8l-1.4,1.5l-1.5-1.4c-0.1-0.1-0.2-0.1-0.3,0c-0.1,0.1-0.1,0.2,0,0.3l1.5,1.4l-1.4,1.5
				c-0.1,0.1-0.1,0.2,0,0.3s0.2,0.1,0.3,0l1.4-1.5l1.5,1.4c0.1,0.1,0.2,0.1,0.3,0c0.1-0.1,0.1-0.2,0-0.3l-1.5-1.4l1.4-1.5
				c0.1-0.1,0.1-0.2,0-0.3C49,65.7,48.8,65.8,48.7,65.8z"/>
		</g>
		<path class="st6" d="M42.4,64.1H27.3c-1.2,0-2.2-1-2.2-2.2V39.1c0-1.2,1-2.2,2.2-2.2h2.6v0.5h-2.6c-1,0-1.8,0.8-1.8,1.8v22.7
			c0,1,0.8,1.8,1.8,1.8h15.1V64.1z"/>
		<path class="st6" d="M81.3,64.1H66.2v-0.5h15.1c1,0,1.8-0.8,1.8-1.8V39.1c0-1-0.8-1.8-1.8-1.8h-2.6v-0.5h2.6c1.2,0,2.2,1,2.2,2.2
			v22.7C83.6,63.1,82.6,64.1,81.3,64.1z"/>
	</g>
</g>
<g>
	<g>
		<path class="st10" d="M-151.7,316.3l-1.9-0.3c-1-0.3-1.6-1.7-1-2.6l1-1.5c0.2-0.3,0.1-0.7-0.1-0.9l-2-2c-0.2-0.3-0.6-0.3-0.9-0.1
			l-1.5,1c-0.9,0.5-2.3-0.1-2.6-1.1l-0.3-1.9c-0.1-0.3-0.3-0.5-0.7-0.5h-2.8c-0.3,0-0.6,0.3-0.7,0.5l-0.3,1.9
			c-0.2,1-1.6,1.6-2.6,1.1l-1.5-1c-0.3-0.3-0.6-0.2-0.9,0.1l-2,2c-0.3,0.2-0.3,0.6-0.1,0.9l1,1.5c0.6,0.9,0,2.3-1.1,2.6l-1.8,0.3
			c-0.3,0.1-0.6,0.3-0.6,0.7v2.8c0,0.3,0.3,0.6,0.6,0.7l1.8,0.3c1.1,0.3,1.7,1.7,1.1,2.6l-1,1.5c-0.2,0.3-0.2,0.7,0.1,0.9l2,2
			c0.3,0.3,0.6,0.3,0.9,0.1l1.5-1c0.9-0.5,2.4,0.1,2.6,1.1l0.3,1.9c0.1,0.3,0.3,0.5,0.7,0.5h2.8c0.3,0,0.6-0.3,0.7-0.5l0.3-1.9
			c0.3-1,1.7-1.6,2.6-1.1l1.5,1c0.3,0.3,0.7,0.2,0.9-0.1l2-2c0.2-0.2,0.3-0.6,0.1-0.9l-1-1.5c-0.6-0.9,0-2.3,1-2.6l1.9-0.3
			c0.3-0.1,0.5-0.3,0.5-0.7V317C-151.1,316.7-151.3,316.4-151.7,316.3z M-163,312.6c3.2,0,5.8,2.6,5.8,5.8c0,3.2-2.6,5.9-5.8,5.9
			s-5.9-2.6-5.9-5.9C-168.8,315.2-166.2,312.6-163,312.6z"/>
	</g>
	<g>
		<path class="st13" d="M-126.6,316.3l-1.9-0.3c-1-0.2-1.6-1.7-1-2.5l1-1.5c0.2-0.3,0.1-0.7-0.1-0.8l-2.1-1.9
			c-0.2-0.3-0.6-0.3-0.9-0.1l-1.5,1c-0.8,0.5-2.3-0.1-2.6-1.1l-0.3-1.9c-0.1-0.3-0.3-0.5-0.7-0.5l-2.8,0c-0.3,0-0.6,0.3-0.7,0.5
			l-0.3,1.9c-0.2,1-1.6,1.6-2.5,1.1l-1.5-1c-0.3-0.3-0.6-0.2-0.8,0.1l-1.9,2c-0.3,0.2-0.3,0.6-0.1,0.9l1,1.5c0.6,0.8,0,2.3-1.1,2.6
			l-1.8,0.3c-0.3,0.1-0.6,0.3-0.6,0.7l0,2.8c0,0.3,0.3,0.6,0.6,0.7l1.8,0.3c1.1,0.2,1.7,1.7,1.1,2.5l-1,1.5
			c-0.2,0.3-0.2,0.7,0.1,0.8l2,1.9c0.3,0.3,0.6,0.3,0.9,0.1l1.5-1c0.9-0.5,2.4,0.1,2.6,1.1l0.3,1.9c0.1,0.3,0.3,0.5,0.7,0.5l2.8,0
			c0.3,0,0.6-0.3,0.7-0.5l0.3-1.9c0.2-1,1.7-1.6,2.5-1.1l1.5,1c0.3,0.3,0.7,0.2,0.8-0.1l2-2c0.2-0.2,0.3-0.6,0.1-0.9l-1-1.5
			c-0.6-0.8,0-2.3,1-2.6l1.9-0.3c0.3-0.1,0.5-0.3,0.5-0.7l0-2.8C-126.1,316.6-126.3,316.4-126.6,316.3z M-137.9,312.6
			c3.2,0,5.8,2.6,5.8,5.8c0,3.2-2.5,5.9-5.7,5.9c-3.2,0-5.9-2.6-5.9-5.8C-143.8,315.3-141.2,312.6-137.9,312.6z"/>
	</g>
	<g>
		<g>
			<path class="st14" d="M-138.5,337.6c0-2.1-1.7-3.8-3.8-3.8h-16.2c-2.1,0-3.8,1.7-3.8,3.8v0.3h23.9V337.6z"/>
			<path class="st14" d="M-162.4,338v13.4c0,2.1,1.7,3.8,3.8,3.8h16.2c2.1,0,3.8-1.7,3.8-3.8V338H-162.4z"/>
		</g>
		<path d="M-142.1,342.7h-7.2c-0.2,0-0.3,0.1-0.3,0.3c0,0.2,0.1,0.3,0.3,0.3h7.2c0.2,0,0.3-0.1,0.3-0.3
			C-141.8,342.9-141.9,342.7-142.1,342.7z"/>
		<path d="M-155.3,341.3l-2.7,2.7l-1.3-1.3c-0.1-0.1-0.3-0.1-0.4,0c-0.1,0.1-0.1,0.3,0,0.4l1.5,1.5c0.1,0.1,0.1,0.1,0.2,0.1l0,0
			c0.1,0,0.2,0,0.2-0.1l2.9-2.9c0.1-0.1,0-0.3-0.1-0.4C-155.1,341.3-155.2,341.3-155.3,341.3z"/>
		<path d="M-142.1,348.7h-7.2c-0.2,0-0.3,0.1-0.3,0.3c0,0.2,0.1,0.3,0.3,0.3h7.2c0.2,0,0.3-0.1,0.3-0.3
			C-141.8,348.9-141.9,348.7-142.1,348.7z"/>
		<path d="M-156,347.2l-1.4,1.5l-1.5-1.4c-0.1-0.1-0.2-0.1-0.3,0c-0.1,0.1-0.1,0.2,0,0.3l1.5,1.4l-1.4,1.5c-0.1,0.1-0.1,0.2,0,0.3
			s0.2,0.1,0.3,0l1.4-1.5l1.5,1.4c0.1,0.1,0.2,0.1,0.3,0c0.1-0.1,0.1-0.2,0-0.3l-1.5-1.4l1.4-1.5c0.1-0.1,0.1-0.2,0-0.3
			S-155.9,347.1-156,347.2z"/>
	</g>
	<path class="st13" d="M-174.9,318.5h-2.6c-1.1,0-2,0.9-2,2v22.7c0,1.1,0.9,2,2,2h15.1"/>
	<path class="st13" d="M-125.9,318.5h2.6c1.1,0,2,0.9,2,2v22.7c0,1.1-0.9,2-2,2h-15.1"/>
</g>
<text transform="matrix(1 0 0 1 108.9357 44.4507)"><tspan x="0" y="0" class="st15 st16 st17">Test</tspan><tspan x="0" y="20.4" class="st15 st18 st17">Automation</tspan></text>
</svg>
