<svg xmlns="http://www.w3.org/2000/svg" xmlns:xlink="http://www.w3.org/1999/xlink" width="365" height="100" viewBox="0 0 365 100">
    <defs>
        <linearGradient id="a" x1="0%" y1="0%" y2="100%">
            <stop offset="0%" stop-color="#F8617F"/>
            <stop offset="100%" stop-color="#DE51E3"/>
        </linearGradient>
        <path id="b" d="M0 100h320V0H0z"/>
    </defs>
    <g fill="none" fill-rule="evenodd">
        <path fill="url(#a)" d="M0 100h365V0H0z"/>
        <g>
            <path fill="#FFF" d="M104.342 41.587v3.936h2.088c.88 0 1.53-.17 1.95-.506.422-.338.632-.855.632-1.55 0-1.254-.896-1.88-2.686-1.88h-1.984zm0-2.542h1.859c.87 0 1.496-.134 1.886-.402.39-.27.584-.713.584-1.333 0-.578-.212-.994-.636-1.244-.423-.252-1.093-.377-2.008-.377h-1.685v3.356zm-3.201-5.98h4.699c2.143 0 3.697.304 4.664.914.968.609 1.452 1.579 1.452 2.908 0 .902-.212 1.642-.635 2.22a2.54 2.54 0 0 1-1.69 1.043v.104c.958.214 1.648.613 2.072 1.198.424.586.635 1.364.635 2.335 0 1.377-.498 2.452-1.492 3.223-.996.77-2.348 1.157-4.055 1.157h-5.65V33.065zM127.647 33.065v9.772c0 1.115-.249 2.093-.749 2.933-.5.84-1.22 1.484-2.164 1.932-.943.448-2.06.672-3.348.672-1.94 0-3.449-.498-4.523-1.494-1.075-.995-1.612-2.355-1.612-4.086v-9.73h3.192v9.245c0 1.165.234 2.02.702 2.564.468.544 1.243.815 2.324.815 1.047 0 1.806-.274 2.28-.822.47-.547.706-1.405.706-2.577v-9.224h3.192zM140.26 43.973c0 1.364-.49 2.438-1.471 3.224-.982.785-2.347 1.177-4.096 1.177-1.612 0-3.037-.303-4.277-.91V44.49c1.02.455 1.88.775 2.588.96.705.186 1.352.28 1.937.28.702 0 1.24-.135 1.616-.403.376-.27.563-.668.563-1.2 0-.295-.083-.558-.248-.79-.165-.23-.407-.452-.727-.666-.321-.213-.973-.553-1.958-1.022-.923-.434-1.615-.851-2.077-1.25a4.706 4.706 0 0 1-1.105-1.395c-.276-.53-.413-1.15-.413-1.86 0-1.335.453-2.386 1.357-3.15.907-.764 2.159-1.146 3.756-1.146.785 0 1.535.093 2.246.278a15.79 15.79 0 0 1 2.238.785l-1.033 2.49c-.806-.33-1.472-.561-2-.692a6.433 6.433 0 0 0-1.554-.196c-.606 0-1.07.14-1.395.423-.324.283-.485.65-.485 1.105 0 .284.065.53.196.74.13.21.339.413.625.609.285.196.963.549 2.03 1.059 1.412.674 2.379 1.35 2.903 2.03.523.678.785 1.51.785 2.494"/>
            <mask id="c" fill="#fff">
                <use xlink:href="#b"/>
            </mask>
            <path fill="#FFF" d="M142.998 48.167h3.203V33.064h-3.203zM163.4 48.167h-4.07l-6.57-11.425h-.092c.13 2.018.195 3.457.195 4.318v7.107h-2.86V33.064h4.038l6.56 11.312h.072c-.103-1.963-.155-3.351-.155-4.163v-7.149h2.882v15.103zM175.9 48.167h-8.698V33.064h8.698v2.624h-5.496v3.316h5.113v2.624h-5.113v3.894h5.496zM187.967 43.973c0 1.364-.491 2.438-1.473 3.224-.981.785-2.346 1.177-4.095 1.177-1.612 0-3.037-.303-4.278-.91V44.49c1.02.455 1.882.775 2.588.96.706.186 1.352.28 1.938.28.702 0 1.24-.135 1.616-.403.376-.27.563-.668.563-1.2 0-.295-.083-.558-.248-.79-.166-.23-.408-.452-.728-.666-.32-.213-.973-.553-1.957-1.022-.924-.434-1.615-.851-2.077-1.25a4.69 4.69 0 0 1-1.105-1.395c-.276-.53-.414-1.15-.414-1.86 0-1.335.453-2.386 1.358-3.15.906-.764 2.158-1.146 3.755-1.146.786 0 1.536.093 2.247.278.713.187 1.458.449 2.238.785l-1.033 2.49c-.807-.33-1.473-.561-2-.692a6.427 6.427 0 0 0-1.555-.196c-.606 0-1.07.14-1.395.423-.323.283-.484.65-.484 1.105 0 .284.064.53.195.74.13.21.34.413.625.609.286.196.963.549 2.03 1.059 1.412.674 2.38 1.35 2.904 2.03.523.678.785 1.51.785 2.494M199.62 43.973c0 1.364-.492 2.438-1.474 3.224-.98.785-2.346 1.177-4.095 1.177-1.612 0-3.037-.303-4.278-.91V44.49c1.02.455 1.882.775 2.588.96.706.186 1.352.28 1.938.28.702 0 1.24-.135 1.616-.403.376-.27.563-.668.563-1.2 0-.295-.083-.558-.248-.79-.166-.23-.408-.452-.728-.666-.32-.213-.973-.553-1.957-1.022-.924-.434-1.615-.851-2.077-1.25a4.69 4.69 0 0 1-1.105-1.395c-.276-.53-.414-1.15-.414-1.86 0-1.335.453-2.386 1.358-3.15.906-.764 2.158-1.146 3.755-1.146.786 0 1.536.093 2.247.278.713.187 1.458.449 2.238.785l-1.033 2.49c-.807-.33-1.473-.561-2-.692a6.427 6.427 0 0 0-1.555-.196c-.606 0-1.07.14-1.395.423-.323.283-.484.65-.484 1.105 0 .284.064.53.195.74.131.21.34.413.625.609.286.196.963.549 2.031 1.059 1.411.674 2.38 1.35 2.903 2.03.523.678.785 1.51.785 2.494M101.064 70.487h1.545V57.209h-1.545zM116.623 70.487h-1.763l-7.257-11.144h-.072c.097 1.308.146 2.507.146 3.597v7.547h-1.426V57.21h1.743l7.238 11.098h.074a83.98 83.98 0 0 1-.082-1.576c-.042-.887-.058-1.52-.046-1.902v-7.62h1.445v13.278zM124.36 70.487h-1.544V58.581h-4.205V57.21h9.953v1.372h-4.204zM137.965 70.487h-7.401V57.21h7.4v1.372h-5.856v4.277h5.503v1.362h-5.503v4.886h5.857zM140.908 70.487V57.21h1.543v11.88h5.858v1.398zM150.562 70.487V57.21h1.543v11.88h5.858v1.398zM160.217 70.487h1.543V57.209h-1.543zM171.241 63.53h4.515v6.457a14.29 14.29 0 0 1-2.145.51c-.726.114-1.568.172-2.524.172-2.01 0-3.575-.598-4.696-1.794-1.12-1.196-1.68-2.87-1.68-5.027 0-1.38.277-2.589.832-3.629a5.608 5.608 0 0 1 2.392-2.378c1.041-.548 2.262-.823 3.66-.823 1.417 0 2.737.261 3.96.782l-.599 1.362c-1.198-.509-2.353-.763-3.46-.763-1.617 0-2.879.482-3.787 1.443-.908.963-1.364 2.298-1.364 4.006 0 1.792.438 3.152 1.313 4.078.875.926 2.16 1.39 3.855 1.39.92 0 1.821-.106 2.698-.318v-4.087h-2.97v-1.38zM186.346 70.487h-7.402V57.21h7.402v1.372h-5.858v4.277h5.503v1.362h-5.503v4.886h5.858zM199.66 70.487h-1.764l-7.256-11.144h-.072c.096 1.308.145 2.507.145 3.597v7.547h-1.426V57.21h1.744l7.238 11.098h.073a108.96 108.96 0 0 1-.082-1.576c-.04-.887-.057-1.52-.045-1.902v-7.62h1.444v13.278zM208.996 58.4c-1.459 0-2.611.484-3.456 1.456-.845.972-1.267 2.303-1.267 3.992 0 1.738.407 3.08 1.221 4.028.814.948 1.976 1.421 3.483 1.421.927 0 1.984-.167 3.169-.5v1.354c-.92.345-2.054.518-3.405.518-1.956 0-3.464-.594-4.527-1.78-1.063-1.187-1.594-2.874-1.594-5.059 0-1.369.256-2.568.768-3.597a5.502 5.502 0 0 1 2.215-2.379c.966-.558 2.103-.836 3.411-.836 1.392 0 2.609.254 3.651.763l-.654 1.326c-1.005-.472-2.011-.708-3.015-.708M222.446 70.487h-7.4V57.21h7.4v1.372h-5.858v4.277h5.504v1.362h-5.504v4.886h5.858z" mask="url(#c)"/>
            <g fill="#FFF" mask="url(#c)">
                <path d="M266.834 37.402l2.394 4.85 5.35.776-3.872 3.774.914 5.33-4.786-2.516-4.786 2.516.914-5.33-3.872-3.774 5.35-.777zM242.492 60.656h.943v-3.8c0-.09-.024-.158-.074-.2a.299.299 0 0 0-.205-.066h-.726v-1.205h1.69c.288 0 .504.063.644.19.141.126.211.303.211.53v.292c0 .037-.002.072-.005.106l-.013.087-.013.087h.031a2.824 2.824 0 0 1 .83-.969 2.6 2.6 0 0 1 .63-.345c.231-.089.482-.134.75-.134.452 0 .833.113 1.147.336.311.224.532.581.661 1.074h.024c.087-.19.205-.372.354-.544a2.536 2.536 0 0 1 1.894-.866c.327 0 .62.05.878.147.26.096.478.247.656.45.177.202.314.458.41.767.095.308.142.675.142 1.101v2.962h.944v1.211h-2.558V58c0-.182-.012-.352-.034-.509a1.184 1.184 0 0 0-.13-.41.701.701 0 0 0-.27-.274.929.929 0 0 0-.454-.098c-.277 0-.519.063-.726.192a1.638 1.638 0 0 0-.516.51 2.394 2.394 0 0 0-.307.731 3.573 3.573 0 0 0-.103.864v1.651h.938v1.211h-2.545V58c0-.174-.01-.338-.029-.493a1.15 1.15 0 0 0-.12-.41.714.714 0 0 0-.267-.283.888.888 0 0 0-.46-.105c-.285 0-.534.07-.743.208a1.702 1.702 0 0 0-.517.543 2.564 2.564 0 0 0-.305.76 3.79 3.79 0 0 0-.099.86v1.577h.925v1.211h-3.483v-1.21zM256.567 59.924c0 .12.021.233.062.342a.815.815 0 0 0 .482.474 1.19 1.19 0 0 0 1.006-.089c.183-.108.342-.246.474-.414.133-.167.237-.355.311-.565.074-.21.111-.414.111-.617v-.211h-.266c-.108 0-.237.004-.385.012a4.993 4.993 0 0 0-.466.049 3.594 3.594 0 0 0-.478.11 1.649 1.649 0 0 0-.425.192c-.126.08-.229.18-.308.298a.744.744 0 0 0-.118.419m-1.626.124c0-.331.065-.614.198-.851.133-.235.305-.434.516-.595.211-.162.451-.291.72-.39.27-.096.538-.17.807-.223.27-.05.528-.085.777-.101.248-.017.46-.026.632-.026h.411v-.216c0-.207-.032-.382-.094-.526a.886.886 0 0 0-.254-.343 1.018 1.018 0 0 0-.379-.19 1.78 1.78 0 0 0-.472-.06c-.244 0-.476.033-.695.097-.22.065-.414.136-.584.214a3.645 3.645 0 0 0-.553.31l-.595-1.117a3.64 3.64 0 0 1 .695-.397c.224-.1.493-.191.81-.276a4.12 4.12 0 0 1 1.065-.128c.873 0 1.536.218 1.99.655.453.436.68 1.07.68 1.903v2.589c0 .187.093.279.28.279h.583v1.21h-1.528c-.149 0-.276-.017-.382-.054a.67.67 0 0 1-.254-.15.575.575 0 0 1-.143-.217.753.753 0 0 1-.046-.267v-.074a1.19 1.19 0 0 1 .037-.33h-.025a2.199 2.199 0 0 1-.46.628 2.528 2.528 0 0 1-.279.229 1.864 1.864 0 0 1-.353.199 2.378 2.378 0 0 1-.958.193 2.67 2.67 0 0 1-.803-.121 2.004 2.004 0 0 1-.686-.37 1.846 1.846 0 0 1-.478-.618 1.955 1.955 0 0 1-.18-.866M262.218 59.706h1.372v.38c0 .111.034.21.103.294a.774.774 0 0 0 .279.211c.118.056.254.098.407.128.152.028.315.043.484.043.323 0 .587-.056.794-.167.207-.113.31-.278.31-.497a.536.536 0 0 0-.107-.342 1.003 1.003 0 0 0-.305-.245 2.715 2.715 0 0 0-.47-.2 36.174 36.174 0 0 1-.595-.213 10.476 10.476 0 0 1-.72-.283 2.916 2.916 0 0 1-.657-.387 1.908 1.908 0 0 1-.48-.553 1.559 1.559 0 0 1-.186-.789c0-.343.079-.633.234-.869.155-.236.354-.427.599-.574a2.65 2.65 0 0 1 .823-.317c.303-.064.602-.097.896-.097.237 0 .49.025.764.073.273.047.527.125.76.232.235.108.429.247.585.42.155.171.232.38.232.623v.826h-1.385v-.366c0-.166-.088-.296-.263-.392-.176-.094-.407-.142-.693-.142-.128 0-.25.011-.363.034a1.017 1.017 0 0 0-.298.106.574.574 0 0 0-.201.18.454.454 0 0 0-.075.263c0 .133.037.248.112.345.074.097.174.183.298.257.124.075.267.141.432.2.163.057.335.113.518.167.248.08.5.168.757.267.257.1.488.224.695.372.207.15.377.332.51.55.132.217.198.485.198.804 0 .327-.072.614-.217.86a1.884 1.884 0 0 1-.59.617c-.248.166-.537.29-.87.373a4.513 4.513 0 0 1-1.968.028 3.337 3.337 0 0 1-.847-.29 1.995 1.995 0 0 1-.627-.49 1.035 1.035 0 0 1-.245-.688v-.752zM269.29 56.59h-.994v-1.205h1.044v-1.77h1.564v1.77h1.472v1.205h-1.472v2.73c0 .279.045.5.137.666a1.055 1.055 0 0 0 .764.556c.148.027.281.04.397.04h.121a.589.589 0 0 0 .09-.006.496.496 0 0 0 .08-.007v1.323a2.747 2.747 0 0 1-.496.038c-.153 0-.326-.011-.519-.031a3.304 3.304 0 0 1-.589-.122 2.818 2.818 0 0 1-.59-.254 1.872 1.872 0 0 1-.513-.435 2.132 2.132 0 0 1-.359-.664 2.836 2.836 0 0 1-.137-.935v-2.9zM277.846 57.9a1.917 1.917 0 0 0-.112-.6 1.373 1.373 0 0 0-.27-.447 1.163 1.163 0 0 0-.88-.376c-.206 0-.396.034-.57.103a1.47 1.47 0 0 0-.463.29 1.62 1.62 0 0 0-.338.45 2.01 2.01 0 0 0-.192.58h2.825zm-4.514.726c0-.5.08-.959.242-1.375.162-.416.387-.775.676-1.075.29-.299.637-.533 1.04-.698a3.476 3.476 0 0 1 1.332-.249c.468 0 .88.08 1.24.24.357.16.659.377.903.655.244.277.429.603.556.977a3.766 3.766 0 0 1 .182 1.37l-.011.18a3.134 3.134 0 0 0-.02.204h-4.488c.024.3.093.561.208.786a1.762 1.762 0 0 0 1.033.901c.224.076.458.114.702.114.265 0 .51-.035.735-.106.226-.07.426-.148.6-.235.198-.1.38-.214.546-.342l.627 1.143c-.202.17-.437.32-.701.453a4.63 4.63 0 0 1-.824.313c-.32.093-.685.14-1.095.14-.538 0-1.023-.09-1.452-.27a3.243 3.243 0 0 1-1.097-.736c-.3-.31-.53-.672-.692-1.083a3.536 3.536 0 0 1-.242-1.307zM280.564 60.656h.944V56.87c0-.09-.025-.16-.075-.208a.279.279 0 0 0-.204-.07h-.727v-1.206h1.69c.29 0 .506.062.651.186.145.124.217.323.217.596v.385a4.15 4.15 0 0 1-.012.291l-.012.113h.024c.075-.232.177-.449.308-.653a2.38 2.38 0 0 1 .46-.527c.175-.149.372-.266.59-.354a1.86 1.86 0 0 1 .806-.127 3.128 3.128 0 0 1 .184.021v1.59l-.113-.013a1.715 1.715 0 0 0-1.127.187 1.766 1.766 0 0 0-.589.527c-.156.22-.27.473-.345.758-.074.286-.11.58-.11.882v1.41h.923v1.21h-3.483v-1.21zM286.085 59.706h1.372v.38c0 .111.034.21.103.294a.765.765 0 0 0 .279.211c.117.056.253.098.406.128.153.028.315.043.485.043.323 0 .587-.056.794-.167.207-.113.31-.278.31-.497a.53.53 0 0 0-.108-.342 1.01 1.01 0 0 0-.304-.245 2.784 2.784 0 0 0-.47-.2 33.158 33.158 0 0 1-.595-.213 10.28 10.28 0 0 1-.72-.283 2.923 2.923 0 0 1-.658-.387 1.939 1.939 0 0 1-.48-.553c-.123-.215-.185-.479-.185-.789 0-.343.078-.633.233-.869a1.84 1.84 0 0 1 .6-.574c.244-.147.518-.252.822-.317.304-.064.603-.097.897-.097.236 0 .49.025.764.073.273.047.526.125.76.232.234.108.428.247.584.42a.9.9 0 0 1 .233.623v.826h-1.385v-.366c0-.166-.088-.296-.263-.392-.176-.094-.408-.142-.693-.142-.13 0-.25.011-.363.034a1.006 1.006 0 0 0-.298.106.587.587 0 0 0-.202.18.453.453 0 0 0-.074.263c0 .133.037.248.11.345.076.097.175.183.299.257.125.075.268.141.432.2.164.057.336.113.518.167.249.08.5.168.758.267.257.1.488.224.695.372.207.15.377.332.509.55.133.217.199.485.199.804 0 .327-.072.614-.218.86-.144.246-.34.452-.59.617-.247.166-.537.29-.868.373a4.504 4.504 0 0 1-1.968.028 3.323 3.323 0 0 1-.848-.29 1.973 1.973 0 0 1-.627-.49 1.03 1.03 0 0 1-.245-.688v-.752zM245.035 68.494c0 .206.028.407.084.602.056.195.14.368.252.52.111.152.25.275.414.37.164.092.354.14.571.14a1.235 1.235 0 0 0 .94-.428c.122-.139.218-.31.287-.514.07-.203.104-.436.104-.7a2.29 2.29 0 0 0-.096-.688 1.595 1.595 0 0 0-.272-.524 1.249 1.249 0 0 0-.417-.336 1.303 1.303 0 0 0-1.034-.022c-.159.064-.3.164-.424.3a1.492 1.492 0 0 0-.297.52 2.285 2.285 0 0 0-.112.76zm-1.28 3.713v-5.182c0-.152-.076-.228-.229-.228h-.594v-.986h1.367a1 1 0 0 1 .307.041.584.584 0 0 1 .203.11c.053.045.09.097.112.157.022.06.033.123.033.19v.031c0 .034 0 .064-.003.091l-.002.077a.472.472 0 0 0-.005.071h.02c.098-.166.227-.315.386-.447.068-.055.145-.109.231-.163.087-.054.184-.102.295-.145a2.238 2.238 0 0 1 .795-.14c.36 0 .683.07.972.204.29.135.537.325.74.57.203.243.36.536.47.878.11.342.165.718.165 1.128 0 .423-.06.805-.183 1.147-.122.343-.29.634-.505.874-.216.24-.47.427-.768.56a2.35 2.35 0 0 1-.967.197 1.8 1.8 0 0 1-.683-.117 2.066 2.066 0 0 1-.476-.259 1.885 1.885 0 0 1-.37-.376h-.02c.003.037.008.08.014.127l.011.145c.003.056.005.118.005.185v1.26h.772v.991h-2.86v-.99h.767zM250.392 70.125h.772v-3.1c0-.074-.02-.13-.06-.17a.234.234 0 0 0-.169-.058h-.595v-.985h1.382c.237 0 .415.05.533.152.12.101.178.265.178.488v.315c0 .05 0 .096-.002.137-.002.04-.005.075-.008.102l-.01.091h.02c.062-.19.146-.368.252-.534a1.88 1.88 0 0 1 .376-.431c.143-.122.305-.219.482-.29a1.531 1.531 0 0 1 .74-.096l.072.01v1.301l-.092-.011a1.662 1.662 0 0 0-.228-.01 1.41 1.41 0 0 0-.694.162 1.45 1.45 0 0 0-.482.432 1.88 1.88 0 0 0-.282.62 2.847 2.847 0 0 0-.092.722v1.153h.758v.99h-2.851v-.99zM256.759 68.464c0 .247.042.472.125.675a1.524 1.524 0 0 0 .843.856c.19.079.395.119.612.119a1.562 1.562 0 0 0 1.105-.454c.144-.144.257-.317.34-.521.083-.203.124-.428.124-.675 0-.244-.041-.468-.124-.671a1.556 1.556 0 0 0-2.56-.523c-.144.145-.257.32-.34.523a1.758 1.758 0 0 0-.125.67m-1.341 0a2.696 2.696 0 0 1 .85-1.998c.263-.246.572-.438.926-.574a3.091 3.091 0 0 1 1.135-.206c.407 0 .787.068 1.143.206.355.136.665.328.93.574.263.245.472.538.625.879.152.34.228.713.228 1.12 0 .406-.076.779-.228 1.12-.153.34-.362.633-.625.879a2.874 2.874 0 0 1-.927.573 3.104 3.104 0 0 1-1.136.206 3.12 3.12 0 0 1-1.141-.206 2.848 2.848 0 0 1-.926-.573 2.673 2.673 0 0 1-.625-.88 2.703 2.703 0 0 1-.23-1.12M265.174 69.897c.155 0 .308-.026.454-.077.148-.051.279-.135.395-.254.114-.118.207-.277.276-.478.069-.2.104-.45.104-.751 0-.302-.036-.55-.106-.748a1.227 1.227 0 0 0-.285-.468.953.953 0 0 0-.416-.245 1.84 1.84 0 0 0-.503-.069c-.2 0-.378.034-.534.104-.156.07-.286.17-.394.3a1.365 1.365 0 0 0-.241.467 2.125 2.125 0 0 0-.081.608c0 .23.029.443.089.64.059.197.144.366.257.51.11.144.25.256.416.338.166.081.355.122.569.122zm-1.768 1.965a3.528 3.528 0 0 0 .894.302c.18.037.37.054.574.054.203 0 .396-.024.576-.072.182-.047.34-.123.478-.229a1.08 1.08 0 0 0 .325-.41c.08-.17.12-.377.12-.62v-.336c0-.03 0-.062.002-.094a1.05 1.05 0 0 1 .008-.089l.01-.097h-.02a1.717 1.717 0 0 1-.592.547c-.236.13-.531.195-.886.195-.383 0-.723-.072-1.02-.216a2.181 2.181 0 0 1-.746-.582 2.577 2.577 0 0 1-.46-.853 3.378 3.378 0 0 1-.157-1.036 3.4 3.4 0 0 1 .152-1.029 2.49 2.49 0 0 1 .45-.839c.198-.238.444-.426.737-.566a2.339 2.339 0 0 1 1.013-.208c.16 0 .32.016.483.046.162.03.317.08.465.145.147.066.28.15.403.25.122.098.219.22.29.362h.02l-.01-.05a.684.684 0 0 1-.01-.128c0-.142.048-.26.145-.355.096-.095.25-.142.46-.142h1.32v.984h-.508a.252.252 0 0 0-.165.054c-.042.035-.063.087-.063.155v3.79c0 .304-.038.578-.112.818-.075.24-.178.453-.307.64a2.08 2.08 0 0 1-.462.477c-.18.132-.37.24-.577.325a3.066 3.066 0 0 1-.653.186 4.079 4.079 0 0 1-1.692-.069 4.202 4.202 0 0 1-.892-.33l.407-.98zM269.742 70.125h.772v-3.1c0-.074-.02-.13-.06-.17a.234.234 0 0 0-.168-.058h-.595v-.985h1.382c.237 0 .415.05.533.152.12.101.178.265.178.488v.315c0 .05 0 .096-.002.137-.002.04-.005.075-.008.102l-.01.091h.02c.062-.19.146-.368.252-.534a1.88 1.88 0 0 1 .376-.431c.143-.122.305-.219.482-.29a1.531 1.531 0 0 1 .74-.096l.071.01v1.301l-.092-.011a1.662 1.662 0 0 0-.228-.01 1.41 1.41 0 0 0-.694.162 1.45 1.45 0 0 0-.482.432 1.88 1.88 0 0 0-.282.62 2.847 2.847 0 0 0-.092.722v1.153h.758v.99h-2.85v-.99zM276.033 69.525c0 .098.017.191.051.28a.672.672 0 0 0 .393.388.871.871 0 0 0 .328.06c.18 0 .345-.045.496-.134.15-.088.28-.2.388-.338.11-.137.194-.29.254-.462.062-.17.092-.34.092-.505v-.173h-.219a5.5 5.5 0 0 0-.314.01 3.86 3.86 0 0 0-.382.041c-.132.02-.262.05-.39.09a1.382 1.382 0 0 0-.349.156.848.848 0 0 0-.25.244.6.6 0 0 0-.098.343m-1.33.102c0-.272.054-.503.162-.697a1.58 1.58 0 0 1 .421-.487c.173-.132.37-.238.59-.317.22-.08.44-.14.66-.184.221-.042.432-.07.635-.083.203-.014.376-.02.518-.02h.335v-.178c0-.17-.025-.313-.076-.43a.727.727 0 0 0-.208-.282.844.844 0 0 0-.31-.154 1.437 1.437 0 0 0-.386-.049c-.199 0-.389.026-.569.08a3.566 3.566 0 0 0-.477.174 3.023 3.023 0 0 0-.452.254l-.489-.915c.166-.122.357-.23.57-.325.182-.08.404-.156.663-.225.26-.07.55-.105.871-.105.715 0 1.257.18 1.628.536.371.358.557.876.557 1.557v2.12c0 .151.076.228.228.228h.478v.99h-1.25a.957.957 0 0 1-.313-.046.562.562 0 0 1-.208-.122.468.468 0 0 1-.117-.178.598.598 0 0 1-.038-.218v-.06a1.098 1.098 0 0 1 .031-.27h-.02a1.817 1.817 0 0 1-.605.7 1.577 1.577 0 0 1-.29.164 2.06 2.06 0 0 1-.358.114 2.194 2.194 0 0 1-1.082-.056 1.612 1.612 0 0 1-.56-.303 1.51 1.51 0 0 1-.393-.504 1.612 1.612 0 0 1-.147-.709M281.288 70.125h.772v-3.109c0-.075-.02-.13-.06-.165a.246.246 0 0 0-.168-.054h-.595v-.985h1.382c.237 0 .413.051.528.155.116.103.173.248.173.434v.239c0 .03-.002.059-.005.087-.004.026-.006.05-.01.07l-.01.071h.025a2.362 2.362 0 0 1 .678-.792 2.14 2.14 0 0 1 .516-.282c.19-.073.394-.109.615-.109.369 0 .681.091.937.274.255.183.436.476.541.879h.02a1.85 1.85 0 0 1 .29-.444c.122-.141.263-.264.422-.369.159-.105.334-.188.525-.249.192-.061.392-.091.603-.091.266 0 .507.04.718.119.211.08.39.203.536.369.145.165.257.375.336.627.077.252.116.553.116.901v2.424h.772v.99h-2.093V67.95c0-.148-.009-.288-.028-.416a.976.976 0 0 0-.106-.336.577.577 0 0 0-.221-.223.747.747 0 0 0-.371-.081c-.227 0-.425.052-.595.157a1.34 1.34 0 0 0-.421.417 1.962 1.962 0 0 0-.252.599 2.986 2.986 0 0 0-.084.706v1.352h.768v.99h-2.083V67.95c0-.141-.008-.276-.023-.403a.957.957 0 0 0-.099-.336.579.579 0 0 0-.219-.231.723.723 0 0 0-.375-.086c-.234 0-.436.056-.607.169a1.404 1.404 0 0 0-.424.446 2.067 2.067 0 0 0-.249.622 3.035 3.035 0 0 0-.082.703v1.291h.758v.99h-2.851v-.99z"/>
                <path d="M291.295 50.557v-.27h-.007c-.143-13.581-11.021-24.585-24.38-24.585-6.605 0-12.601 2.695-16.998 7.057l1.236 1.365c4.07-4.056 9.633-6.564 15.762-6.564 12.353 0 22.414 10.17 22.557 22.727h-1.737v-.2c0-5.703-2.307-10.878-6.036-14.641l-1.413 1.302a18.84 18.84 0 0 1 5.526 13.34v.199h-2.173v-.2c0-8.91-7.006-16.214-15.8-16.695v1.889c7.754.479 13.916 6.936 13.916 14.807v.44h.034v1.245h9.513V50.556z"/>
                <path d="M266.908 31.191c4.406 0 8.462 1.52 11.68 4.058l1.43-1.32a20.715 20.715 0 0 0-13.11-4.66c-11.479 0-20.819 9.338-20.819 20.818v.2h-1.739a23.155 23.155 0 0 1 5.262-14.478l-1.243-1.373a25.023 25.023 0 0 0-5.847 16.12v.17h.06v1.046h9.513v-1.485h-.026v-.2c0-7.853 6.134-14.297 13.861-14.803v-1.889c-8.767.508-15.746 7.8-15.746 16.692v.2h-2.172v-.2c0-10.419 8.476-18.896 18.896-18.896"/>
                <path d="M257.26 46.629l.558 1.129 1.245.18-.902.879.213 1.24-1.114-.585-1.113.586.212-1.241-.901-.878 1.245-.181zM276.63 46.629l.558 1.129 1.245.18-.901.879.212 1.24-1.113-.585-1.114.586.213-1.241-.902-.878 1.245-.181z"/>
            </g>
            <path fill="#FFF" d="M58.141 62.933l-2.112 3.38-2.159-1.348a10.381 10.381 0 0 1-3.418 2.447l.568 2.47-3.882.897-.57-2.471a10.413 10.413 0 0 1-4.155-.701l-1.343 2.155-3.379-2.111 1.346-2.155a10.344 10.344 0 0 1-2.444-3.423l-2.475.572-.894-3.882 2.467-.573a10.57 10.57 0 0 1 .701-4.15l-2.154-1.342 2.113-3.381 2.154 1.346a10.57 10.57 0 0 1 3.417-2.446l-.569-2.471 3.886-.893.57 2.47a10.452 10.452 0 0 1 4.146.7l1.351-2.156 3.377 2.112-1.346 2.157a10.415 10.415 0 0 1 2.447 3.423l2.476-.573.9 3.883-2.476.57c.048 1.39-.18 2.798-.702 4.148l2.16 1.346zM28.873 23.258a1.457 1.457 0 0 1-.429-1.035c0-.392.153-.76.43-1.036a1.46 1.46 0 0 1 1.036-.43 1.467 1.467 0 0 1 1.035 2.5c-.554.554-1.519.553-2.072 0zm5.01-5.073a1.463 1.463 0 0 1 1.036-2.5 1.463 1.463 0 0 1 1.036 2.499c-.553.554-1.519.554-2.072 0zm16.281 4.254a1.455 1.455 0 0 1 1.036-.43c.392 0 .76.153 1.037.43.276.276.428.643.428 1.035 0 .39-.152.758-.428 1.035-.554.553-1.519.553-2.073 0a1.465 1.465 0 0 1 0-2.07zm6.083-4.4a1.455 1.455 0 0 1-.429-1.034 1.46 1.46 0 0 1 1.466-1.464c.391 0 .76.152 1.036.428.571.57.571 1.5 0 2.07-.555.554-1.52.553-2.073 0zm4.134 3.968c0-.39.152-.76.43-1.035a1.46 1.46 0 0 1 1.035-.43 1.465 1.465 0 0 1 1.036 2.499c-.554.555-1.519.554-2.072 0a1.45 1.45 0 0 1-.429-1.034zm1.152 37.058s.891-1.576 1.103-2.418c.21-.838.004-5.357-2.73-10.501-1.35-2.548-3.566-4.281-6.469-5.26v-2.8l8.946-9.473v-4.13a2.52 2.52 0 0 0 1.258-.682 2.537 2.537 0 1 0-3.59-3.587 2.517 2.517 0 0 0-.744 1.793c0 .678.264 1.315.744 1.794.35.35.785.58 1.258.683v3.702l-8.946 9.474v2.91a19.046 19.046 0 0 0-2.236-.43V34.51l7.694-8.222V19.48a2.536 2.536 0 1 0-2.332-4.27 2.52 2.52 0 0 0-.744 1.794c0 .678.264 1.315.744 1.793.35.35.785.582 1.258.683v6.384l-7.694 8.22v5.94a26.725 26.725 0 0 0-2.862-.081v-9.811l3.958-4.357a2.52 2.52 0 0 0 2.846-.509c.48-.48.744-1.116.744-1.793 0-.678-.264-1.315-.744-1.794a2.52 2.52 0 0 0-1.795-.743 2.53 2.53 0 0 0-1.91 4.189l-4.173 4.593v10.267c-.813.046-1.645.115-2.505.222v-7.741l-7.156-7.15v-5.691a2.52 2.52 0 0 0 1.258-.683 2.537 2.537 0 1 0-3.59 0c.35.35.786.582 1.258.683v6.136l7.156 7.15v7.492c-.744.153-1.462.357-2.146.62v-4.437l-8.946-9.473v-2.415a2.517 2.517 0 0 0 1.258-.683 2.538 2.538 0 1 0-3.59 0c.35.35.786.58 1.26.683v2.84l8.944 9.475v4.469c-5.734 2.777-9.009 9.14-9.026 13.276-.036 10.079 7.105 14.695 7.196 18.323.155 6.51-7.232 12.45-7.232 12.45h25.462s-4.84-2.42-2.833-7.146c.89.16 3.45.63 5.447.895 1.995.26 3.728-.948 4.096-1.943.365-1-.71-2.788-.266-3.361.452-.575 1.955-2.221 1.43-3.64-.527-1.418-.266-2.146-.266-2.146s2.881-.567 3.148-1.62c.26-1.047-3.94-7.506-3.94-7.506z" mask="url(#c)"/>
            <path fill="#FFF" d="M44.817 52.164c-.14.281-.329.517-.563.657l1.455 1.314c.14-.282.328-.516.563-.657l-1.455-1.314zM48.384 53.62c.14.093.235.233.329.374.093.141.14.234.187.376l1.783-1.36a1.539 1.539 0 0 1-.516-.705l-1.783 1.314zM42.706 53.056a1.428 1.428 0 0 1-.376-.187c-.14-.094-.234-.188-.328-.282l-2.346 3.425c.28.095.516.235.703.423l2.346-3.38zM51.81 50.522a1.126 1.126 0 1 1-.001 2.252 1.126 1.126 0 0 1 0-2.252M39.14 56.575a1.126 1.126 0 1 1 0 2.252 1.126 1.126 0 0 1 0-2.252M42.096 51.413c0 .423.234.798.563.985.187.094.375.19.61.19.516 0 .89-.33 1.079-.752.047-.14.094-.236.094-.376 0-.609-.516-1.126-1.126-1.126-.704-.047-1.22.47-1.22 1.08M48.384 54.933a.949.949 0 0 0-.187-.61c-.188-.328-.564-.516-.986-.516a1.13 1.13 0 0 0-1.08.75c-.046.142-.046.235-.046.376 0 .61.516 1.126 1.126 1.126.657 0 1.173-.516 1.173-1.126M51.059 55.167c-.142 0-.282.142-.282.282v7.743c0 .141.14.282.282.282h1.455c.14 0 .28-.141.28-.282v-7.696a.301.301 0 0 0-.28-.281h-1.456v-.048zM44.113 55.167h-1.455c-.14 0-.28.142-.28.282v7.743c0 .141.14.282.28.282h1.455a.303.303 0 0 0 .282-.282v-7.696c0-.187-.14-.329-.282-.329M38.388 60.518a.302.302 0 0 0-.28.28v2.442c0 .14.14.28.28.28h1.455a.302.302 0 0 0 .281-.28v-2.441c0-.14-.14-.281-.28-.281h-1.456zM48.619 63.24v-6.008c0-.14-.141-.282-.282-.282h-1.454c-.141 0-.282.142-.282.282v6.007c0 .141.14.281.282.281h1.454c.14 0 .282-.094.282-.28" mask="url(#c)"/>
        </g>
    </g>
</svg>
